<svg xmlns="http://www.w3.org/2000/svg">
<defs>
<font id="DBBrandVoiceX" horiz-adv-x="0" >
  <font-face 
    font-family="DB BrandVoice X"
    font-weight="400"
    font-stretch="normal"
    units-per-em="1000"
    panose-1="2 0 5 6 9 0 0 2 0 4"
    ascent="800"
    descent="-200"
    x-height="389"
    cap-height="528"
    bbox="-442.994 -356.001 955 838"
    underline-thickness="20"
    underline-position="-113"
    unicode-range="U+0020-U+F882"
  />
<missing-glyph horiz-adv-x="414" 
d="M422 400v-14h6c4.66699 0 7 3 7 9c0 0.666992 -0.5 1.66699 -1.5 3s-2.83301 2 -5.5 2h-6zM425 385h-3v-14h-5v34h11c8 0 12 -3.33301 12 -10c0 -4.66699 -1 -7.5 -3 -8.5s-4.33301 -1.5 -7 -1.5l10 -14h-5zM428 366c8.66699 0 14.5 2.33301 17.5 7s4.5 9 4.5 13
c0 16 -7.33301 24 -22 24c-15.333 0 -23 -8 -23 -24c0 -5.33301 1.83301 -10 5.5 -14s9.5 -6 17.5 -6zM428 413c8.66699 0 15 -2.66699 19 -8s6 -11.666 6 -18.999c0 -5.33301 -2 -10.5 -6 -15.5s-10.333 -7.5 -19 -7.5c-8 0 -14.333 2.5 -19 7.5s-7 10.167 -7 15.5
c0 7.33301 2.33301 13.666 7 18.999s11 8 19 8zM201 316c10.667 -0.666992 23.1689 -1.99805 37.502 -3.99805s28.666 -4.33301 42.999 -7s27.5 -5.83398 39.5 -9.50098s21 -7.83398 27 -12.501c-13.333 26.667 -34 47.167 -62 61.5s-56.667 21.5 -86 21.5
c-22.667 0 -44.334 -4.33301 -65.001 -13s-37.667 -22 -51 -40c12 1.33301 24 2.33301 36 3s24 1 36 1h22.5c7.66699 0 15.167 -0.333008 22.5 -1zM375.002 395.002l-0.000976562 -142c-32 10 -68.5 18.5 -109.5 25.5s-84.5 10.5 -130.5 10.5c-32 0 -63.333 -2 -94 -6
c4 14.667 10.333 28.834 19 42.501s19.667 25.667 33 36s28.833 18.5 46.5 24.5s37.167 9 58.5 9c20.667 0 39.334 -2.33301 56.001 -7s31.167 -10.334 43.5 -17.001s22.833 -14 31.5 -22s15 -15 19 -21c0 -0.666992 0 1.5 0 6.5s-0.166992 11.167 -0.5 18.5
s-0.5 15 -0.5 23v19h28zM153.001 127.002c0 5.33301 -1.83301 9.33301 -5.5 12s-7.5 4 -11.5 4c-4.66699 0 -8.66699 -1.33301 -12 -4s-5 -6.66699 -5 -12s1.66699 -9.16602 5 -11.499s7.33301 -3.5 12 -3.5c4 0 7.83301 1.16699 11.5 3.5s5.5 6.16602 5.5 11.499z

<glyph glyph-name="plusminus" unicode="&#x2b;&#x2d;" horiz-adv-x="421" 
d="M242 232v-145h-63v145h-146v63h145v146h63v-146h146v-63h-145zM33 0v63h354v-63h-354z" />
    <glyph glyph-name="ellipsis" unicode="&#x2e;&#x2e;&#x2e;" horiz-adv-x="469" 
d="M439 45c0 -14 -4.83301 -25.667 -14.5 -35s-21.167 -14 -34.5 -14s-24.833 4.66699 -34.5 14s-14.5 20.666 -14.5 33.999c0 14 4.83301 25.667 14.5 35s21.167 14 34.5 14s24.833 -4.66699 34.5 -14s14.5 -20.666 14.5 -33.999zM283 45
c0 -14 -4.83203 -25.667 -14.499 -35s-21.167 -14 -34.5 -14s-24.833 4.66699 -34.5 14s-14.5 20.666 -14.5 33.999c0 14 4.83301 25.667 14.5 35s21.167 14 34.5 14s24.666 -4.66699 33.999 -14s14 -20.666 14 -33.999h1zM127.001 45c0 -14 -4.83203 -25.667 -14.499 -35
s-21.167 -14 -34.5 -14s-24.833 4.66699 -34.5 14s-14.5 20.666 -14.5 33.999c0 14 4.83301 25.667 14.5 35s21.167 14 34.5 14s24.666 -4.66699 33.999 -14s14 -20.666 14 -33.999h1z" />
    <glyph glyph-name="lessequal" unicode="&#x3c;&#x3d;" horiz-adv-x="391" 
d="M23 310v58l345 171v-68l-261 -132l261 -141v-67zM23 180v74l345 -186v-67z" />
    <glyph glyph-name="greaterequal" unicode="&#x3e;&#x3d;" horiz-adv-x="391" 
d="M23 131v67l261 141l-261 132v68l345 -171v-58zM23 1v67l345 186v-74z" />
    <glyph glyph-name="fongmanfunnuthai" unicode="&#xe4f;&#x22;" horiz-adv-x="490" 
d="M314 465h-47l-9 149h65zM221 465h-45l-9 149h64zM465 212c0 -30 -5.83301 -58.333 -17.5 -85s-27.5 -50 -47.5 -70s-43.333 -35.833 -70 -47.5s-55 -17.5 -85 -17.5s-58.333 5.83301 -85 17.5s-50 27.5 -70 47.5s-35.833 43.333 -47.5 70s-17.5 55 -17.5 85
s5.83301 58.333 17.5 85s27.5 50 47.5 70s43.333 35.833 70 47.5s55 17.5 85 17.5s58.333 -5.83301 85 -17.5s50 -27.5 70 -47.5s35.833 -43.333 47.5 -70s17.5 -55 17.5 -85zM407 212c0 22 -4.33203 42.833 -12.999 62.5s-20.334 36.834 -35.001 51.501
s-31.834 26.334 -51.501 35.001s-40.5 13 -62.5 13s-42.833 -4.33301 -62.5 -13s-36.834 -20.334 -51.501 -35.001s-26.334 -31.834 -35.001 -51.501s-13 -40.5 -13 -62.5s4.33301 -42.833 13 -62.5s20.334 -36.834 35.001 -51.501s31.834 -26.334 51.501 -35.001
s40.5 -13 62.5 -13s42.833 4.33301 62.5 13s36.834 20.334 51.501 35.001s26.167 31.834 34.5 51.501s12.5 40.5 12.5 62.5h1zM363.001 212c0 -16 -3.16699 -31.167 -9.5 -45.5s-14.833 -26.833 -25.5 -37.5s-23.167 -19.167 -37.5 -25.5s-29.5 -9.5 -45.5 -9.5
s-31.167 3.16699 -45.5 9.5s-26.833 14.833 -37.5 25.5s-19.167 23.167 -25.5 37.5s-9.5 29.5 -9.5 45.5s3.16699 31.167 9.5 45.5s14.833 26.833 25.5 37.5s23.167 19.167 37.5 25.5s29.5 9.5 45.5 9.5s31.167 -3.16699 45.5 -9.5s26.833 -14.833 37.5 -25.5
s19.167 -23.167 25.5 -37.5s9.5 -29.5 9.5 -45.5zM308.001 212c0 17.333 -6.16699 32.166 -18.5 44.499s-27.166 18.5 -44.499 18.5s-32.166 -6.16699 -44.499 -18.5s-18.5 -27.166 -18.5 -44.499s6.16699 -32.166 18.5 -44.499s27.166 -18.5 44.499 -18.5
s32.166 6.16699 44.499 18.5s18.5 27.166 18.5 44.499z" />
    <glyph glyph-name="dochadaphinthuthai" unicode="&#xe0e;&#xe3a;" horiz-adv-x="435" 
d="M294 -144c-21.333 16 -41.002 27.501 -59.002 34.501s-36.667 10.5 -56 10.5c-18.667 0 -37.167 -3.5 -55.5 -10.5s-38.166 -18.5 -59.499 -34.5l-42 49c28 21.333 54.5 36.666 79.5 45.999s50.833 14 77.5 14c38 0 73.667 -8.66699 107 -26l38 37v305
c0 34 -11.167 61 -33.5 81s-51.5 30 -87.5 30c-17.333 0 -34.333 -4.16699 -51 -12.5s-31 -18.833 -43 -31.5l25 -27v-301h-111v65h44v213l-40 45c19.333 34.667 44.333 62.334 75 83.001s64.334 31 101.001 31c27.333 0 52.5 -4.33301 75.5 -13
s42.833 -20.834 59.5 -36.501s29.667 -34.167 39 -55.5s14 -45 14 -71v-332zM399.998 -217.999c0 -12.667 -4.33301 -23.167 -13 -31.5s-19 -12.5 -31 -12.5s-22.333 4.16699 -31 12.5s-13 18.5 -13 30.5c0 12.667 4.33301 23.167 13 31.5s19 12.5 31 12.5
s22.333 -4.16699 31 -12.5s13 -18.833 13 -31.5v1z" />
    <glyph glyph-name="topatakphintuthai" unicode="&#xe0f;&#xe3a;" horiz-adv-x="435" 
d="M285 -151l-70 62.001l-69 -62l-111 104l43 43l69 -62l68 61l68 -61l41 37v310c0 34 -11.167 61 -33.5 81s-51.5 30 -87.5 30c-17.333 0 -34.333 -4.16699 -51 -12.5s-31 -18.833 -43 -31.5l25 -27v-301h-111v65h44v213l-41 45c19.333 34.667 44.5 62.334 75.5 83.001
s64.833 31 101.5 31c27.333 0 52.5 -4.33301 75.5 -13s42.833 -20.834 59.5 -36.501s29.667 -34.334 39 -56.001s14 -45.167 14 -70.5v-335zM400 -217.999c0 -12.667 -4.33301 -23.167 -13 -31.5s-19 -12.5 -31 -12.5s-22.333 4.16699 -31 12.5s-13 18.5 -13 30.5
c0 12.667 4.33301 23.167 13 31.5s19 12.5 31 12.5s22.333 -4.16699 31 -12.5s13 -18.833 13 -31.5v1z" />
    <glyph glyph-name="dochadasarauthai" unicode="&#xe0e;&#xe38;" horiz-adv-x="435" 
d="M294 -144c-21.333 16 -41.002 27.501 -59.002 34.501s-36.667 10.5 -56 10.5c-18.667 0 -37.167 -3.5 -55.5 -10.5s-38.166 -18.5 -59.499 -34.5l-42 49c28 21.333 54.5 36.666 79.5 45.999s50.833 14 77.5 14c38 0 73.667 -8.66699 107 -26l38 37v305
c0 34 -11.167 61 -33.5 81s-51.5 30 -87.5 30c-17.333 0 -34.333 -4.16699 -51 -12.5s-31 -18.833 -43 -31.5l25 -27v-301h-111v65h44v213l-40 45c19.333 34.667 44.333 62.334 75 83.001s64.334 31 101.001 31c27.333 0 52.5 -4.33301 75.5 -13
s42.833 -20.834 59.5 -36.501s29.667 -34.167 39 -55.5s14 -45 14 -71v-332zM327.998 -322.999v80h-41v63h69c9.33301 0 17.5 -3.33301 24.5 -10s10.5 -15 10.5 -25v-108h-63z" />
    <glyph glyph-name="topataksarauthai" unicode="&#xe0f;&#xe38;" horiz-adv-x="435" 
d="M285 -151l-70 62.001l-69 -62l-111 104l43 43l69 -62l68 61l68 -61l41 37v310c0 34 -11.167 61 -33.5 81s-51.5 30 -87.5 30c-17.333 0 -34.333 -4.16699 -51 -12.5s-31 -18.833 -43 -31.5l25 -27v-301h-111v65h44v213l-41 45c19.333 34.667 44.5 62.334 75.5 83.001
s64.833 31 101.5 31c27.333 0 52.5 -4.33301 75.5 -13s42.833 -20.834 59.5 -36.501s29.667 -34.334 39 -56.001s14 -45.167 14 -70.5v-335zM328 -322.999v80h-41v63h69c9.33301 0 17.5 -3.33301 24.5 -10s10.5 -15 10.5 -25v-108h-63z" />
    <glyph glyph-name="dochadasarauuthai" unicode="&#xe0e;&#xe39;" horiz-adv-x="435" 
d="M294 -144c-21.333 16 -41.002 27.501 -59.002 34.501s-36.667 10.5 -56 10.5c-18.667 0 -37.167 -3.5 -55.5 -10.5s-38.166 -18.5 -59.499 -34.5l-42 49c28 21.333 54.5 36.666 79.5 45.999s50.833 14 77.5 14c38 0 73.667 -8.66699 107 -26l38 37v305
c0 34 -11.167 61 -33.5 81s-51.5 30 -87.5 30c-17.333 0 -34.333 -4.16699 -51 -12.5s-31 -18.833 -43 -31.5l25 -27v-301h-111v65h44v213l-40 45c19.333 34.667 44.333 62.334 75 83.001s64.334 31 101.001 31c27.333 0 52.5 -4.33301 75.5 -13
s42.833 -20.834 59.5 -36.501s29.667 -34.167 39 -55.5s14 -45 14 -71v-332zM390.998 -248.999c0 -24 -8.49902 -44.501 -25.499 -61.501s-37.5 -25.5 -61.5 -25.5c-12 0 -23.167 2.33301 -33.5 7s-19.5 10.834 -27.5 18.501s-14.167 16.667 -18.5 27s-6.5 21.5 -6.5 33.5v7
h-41v63h103v-69c0 -6.66699 2.16699 -12.334 6.5 -17.001s10.166 -7 17.499 -7s13 2.33301 17 7s6 10.334 6 17.001v69h64v-70v1z" />
    <glyph glyph-name="topataksarauuthai" unicode="&#xe0f;&#xe39;" horiz-adv-x="435" 
d="M285 -151l-70 62.001l-69 -62l-111 104l43 43l69 -62l68 61l68 -61l41 37v310c0 34 -11.167 61 -33.5 81s-51.5 30 -87.5 30c-17.333 0 -34.333 -4.16699 -51 -12.5s-31 -18.833 -43 -31.5l25 -27v-301h-111v65h44v213l-41 45c19.333 34.667 44.5 62.334 75.5 83.001
s64.833 31 101.5 31c27.333 0 52.5 -4.33301 75.5 -13s42.833 -20.834 59.5 -36.501s29.667 -34.334 39 -56.001s14 -45.167 14 -70.5v-335zM391 -248.999c0 -24 -8.49902 -44.501 -25.499 -61.501s-37.5 -25.5 -61.5 -25.5c-12 0 -23.167 2.33301 -33.5 7
s-19.5 10.834 -27.5 18.501s-14.167 16.667 -18.5 27s-6.5 21.5 -6.5 33.5v7h-41v63h103v-69c0 -6.66699 2.16699 -12.334 6.5 -17.001s10.166 -7 17.499 -7s13 2.33301 17 7s6 10.334 6 17.001v69h64v-70v1z" />
    <glyph glyph-name=".notdef" horiz-adv-x="414" 
d="M422 400v-14h6c4.66699 0 7 3 7 9c0 0.666992 -0.5 1.66699 -1.5 3s-2.83301 2 -5.5 2h-6zM425 385h-3v-14h-5v34h11c8 0 12 -3.33301 12 -10c0 -4.66699 -1 -7.5 -3 -8.5s-4.33301 -1.5 -7 -1.5l10 -14h-5zM428 366c8.66699 0 14.5 2.33301 17.5 7s4.5 9 4.5 13
c0 16 -7.33301 24 -22 24c-15.333 0 -23 -8 -23 -24c0 -5.33301 1.83301 -10 5.5 -14s9.5 -6 17.5 -6zM428 413c8.66699 0 15 -2.66699 19 -8s6 -11.666 6 -18.999c0 -5.33301 -2 -10.5 -6 -15.5s-10.333 -7.5 -19 -7.5c-8 0 -14.333 2.5 -19 7.5s-7 10.167 -7 15.5
c0 7.33301 2.33301 13.666 7 18.999s11 8 19 8zM201 316c10.667 -0.666992 23.1689 -1.99805 37.502 -3.99805s28.666 -4.33301 42.999 -7s27.5 -5.83398 39.5 -9.50098s21 -7.83398 27 -12.501c-13.333 26.667 -34 47.167 -62 61.5s-56.667 21.5 -86 21.5
c-22.667 0 -44.334 -4.33301 -65.001 -13s-37.667 -22 -51 -40c12 1.33301 24 2.33301 36 3s24 1 36 1h22.5c7.66699 0 15.167 -0.333008 22.5 -1zM375.002 395.002l-0.000976562 -142c-32 10 -68.5 18.5 -109.5 25.5s-84.5 10.5 -130.5 10.5c-32 0 -63.333 -2 -94 -6
c4 14.667 10.333 28.834 19 42.501s19.667 25.667 33 36s28.833 18.5 46.5 24.5s37.167 9 58.5 9c20.667 0 39.334 -2.33301 56.001 -7s31.167 -10.334 43.5 -17.001s22.833 -14 31.5 -22s15 -15 19 -21c0 -0.666992 0 1.5 0 6.5s-0.166992 11.167 -0.5 18.5
s-0.5 15 -0.5 23v19h28zM153.001 127.002c0 5.33301 -1.83301 9.33301 -5.5 12s-7.5 4 -11.5 4c-4.66699 0 -8.66699 -1.33301 -12 -4s-5 -6.66699 -5 -12s1.66699 -9.16602 5 -11.499s7.33301 -3.5 12 -3.5c4 0 7.83301 1.16699 11.5 3.5s5.5 6.16602 5.5 11.499z
M32.001 139.002c0 15.333 3 29.001 9 41.001s14 22 24 30s21.333 14 34 18s25.667 6 39 6s26.166 -1.83301 38.499 -5.5s23.333 -9.16699 33 -16.5s17.334 -16.666 23.001 -27.999s8.5 -25 8.5 -41v-116h106v202h28v-228h-189v26h29v119c0 20 -7.33301 35 -22 45
s-32.667 15 -54 15c-20 0 -38 -5.5 -54 -16.5s-24 -26.5 -24 -46.5v-107l58 58c-3.33301 1.33301 -7.66602 4.66602 -12.999 9.99902s-8 13 -8 23c0 12 3.66699 21.5 11 28.5s17 10.5 29 10.5c11.333 0 20.5 -3.83301 27.5 -11.5s10.5 -16.834 10.5 -27.501
c0 -9.33301 -1.83301 -16.5 -5.5 -21.5s-6.83398 -8.83301 -9.50098 -11.5l-17 -16.5l-33 -31.5l-22.5 -21l-24.5 -24h-32v138z" />
    <glyph glyph-name="space" unicode=" " horiz-adv-x="250" 
 />
    <glyph glyph-name="exclam" unicode="!" horiz-adv-x="259" 
d="M168 319l-12 -198h-53l-12 198v209h77v-209zM179 43c0 -13.333 -4.83301 -24.666 -14.5 -33.999s-21.5 -14 -35.5 -14c-13.333 0 -24.833 4.66699 -34.5 14s-14.5 20.666 -14.5 33.999c0 14 4.83301 25.833 14.5 35.5s21.167 14.5 34.5 14.5
c14 0 25.833 -4.83301 35.5 -14.5s14.5 -21.5 14.5 -35.5z" />
    <glyph glyph-name="quotedbl" unicode="&#x22;" horiz-adv-x="201" 
d="M171 352h-48l-8 180h64zM76 352h-46l-8 180h64z" />
    <glyph glyph-name="numbersign" unicode="#" horiz-adv-x="423" 
d="M317 292l-13 -85h74v-62h-84l-24 -144h-61l23 144h-65l-22 -144h-61l20 144h-75v62h84l12 85h-78v62h86l21 134h64l-21 -134h66l20 134h64l-20 -134h67v-62h-77zM187 292l-12 -85h67l11 85h-66z" />
    <glyph glyph-name="dollar" unicode="$" horiz-adv-x="413" 
d="M372 155c0 -38 -11.8281 -70.834 -35.4951 -98.501s-52.5 -47.167 -86.5 -58.5v-83h-68v80c-34 4.66699 -62.833 17.5 -86.5 38.5s-43.834 52.5 -60.501 94.5l63 27c10.667 -28 23 -49.333 37 -64s29.667 -23.667 47 -27v193c-14.667 6.66699 -28.834 14 -42.501 22
s-25.834 17.167 -36.501 27.5s-19.167 22.333 -25.5 36s-9.5 29.834 -9.5 48.501c0 36.667 10.5 67.5 31.5 92.5s48.5 41.167 82.5 48.5v77h68v-80c19.333 -5.33301 37.666 -14.5 54.999 -27.5s33.666 -32.167 48.999 -57.5l-54 -43c-19.333 30.667 -36 49.667 -50 57v-158
c16 -8 31.333 -16.167 46 -24.5s27.667 -17.833 39 -28.5s20.333 -23.5 27 -38.5s10 -32.833 10 -53.5zM182.005 460.999c-13.333 -5.33301 -24.168 -14.333 -32.501 -27s-12.5 -26.667 -12.5 -42c0 -14 4.33301 -25.333 13 -34s19.334 -16.667 32.001 -24v127z
M303.003 157.999c0 14 -4.83301 26 -14.5 36s-22.5 19.667 -38.5 29v-151c16 9.33301 28.833 21.5 38.5 36.5s14.5 31.5 14.5 49.5z" />
    <glyph glyph-name="percent" unicode="%" horiz-adv-x="494" 
d="M245 417c0 -16 -3.1709 -31 -9.50391 -45s-14.666 -26.167 -24.999 -36.5s-22.666 -18.333 -36.999 -24s-29.5 -8.5 -45.5 -8.5s-31.167 2.83301 -45.5 8.5s-26.666 13.667 -36.999 24s-18.666 22.5 -24.999 36.5s-9.5 29 -9.5 45c0 16.667 3 32.167 9 46.5
s14.333 26.666 25 36.999s23.167 18.333 37.5 24s29.5 8.5 45.5 8.5s31.167 -2.83301 45.5 -8.5s26.833 -13.667 37.5 -24s19 -22.666 25 -36.999s9 -29.833 9 -46.5zM118.996 -19l-52 32l305 532l56 -26zM481.996 110c0 -16.667 -3.16699 -32 -9.5 -46
s-14.666 -26 -24.999 -36s-22.666 -17.833 -36.999 -23.5s-29.5 -8.5 -45.5 -8.5s-31.167 2.83301 -45.5 8.5s-26.833 13.5 -37.5 23.5s-19.167 22 -25.5 36s-9.5 29.333 -9.5 46s3.16699 32 9.5 46s14.833 26.167 25.5 36.5s23.167 18.333 37.5 24s29.5 8.5 45.5 8.5
s31.167 -2.83301 45.5 -8.5s26.666 -13.667 36.999 -24s18.666 -22.5 24.999 -36.5s9.5 -29.333 9.5 -46zM179.996 417c0 14 -5 26.001 -15 36.001s-22.333 15 -37 15c-14 0 -26 -4.83301 -36 -14.5s-15 -21.834 -15 -36.501c0 -13.333 5 -25 15 -35s22 -15 36 -15
s26.167 5 36.5 15s15.5 21.667 15.5 35zM416.996 110.001c0 14.667 -5.16699 26.834 -15.5 36.501s-22.5 14.5 -36.5 14.5c-14.667 0 -27 -4.83301 -37 -14.5s-15 -21.834 -15 -36.501c0 -14 5 -25.833 15 -35.5s22.333 -14.5 37 -14.5c14 0 26.167 4.83301 36.5 14.5
s15.5 21.5 15.5 35.5z" />
    <glyph glyph-name="ampersand" unicode="&#x26;" horiz-adv-x="521" 
d="M451 -2l-76.9971 87.0039c-24 -24 -50.333 -45.5 -79 -64.5s-59 -29.833 -91 -32.5c-20 -2 -39.167 0.166992 -57.5 6.5s-34.666 15.666 -48.999 27.999s-26 27.166 -35 44.499s-14.5 36 -16.5 56c-2 22 0.333008 42.333 7 61s16 36 28 52s25.833 30.833 41.5 44.5
s31.167 26.5 46.5 38.5c-13.333 14 -25.166 29 -35.499 45s-16.166 33.667 -17.499 53c-1.33301 15.333 0.5 30.166 5.5 44.499s12.167 27.166 21.5 38.499s20.666 20.5 33.999 27.5s27.666 11.167 42.999 12.5c16 1.33301 30.833 -0.5 44.5 -5.5s25.667 -12.167 36 -21.5
s18.666 -20.333 24.999 -33s10.166 -26.334 11.499 -41.001c1.33301 -15.333 0.166016 -29.166 -3.50098 -41.499s-8.83398 -23.833 -15.501 -34.5s-14.667 -20.667 -24 -30s-19 -18.333 -29 -27l108 -122l56 65l55 -41l-65 -75l115 -133zM268.003 433.004
c-1.33301 12 -6.16699 21.8301 -14.5 29.4971s-18.166 11.167 -29.499 10.5c-10.667 -1.33301 -20 -7.16602 -28 -17.499s-11.333 -22.166 -10 -35.499c1.33301 -11.333 5.66602 -22.166 12.999 -32.499s14.666 -19.833 21.999 -28.5c11.333 10 22.333 20.667 33 32
s15.334 25.333 14.001 42zM214.002 265.001l-33.0029 -26c-12 -9.33301 -23.167 -19.5 -33.5 -30.5s-18.666 -22.833 -24.999 -35.5s-8.83301 -26.334 -7.5 -41.001c2.66699 -23.333 11.834 -42.666 27.501 -57.999s34.167 -22 55.5 -20c22 2 43.833 11.167 65.5 27.5
s42.834 34.833 63.501 55.5z" />
    <glyph glyph-name="quotesingle" unicode="'" horiz-adv-x="142" 
d="M93 352h-46l-8 180h64z" />
    <glyph glyph-name="parenleft" unicode="(" horiz-adv-x="205" 
d="M188 539c-32 -46.667 -56.501 -96.666 -73.501 -149.999s-25.5 -108.333 -25.5 -165c0 -30 1.83301 -57.667 5.5 -83s9.33398 -50.5 17.001 -75.5s17.5 -50.833 29.5 -77.5s26.333 -56.334 43 -89.001l-65 -2c-32 52 -56.667 105.667 -74 161s-26 111.333 -26 168
c0 56 9 110 27 162s42.333 103 73 153z" />
    <glyph glyph-name="parenright" unicode=")" horiz-adv-x="205" 
d="M186 226c0 -26 -2.16895 -53.3311 -6.50195 -81.998s-10.666 -57.334 -18.999 -86.001s-18.666 -56.667 -30.999 -84s-26.5 -53 -42.5 -77h-66c16.667 32 31 61.5 43 88.5s22 53.167 30 78.5s13.833 51 17.5 77s5.5 53.667 5.5 83c0 56.667 -9 112 -27 166
s-42 104.333 -72 151h69c30 -50 54 -101.333 72 -154s27 -106.334 27 -161.001z" />
    <glyph glyph-name="asterisk" unicode="*" horiz-adv-x="352" 
d="M226 382l58.999 -77.999l-54 -42l-53 77c-3.33301 -4.66699 -5.66602 -7.83398 -6.99902 -9.50098l-6.5 -8.5l-14 -18.5l-29.5 -39.5l-53 41l59 78l-93 28l22 64l90 -31l-4 97h68l-3 -97l90 31l22 -64z" />
    <glyph glyph-name="plus" unicode="+" horiz-adv-x="421" 
d="M242 159v-146h-63v145h-145v63h145v146h63v-145h145v-63h-145z" />
    <glyph glyph-name="comma" unicode="," horiz-adv-x="235" 
d="M176 28c0 -18.667 -6.83203 -38 -20.499 -58s-34.5 -38.667 -62.5 -56l-34 34c13.333 8.66699 24 16.5 32 23.5s14.667 14.167 20 21.5c-12 1.33301 -22 6.5 -30 15.5s-12 19.5 -12 31.5c0 13.333 4.66699 25 14 35s21.333 15 36 15c19.333 0 33.666 -6.66699 42.999 -20
s14 -27.333 14 -42z" />
    <glyph glyph-name="hyphen" unicode="-" horiz-adv-x="282" 
d="M34 158v64h214v-64h-214z" />
    <glyph glyph-name="period" unicode="." horiz-adv-x="235" 
d="M166 42c0 -14 -4.66699 -25.666 -14 -34.999s-20.666 -14 -33.999 -14c-14 0 -25.667 4.66699 -35 14s-14 20.666 -14 33.999c0 14 4.66699 25.667 14 35s20.666 14 33.999 14c14 0 25.667 -4.66699 35 -14s14 -21 14 -35v1z" />
    <glyph glyph-name="slash" unicode="/" horiz-adv-x="458" 
d="M101 0h-72l324 588h69z" />
    <glyph glyph-name="zero" unicode="0" horiz-adv-x="410" 
d="M378 244c0 -32 -3.49609 -63.166 -10.4961 -93.499s-17.5 -57.166 -31.5 -80.499s-31.833 -42 -53.5 -56s-47.167 -21 -76.5 -21s-54.833 7 -76.5 21s-39.5 32.667 -53.5 56s-24.5 50.166 -31.5 80.499s-10.5 61.5 -10.5 93.5v46c0 32.667 3.5 63.667 10.5 93
s17.667 55.166 32 77.499s32.166 40.166 53.499 53.499s46.666 20 75.999 20c28.667 0 53.667 -6.5 75 -19.5s39.166 -30.667 53.499 -53s25.166 -48.166 32.499 -77.499s11 -60.333 11 -93v-47zM307.004 292.001c0 24.667 -2.49805 47.5 -7.49805 68.5
s-11.833 39.333 -20.5 55s-19.334 28 -32.001 37s-26.334 13.5 -41.001 13.5c-15.333 0 -29.166 -4.5 -41.499 -13.5s-23 -21.333 -32 -37s-16 -34 -21 -55s-7.5 -43.833 -7.5 -68.5v-48c0 -28 2.5 -53.333 7.5 -76s12 -42 21 -58s19.667 -28.5 32 -37.5
s26.166 -13.5 41.499 -13.5c30.667 0 55.167 16.667 73.5 50s27.5 78.333 27.5 135v48z" />
    <glyph glyph-name="one" unicode="1" horiz-adv-x="410" 
d="M184 -1v461h-95v68h164v-529h-69z" />
    <glyph glyph-name="two" unicode="2" horiz-adv-x="410" 
d="M357 334c0 -17.333 -2.83398 -33.5 -8.50098 -48.5s-12.834 -29.167 -21.501 -42.5s-18.167 -25.833 -28.5 -37.5l-29.5 -32.5l-104 -107h190v-66h-298v50l158 163c8.66699 8.66699 17.334 18.167 26.001 28.5s16.5 20.666 23.5 30.999s12.667 20.833 17 31.5
s6.5 21 6.5 31v55c0 22.667 -8 41.334 -24 56.001s-35 22 -57 22c-23.333 0 -42.833 -8 -58.5 -24s-23.5 -42 -23.5 -78h-69c0.666992 28.667 5.33398 53.667 14.001 75s20 39 34 53s29.833 24.333 47.5 31s36.167 10 55.5 10c20 0 39.167 -3.66699 57.5 -11
s34.333 -17.5 48 -30.5s24.5 -28.5 32.5 -46.5s12 -37.333 12 -58v-55z" />
    <glyph glyph-name="three" unicode="3" horiz-adv-x="410" 
d="M350 137c0 -20 -3.33203 -38.835 -9.99902 -56.502s-16.334 -33 -29.001 -46s-28 -23.333 -46 -31s-38.333 -11.5 -61 -11.5c-18.667 0 -36.5 3.16699 -53.5 9.5s-32 16 -45 29s-23.5 29.167 -31.5 48.5s-12.333 41.666 -13 66.999h67c1.33301 -30 8.83301 -52 22.5 -66
s31.167 -21 52.5 -21c22.667 0 41.167 7.5 55.5 22.5s21.5 33.5 21.5 55.5v30c0 19.333 -6.66699 35.833 -20 49.5s-34.333 21.834 -63 24.501v63c26.667 2.66699 46.167 10.834 58.5 24.501s18.5 29.5 18.5 47.5v32c-1.33301 18.667 -8 33.334 -20 44.001s-27 16 -45 16
c-17.333 0 -32.333 -6.16699 -45 -18.5s-19 -33.833 -19 -64.5h-69c0 50 12.333 87.667 37 113s57 38 97 38c18 0 35 -3.16699 51 -9.5s30.167 -15.333 42.5 -27s22 -25.5 29 -41.5s10.5 -33.667 10.5 -53v-30c0 -40 -15.333 -73.333 -46 -100
c35.333 -28 53 -63.667 53 -107v-31z" />
    <glyph glyph-name="four" unicode="4" horiz-adv-x="410" 
d="M325 110v-110h-70v110h-226v43l251 375h45v-353h55v-65h-55zM255 371l-131 -196h131v196z" />
    <glyph glyph-name="five" unicode="5" horiz-adv-x="410" 
d="M368 166c0 -25.333 -4.5 -48.501 -13.5 -69.501s-21.5 -39.333 -37.5 -55s-34.667 -27.834 -56 -36.501s-44 -13 -68 -13c-30 0 -58.667 8 -86 24s-51 42.333 -71 79l62 27c14.667 -23.333 30.167 -39.666 46.5 -48.999s32.833 -14 49.5 -14c30 0 55 10 75 30
s30 46 30 78v29c0 14 -2.83301 27 -8.5 39s-13.167 22.5 -22.5 31.5s-20.333 16 -33 21s-26 7.5 -40 7.5c-15.333 0 -32.333 -2.33301 -51 -7s-39.667 -13.667 -63 -27v267h247v-67h-177v-106c8 2 16 3.66699 24 5s16.667 2 26 2c24 0 46.167 -4.33301 66.5 -13
s38 -20.5 53 -35.5s26.667 -32.667 35 -53s12.5 -42.166 12.5 -65.499v-29z" />
    <glyph glyph-name="six" unicode="6" horiz-adv-x="410" 
d="M372 165c0 -22 -4.33398 -43.167 -13.001 -63.5s-20 -38.5 -34 -54.5c-15.333 -18 -33.5 -31.5 -54.5 -40.5s-42.833 -13.5 -65.5 -13.5s-44.167 4.5 -64.5 13.5s-38 21.167 -53 36.5s-27 33.5 -36 54.5s-13.5 43.5 -13.5 67.5v52c0 20 3 39.167 9 57.5
s14.333 35.166 25 50.499l134 203h85l-91 -136h7c22.667 0 44.167 -4.66699 64.5 -14s37.833 -21.666 52.5 -36.999s26.334 -33.5 35.001 -54.5s13 -42.833 13 -65.5v-56zM300.999 222c0 14.667 -2.66895 28.1689 -8.00195 40.502s-12.5 23 -21.5 32
s-19.167 16.167 -30.5 21.5s-23.333 8 -36 8c-13.333 0 -25.666 -2.83301 -36.999 -8.5s-21.333 -13.334 -30 -23.001s-15.5 -20.834 -20.5 -33.501s-7.5 -26 -7.5 -40v-53c0 -15.333 2.5 -29.333 7.5 -42s11.833 -23.834 20.5 -33.501s18.667 -17.167 30 -22.5
s23.666 -8 36.999 -8c12.667 0 24.834 2.66699 36.501 8s21.834 12.833 30.501 22.5s15.667 20.834 21 33.501s8 26.667 8 42v56z" />
    <glyph glyph-name="seven" unicode="7" horiz-adv-x="410" 
d="M144 0h-74l224 460h-262v68h344v-52z" />
    <glyph glyph-name="eight" unicode="8" horiz-adv-x="410" 
d="M352 131c0 -20 -4.00195 -38.501 -12.002 -55.501s-18.667 -31.5 -32 -43.5s-28.833 -21.5 -46.5 -28.5s-36.167 -10.5 -55.5 -10.5s-37.666 3.5 -54.999 10.5s-32.666 16.667 -45.999 29s-24 27 -32 44s-12 35.5 -12 55.5v28c0 48.667 18 86.667 54 114
c-14.667 13.333 -25.667 28.5 -33 45.5s-11 34.5 -11 52.5v30c0 18.667 3.5 36.167 10.5 52.5s16.667 30.5 29 42.5s26.666 21.333 42.999 28s33.833 10 52.5 10s36.334 -3.33301 53.001 -10s31.167 -16 43.5 -28s22 -26.167 29 -42.5s10.5 -33.833 10.5 -52.5v-30
c0 -18 -3.66699 -35.5 -11 -52.5s-18 -32.167 -32 -45.5c18.667 -14 32.167 -30.667 40.5 -50s12.5 -40.666 12.5 -63.999v-29zM272.998 398.999c0 19.333 -6.66699 35.5 -20 48.5s-29 19.5 -47 19.5s-33.5 -6.5 -46.5 -19.5s-19.5 -29.167 -19.5 -48.5v-28
c0 -18 6.5 -33.333 19.5 -46s28.5 -19 46.5 -19c18.667 0 34.5 6.33301 47.5 19s19.5 28 19.5 46v28zM283.998 162.999c0 20.667 -7.66797 38.332 -23.001 52.999s-33.666 22 -54.999 22c-20.667 0 -38.5 -7.16699 -53.5 -21.5s-22.5 -32.166 -22.5 -53.499v-29
c0 -20.667 7.5 -38.167 22.5 -52.5s32.833 -21.5 53.5 -21.5c20 0 37.5 7 52.5 21s23.167 31 24.5 51v5.5c0 3 0.166992 6.33301 0.5 10s0.5 7 0.5 10v5.5z" />
    <glyph glyph-name="nine" unicode="9" horiz-adv-x="410" 
d="M372 311c0 -20 -2.99805 -39.1689 -8.99805 -57.502s-14.333 -35.5 -25 -51.5l-134 -203h-85l91 136h-7c-23.333 0 -45 4.66699 -65 14s-37.333 21.833 -52 37.5s-26.334 33.834 -35.001 54.501s-13 42.667 -13 66v55c0 22.667 4.33301 44 13 64s20 38 34 54
c15.333 18 33.5 31.667 54.5 41s42.833 14 65.5 14s44.167 -4.5 64.5 -13.5s38.166 -21.167 53.499 -36.5s27.333 -33.666 36 -54.999s13 -44 13 -68v-51zM300.002 360.998c0 15.333 -2.5 29.4971 -7.5 42.4971s-11.833 24.167 -20.5 33.5s-18.834 16.666 -30.501 21.999
s-23.834 8 -36.501 8s-24.667 -2.66699 -36 -8s-21.5 -12.666 -30.5 -21.999s-16.167 -20.5 -21.5 -33.5s-8 -27.167 -8 -42.5v-55c0 -14.667 2.66699 -28.167 8 -40.5s12.5 -23.166 21.5 -32.499s19.167 -16.666 30.5 -21.999s23.333 -8 36 -8s24.834 3 36.501 9
s21.834 13.833 30.501 23.5s15.5 20.834 20.5 33.501s7.5 25.667 7.5 39v53z" />
    <glyph glyph-name="colon" unicode=":" horiz-adv-x="235" 
d="M166 309c0 -14 -4.66699 -25.667 -14 -35s-20.666 -14 -33.999 -14c-14 0 -25.667 4.66699 -35 14s-14 20.666 -14 33.999c0 14 4.66699 25.667 14 35s20.666 14 33.999 14c14 0 25.667 -4.66699 35 -14s14 -20.666 14 -33.999zM166 42
c0 -14 -4.66699 -25.666 -14 -34.999s-20.666 -14 -33.999 -14c-14 0 -25.667 4.66699 -35 14s-14 20.666 -14 33.999c0 14 4.66699 25.667 14 35s20.666 14 33.999 14c14 0 25.667 -4.66699 35 -14s14 -21 14 -35v1z" />
    <glyph glyph-name="semicolon" unicode=";" horiz-adv-x="235" 
d="M168 308c0 -13.333 -4.83301 -24.833 -14.5 -34.5s-21.167 -14.5 -34.5 -14.5s-24.666 4.83301 -33.999 14.5s-14 21.167 -14 34.5s4.66699 24.833 14 34.5s20.666 14.5 33.999 14.5s24.833 -4.83301 34.5 -14.5s14.5 -21.167 14.5 -34.5zM176 28
c0 -18.667 -6.83203 -38 -20.499 -58s-34.5 -38.667 -62.5 -56l-34 34c13.333 8.66699 24 16.5 32 23.5s14.667 14.167 20 21.5c-12 1.33301 -22 6.5 -30 15.5s-12 19.5 -12 31.5c0 13.333 4.66699 25 14 35s21.333 15 36 15c19.333 0 33.666 -6.66699 42.999 -20
s14 -27.333 14 -42z" />
    <glyph glyph-name="less" unicode="&#x3c;" horiz-adv-x="391" 
d="M23 165v58l345 171v-68l-261 -132l261 -141v-67z" />
    <glyph glyph-name="equal" unicode="=" horiz-adv-x="421" 
d="M34 216v64h353v-64h-353zM34 100v64h353v-64h-353z" />
    <glyph glyph-name="greater" unicode="&#x3e;" horiz-adv-x="391" 
d="M23 -14v67l261 141l-261 132v68l345 -171v-58z" />
    <glyph glyph-name="question" unicode="?" horiz-adv-x="342" 
d="M321 399c0 -26 -6 -47.832 -18 -65.499s-25 -33.334 -39 -47.001l-39 -39.5c-12 -12.667 -18 -27.334 -18 -44.001v-79h-68v81c0 24 5.83301 44 17.5 60s24.667 30.833 39 44.5s27.333 27.334 39 41.001s17.5 30.167 17.5 49.5c0 18 -6.83301 34.833 -20.5 50.5
s-34.834 23.5 -63.501 23.5c-30.667 0 -53.667 -10 -69 -30s-19.666 -48 -12.999 -84h-69c-5.33301 26.667 -4.83301 51 1.5 73s16.5 41 30.5 57s31.333 28.5 52 37.5s43 13.5 67 13.5c23.333 0 44.5 -3.83301 63.5 -11.5s35.167 -18 48.5 -31s23.5 -28.167 30.5 -45.5
s10.5 -35.333 10.5 -54zM222 42.001c0 -14 -4.66699 -25.833 -14 -35.5s-21 -14.5 -35 -14.5s-25.667 4.83301 -35 14.5s-14 21.5 -14 35.5s4.66699 25.667 14 35s21 14 35 14c13.333 0 24.833 -4.66699 34.5 -14s14.5 -21 14.5 -35z" />
    <glyph glyph-name="at" unicode="@" horiz-adv-x="552" 
d="M552 121c-28.667 -44 -64.666 -76.1719 -107.999 -96.5049s-89 -30.5 -137 -30.5c-38.667 0 -75.834 6.16699 -111.501 18.5s-67 30.166 -94 53.499s-48.667 51.833 -65 85.5s-24.5 71.834 -24.5 114.501c0 36.667 7.33301 71.334 22 104.001s34.5 61.167 59.5 85.5
s54 43.5 87 57.5s68.167 21 105.5 21c34.667 0 67.5 -5.66699 98.5 -17s58 -27 81 -47s41.167 -44 54.5 -72s20 -58.333 20 -91c0 -28 -5.16699 -54.5 -15.5 -79.5s-23.833 -46.667 -40.5 -65s-35.334 -33 -56.001 -44s-41.334 -16.5 -62.001 -16.5
c-21.333 0 -35.666 4.66699 -42.999 14s-11.666 18 -12.999 26c-15.333 -9.33301 -29.833 -16 -43.5 -20s-27.167 -6 -40.5 -6c-32.667 0 -57.667 10.167 -75 30.5s-26 45.5 -26 75.5c0 22 3.66699 44.667 11 68s18.333 44.5 33 63.5s32.667 34.667 54 47
s45.666 18.5 72.999 18.5c13.333 0 26.166 -2.33301 38.499 -7s24.5 -12.667 36.5 -24l6 18h55l-70 -210c-0.666992 -1.33301 -1.66699 -4.5 -3 -9.5s-2 -10.167 -2 -15.5s1.33301 -10.166 4 -14.499s7.66699 -6.5 15 -6.5c12 0 24.833 5 38.5 15s26 22.667 37 38
s20.167 32.333 27.5 51s11 37 11 55c0 26.667 -5.66699 50.834 -17 72.501s-26.5 40.167 -45.5 55.5s-40.667 27.333 -65 36s-49.166 13 -74.499 13c-31.333 0 -60.666 -6.16699 -87.999 -18.5s-51.166 -28.666 -71.499 -48.999s-36.5 -44.166 -48.5 -71.499
s-18 -56 -18 -86c0 -34 6.83301 -64.667 20.5 -92s32 -50.5 55 -69.5s49.167 -33.5 78.5 -43.5s60 -15 92 -15c34 0 66.667 6.16699 98 18.5s58.666 32.5 81.999 60.5zM348.001 314.995c0.666992 4 0.166016 9.00098 -1.50098 15.001s-4.83398 11.833 -9.50098 17.5
s-11 10.667 -19 15s-17.333 6.5 -28 6.5c-15.333 0 -29.666 -4.5 -42.999 -13.5s-25.333 -20.5 -36 -34.5s-19 -29.333 -25 -46s-9 -33 -9 -49c0 -17.333 4.16699 -31.833 12.5 -43.5s24.166 -17.5 47.499 -17.5c8.66699 0 17.5 2.16699 26.5 6.5s17.333 9.66602 25 15.999
s14.334 13.5 20.001 21.5s9.83398 16 12.501 24z" />
    <glyph glyph-name="A" unicode="A" horiz-adv-x="425" 
d="M350 0l-56 162h-163l-56 -162h-74l192 528h41l189 -528h-73zM212 396l-58 -168h117z" />
    <glyph glyph-name="B" unicode="B" horiz-adv-x="360" 
d="M341 155c0 -48.667 -14.166 -86.666 -42.499 -113.999s-67.833 -41 -118.5 -41h-136v528h111c50 0 87 -12.667 111 -38s36 -61 36 -107c0 -16.667 -1.33301 -33.5 -4 -50.5s-11.334 -33.167 -26.001 -48.5c26 -14.667 44 -33.334 54 -56.001s15 -47 15 -73z
M233.001 384.001c0 30.667 -6.83301 51.167 -20.5 61.5s-36.5 15.5 -68.5 15.5h-31v-156h31c32.667 0 55.667 5.16699 69 15.5s20 31.5 20 63.5zM271.001 154.001c0 18.667 -2.83301 33.499 -8.5 44.499s-13.5 19.333 -23.5 25s-22 9.33398 -36 11.001s-29.333 2.5 -46 2.5
h-44v-171h50c34 0 60.5 6 79.5 18s28.5 35.333 28.5 70z" />
    <glyph glyph-name="C" unicode="C" horiz-adv-x="414" 
d="M401 32c-22.667 -14.667 -44.667 -24.833 -66 -30.5s-43.666 -8.5 -66.999 -8.5c-32.667 0 -63.834 6.5 -93.501 19.5s-55.667 30.5 -78 52.5s-40.166 47.667 -53.499 77s-20 60.666 -20 93.999v56c0 33.333 6.5 64.666 19.5 93.999s30.833 55 53.5 77
s48.834 39.333 78.501 52s61.167 19 94.5 19c21.333 0 42.666 -2.66699 63.999 -8s43.666 -15.666 66.999 -30.999l-34 -57c-19.333 12 -37 19.833 -53 23.5s-31.333 5.5 -46 5.5c-23.333 0 -45.5 -4.83301 -66.5 -14.5s-39.5 -22.5 -55.5 -38.5s-28.667 -34.833 -38 -56.5
s-14 -44.5 -14 -68.5v-55c0 -22.667 4.66699 -44.5 14 -65.5s22 -39.667 38 -56s34.5 -29.333 55.5 -39s43.167 -14.5 66.5 -14.5c14.667 0 30 1.83301 46 5.5s33.667 11.834 53 24.501z" />
    <glyph glyph-name="D" unicode="D" horiz-adv-x="411" 
d="M392 237c0 -36 -6.33301 -68.667 -19 -98s-30.167 -54.333 -52.5 -75s-48.833 -36.5 -79.5 -47.5s-63.667 -16.5 -99 -16.5h-98v528h98c36 0 69.333 -5.33301 100 -16s57 -26.167 79 -46.5s39.333 -45 52 -74s19 -61.833 19 -98.5v-56zM322 294
c0 26 -4.5 49.166 -13.5 69.499s-21.5 37.833 -37.5 52.5s-35 25.834 -57 33.501s-46.333 11.5 -73 11.5h-28v-394h28c26.667 0 51 4 73 12s41 19.333 57 34s28.5 32.5 37.5 53.5s13.5 44.5 13.5 70.5v57z" />
    <glyph glyph-name="E" unicode="E" horiz-adv-x="318" 
d="M44 0v528h248v-67h-179v-143h174v-67h-174v-185h179v-66h-248z" />
    <glyph glyph-name="F" unicode="F" horiz-adv-x="279" 
d="M113 461v-143h147v-67h-147v-251h-69v528h220v-67h-151z" />
    <glyph glyph-name="G" unicode="G" horiz-adv-x="482" 
d="M459 262c0 -33.333 -4.50098 -66.1709 -13.501 -98.5039s-22.5 -61 -40.5 -86s-40.667 -45.167 -68 -60.5s-59.333 -23 -96 -23c-37.333 0 -69.833 7.83301 -97.5 23.5s-50.5 36.334 -68.5 62.001s-31.333 54.834 -40 87.501s-12.667 66 -12 100c0 33.333 4.5 66 13.5 98
s22.5 60.5 40.5 85.5s40.667 45.167 68 60.5s59.333 23 96 23c26 0 49.333 -3.66699 70 -11s39 -17.5 55 -30.5s30 -28.5 42 -46.5s22 -37.333 30 -58l-67 -25c-11.333 30 -27.666 54.333 -48.999 73s-48.333 28 -81 28c-24 0 -45.167 -5.16699 -63.5 -15.5
s-33.666 -24.5 -45.999 -42.5s-21.833 -39.167 -28.5 -63.5s-10 -50.5 -10 -78.5s3.33301 -54.167 10 -78.5s16.167 -45.666 28.5 -63.999s27.666 -32.666 45.999 -42.999s39.5 -15.5 63.5 -15.5c22 0 41.5 4.5 58.5 13.5s31.5 21.167 43.5 36.5s21.667 33 29 53
s12.333 41 15 63h-146v70h217c0.666992 -6.66699 1 -13 1 -19v-18z" />
    <glyph glyph-name="H" unicode="H" horiz-adv-x="446" 
d="M333 0v250h-220v-250h-69v528h69v-210h220v210h69v-528h-69z" />
    <glyph glyph-name="I" unicode="I" horiz-adv-x="167" 
d="M48 0v528h71v-528h-71z" />
    <glyph glyph-name="J" unicode="J" horiz-adv-x="164" 
d="M119 -19c0 -15.333 -2.83594 -29.667 -8.50293 -43s-13.5 -25 -23.5 -35s-21.667 -18 -35 -24s-27.666 -9 -42.999 -9s-29.666 3 -42.999 9s-25 14 -35 24l49 49c8.66699 -8 18.334 -12 29.001 -12c11.333 0 20.833 4 28.5 12s11.5 17.667 11.5 29v547h70v-547z" />
    <glyph glyph-name="K" unicode="K" horiz-adv-x="393" 
d="M301 0l-188 217v-217h-69v528h69v-199l174 199h95l-230 -255l244 -273h-95z" />
    <glyph glyph-name="L" unicode="L" horiz-adv-x="241" 
d="M44 0v528h69v-462h125v-66h-194z" />
    <glyph glyph-name="M" unicode="M" horiz-adv-x="554" 
d="M482 0l-60 343v13l-4 -15l-120 -341h-40l-122 337l-4 18l-1 -17l-61 -338h-69l97 528h41l138 -388l138 388h41l96 -528h-70z" />
    <glyph glyph-name="N" unicode="N" horiz-adv-x="512" 
d="M468 0h-43l-312 388v-388h-69v528h43l312 -388v388h69v-528z" />
    <glyph glyph-name="O" unicode="O" horiz-adv-x="483" 
d="M460 262c0 -33.333 -4.49805 -66.1689 -13.498 -98.502s-22.5 -61 -40.5 -86s-40.833 -45.167 -68.5 -60.5s-59.834 -23 -96.501 -23c-38 0 -70.667 7.83301 -98 23.5s-49.833 36.334 -67.5 62.001s-30.834 54.834 -39.501 87.501s-13 66 -13 100
c0 33.333 4.5 66 13.5 98s22.5 60.5 40.5 85.5s40.667 45.167 68 60.5s59.333 23 96 23c37.333 0 69.833 -7.83301 97.5 -23.5s50.5 -36.167 68.5 -61.5s31.333 -54.333 40 -87s13 -66 13 -100zM241.002 62.9971c32.667 0 60.167 9.83105 82.5 29.498s39 44.5 50 74.5
s16.5 62.167 16.5 96.5s-5.5 66.5 -16.5 96.5s-27.5 54.833 -49.5 74.5s-49.667 29.5 -83 29.5c-23.333 0 -44.166 -5.16699 -62.499 -15.5s-33.833 -24.5 -46.5 -42.5s-22.167 -39.167 -28.5 -63.5s-9.5 -50.5 -9.5 -78.5s3.16699 -54.167 9.5 -78.5
s15.833 -45.666 28.5 -63.999s28.167 -32.666 46.5 -42.999s39.166 -15.5 62.499 -15.5z" />
    <glyph glyph-name="P" unicode="P" horiz-adv-x="307" 
d="M294 366c0 -17.333 -3.50098 -35.333 -10.501 -54s-18.167 -34.667 -33.5 -48c-16 -14 -33.833 -22.833 -53.5 -26.5s-38.167 -5.5 -55.5 -5.5h-28v-232h-69v528h97c17.333 0 35.333 -1.5 54 -4.5s36.334 -11.833 53.001 -26.5c15.333 -13.333 26.833 -28.833 34.5 -46.5
s11.5 -36.167 11.5 -55.5v-29zM224.999 397c0 10.667 -2.33398 20.333 -7.00098 29s-10.667 15.667 -18 21c-7.33301 6 -16 9.83301 -26 11.5s-22 2.5 -36 2.5h-25v-162h29c13.333 0 24.833 1.16699 34.5 3.5s18.834 7.16602 27.501 14.499c14 12.667 21 29.334 21 50.001
v30z" />
    <glyph glyph-name="Q" unicode="Q" horiz-adv-x="483" 
d="M391 -1l-29.998 31.9971c-16 -11.333 -34 -20.333 -54 -27s-42 -10 -66 -10c-38 0 -70.667 7.83301 -98 23.5s-49.833 36.334 -67.5 62.001s-30.834 54.834 -39.501 87.501s-13 66 -13 100c0 33.333 4.5 66 13.5 98s22.5 60.5 40.5 85.5s40.667 45.167 68 60.5
s59.333 23 96 23c37.333 0 69.833 -7.83301 97.5 -23.5s50.5 -36.167 68.5 -61.5s31.333 -54.333 40 -87s13 -66 13 -100c-0.666992 -34 -5.33398 -66.667 -14.001 -98s-21.667 -59.666 -39 -84.999l74 -80h-90zM357.002 132.997
c11.333 19.333 19.6641 40.8291 24.9971 64.4961s7.83301 47.834 7.5 72.501s-3.66602 48.667 -9.99902 72s-15.666 44 -27.999 62s-27.666 32.5 -45.999 43.5s-39.833 16.5 -64.5 16.5c-23.333 0 -44.166 -5.16699 -62.499 -15.5s-33.833 -24.5 -46.5 -42.5
s-22.167 -39.167 -28.5 -63.5s-9.5 -50.5 -9.5 -78.5s3.16699 -54.167 9.5 -78.5s15.833 -45.666 28.5 -63.999s28.167 -32.666 46.5 -42.999s39.166 -15.5 62.499 -15.5c13.333 0 26 1.83301 38 5.5s22.667 8.83398 32 15.501l-87 92l51 46z" />
    <glyph glyph-name="R" unicode="R" horiz-adv-x="340" 
d="M258 0l-138.001 228.001h-7v-228h-69v528h96c17.333 0 35.833 -1.16699 55.5 -3.5s38.5 -9.83301 56.5 -22.5c18.667 -13.333 31.834 -29.166 39.501 -47.499s11.5 -37.833 11.5 -58.5v-30c0 -36.667 -9.83301 -65.834 -29.5 -87.501s-45.5 -35.834 -77.5 -42.501
l144 -236h-82zM233.999 396.001c-1.33301 26.667 -12.667 45.667 -34 57c-7.33301 3.33301 -15.833 5.5 -25.5 6.5s-19.167 1.5 -28.5 1.5h-33v-162h36c13.333 0 24.833 1 34.5 3s18.5 6.33301 26.5 13c16 14 24 31.333 24 52v29z" />
    <glyph glyph-name="S" unicode="S" horiz-adv-x="358" 
d="M327 148c0 -22 -3.8291 -42.3359 -11.4961 -61.0029s-18.5 -35 -32.5 -49s-30.667 -25 -50 -33s-40.333 -12 -63 -12c-34 0 -64 10.5 -90 31.5s-46.667 52.5 -62 94.5l62 29c13.333 -32.667 27.166 -55.5 41.499 -68.5s31.166 -19.5 50.499 -19.5
c28 0 49.167 8.66699 63.5 26s21.5 38.666 21.5 63.999c0 12 -2.33301 22.5 -7 31.5s-10.834 17 -18.501 24s-16.334 13.5 -26.001 19.5s-19.834 12 -30.501 18l-50.5 30c-15.667 9.33301 -29 19.5 -40 30.5s-19.667 23.833 -26 38.5s-9.5 33 -9.5 55
c0 18.667 2.66699 36.334 8 53.001s13.5 31.334 24.5 44.001s24.667 22.667 41 30s35.5 11 57.5 11c25.333 0 49.333 -6.83301 72 -20.5s43 -35.5 61 -65.5l-52 -43c-16 24 -30 40.167 -42 48.5s-25.667 12.5 -41 12.5c-22 0 -37.667 -7.5 -47 -22.5s-14 -31.167 -14 -48.5
c0 -11.333 1.83301 -21 5.5 -29s9.33398 -15.5 17.001 -22.5s17.5 -14 29.5 -21s26.667 -14.833 44 -23.5c16.667 -9.33301 32 -18.666 46 -27.999s26 -19.666 36 -30.999s17.833 -24.5 23.5 -39.5s8.5 -32.833 8.5 -53.5z" />
    <glyph glyph-name="T" unicode="T" horiz-adv-x="325" 
d="M197 461v-461h-69v461h-117v67h303v-67h-117z" />
    <glyph glyph-name="U" unicode="U" horiz-adv-x="423" 
d="M379 183l-0.00195312 -16.502c0 -5.66699 -0.333008 -11.167 -1 -16.5c-0.666992 -17.333 -3.16699 -34.166 -7.5 -50.499s-12.833 -32.166 -25.5 -47.499c-16.667 -19.333 -37 -34 -61 -44s-48.333 -15 -73 -15c-19.333 0 -38 2.83301 -56 8.5
s-34.333 13.834 -49 24.501s-27.167 23.667 -37.5 39s-17.166 32.666 -20.499 51.999c-2 10.667 -3.16699 21.5 -3.5 32.5s-0.5 22.167 -0.5 33.5v345h69v-337c0 -20.667 0.833008 -39 2.5 -55s7.16699 -29.667 16.5 -41s21.333 -20.166 36 -26.499s29 -9.5 43 -9.5
c14.667 0 29.5 3.16699 44.5 9.5s27.167 15.166 36.5 26.499c8.66699 11.333 13.834 25 15.501 41s2.5 34.333 2.5 55v337h69v-345z" />
    <glyph glyph-name="V" unicode="V" horiz-adv-x="375" 
d="M207 0h-41l-161 528h72l102 -354l9 -36l8 36l102 354h73z" />
    <glyph glyph-name="W" unicode="W" horiz-adv-x="677" 
d="M523 0h-40l-133 377l-10 33l-9 -33l-139 -377h-40l-149 528h72l95 -356l9 -38l10 37l131 357h39l129 -354l11 -39l10 40l92 353h72z" />
    <glyph glyph-name="X" unicode="X" horiz-adv-x="369" 
d="M290 0l-107 200l-105 -200h-78l144 269l-138 259h77l101 -187l99 187h78l-138 -259l145 -269h-78z" />
    <glyph glyph-name="Y" unicode="Y" horiz-adv-x="391" 
d="M231 226v-226h-70v226l-158 302h78l115 -225l115 225h78z" />
    <glyph glyph-name="Z" unicode="Z" horiz-adv-x="376" 
d="M111 66h235v-66h-321v54l233 407h-225v67h314v-53z" />
    <glyph glyph-name="bracketleft" unicode="[" horiz-adv-x="200" 
d="M28 -119v684h149v-66h-83v-551h83v-67h-149z" />
    <glyph glyph-name="backslash" unicode="\" horiz-adv-x="458" 
d="M357 0l-322 588h70l324 -588h-72z" />
    <glyph glyph-name="bracketright" unicode="]" horiz-adv-x="200" 
d="M23 -119v66h84v551h-84v67h149v-684h-149z" />
    <glyph glyph-name="asciicircum" unicode="^" horiz-adv-x="412" 
d="M339 194l-133 265l-131 -265h-69l173 351h55l173 -350z" />
    <glyph glyph-name="underscore" unicode="_" horiz-adv-x="379" 
d="M2 -94v61h375v-61h-375z" />
    <glyph glyph-name="grave" unicode="`" horiz-adv-x="204" 
d="M128 365l-109 129l77 26l85 -130z" />
    <glyph glyph-name="a" unicode="a" horiz-adv-x="394" 
d="M291 0v30.002c-15.333 -12 -30.833 -21 -46.5 -27s-33.167 -9 -52.5 -9c-27.333 0 -51.333 4.66699 -72 14s-38.167 22.166 -52.5 38.499s-25.166 35.166 -32.499 56.499s-11 44 -11 68v57c0 24 3.83301 46.333 11.5 67s18.667 38.667 33 54s31.833 27.333 52.5 36
s44 13 70 13c35.333 0 68.666 -11.667 99.999 -35v29h66v-392h-66zM293 232.002c0 30 -9.16406 55 -27.4971 75s-43.833 30 -76.5 30c-15.333 0 -28.833 -3 -40.5 -9s-21.834 -14 -30.501 -24s-15.334 -21.5 -20.001 -34.5s-7.33398 -26.5 -8.00098 -40.5v-58
c0 -15.333 2.33301 -30 7 -44s11.167 -26.333 19.5 -37s18.833 -19 31.5 -25s27 -9 43 -9c34 0 59.5 11.167 76.5 33.5s25.5 50.5 25.5 84.5v58z" />
    <glyph glyph-name="b" unicode="b" horiz-adv-x="403" 
d="M376 172c0 -24 -3.83203 -46.833 -11.499 -68.5s-18.834 -40.667 -33.501 -57s-32.667 -29.166 -54 -38.499s-45.333 -14 -72 -14c-36 0 -70 12 -102 36v-30h-66v595h66v-228c16 11.333 32.667 19.666 50 24.999s35 8 53 8c26 0 49.5 -4.33301 70.5 -13
s38.833 -20.5 53.5 -35.5s26 -32.833 34 -53.5s12 -42.667 12 -66v-60zM310.001 229c0 14.667 -2.5 28.502 -7.5 41.502s-12 24.5 -21 34.5s-19.833 18 -32.5 24s-26.667 9 -42 9c-34 0 -60.167 -10.167 -78.5 -30.5s-27.5 -46.5 -27.5 -78.5v-58
c0 -16 2.33301 -30.833 7 -44.5s11.5 -25.834 20.5 -36.501s20 -19 33 -25s27.833 -9 44.5 -9c16 0 30.5 3.16699 43.5 9.5s24 14.666 33 24.999s15.833 22.5 20.5 36.5s7 29 7 45v57z" />
    <glyph glyph-name="c" unicode="c" horiz-adv-x="338" 
d="M321 33c-23.333 -16 -44.333 -26.832 -63 -32.499s-37.667 -8.5 -57 -8.5c-26 0 -49.833 4.5 -71.5 13.5s-40.5 21.5 -56.5 37.5s-28.333 34.667 -37 56s-13 44.333 -13 69v56c0 24 4.5 46.667 13.5 68s21.5 39.666 37.5 54.999s34.833 27.5 56.5 36.5
s45.167 13.5 70.5 13.5c19.333 0 38.333 -2.83301 57 -8.5s39.667 -16.167 63 -31.5l-28 -58c-21.333 14 -38.5 23.667 -51.5 29s-26.833 8 -41.5 8c-16 0 -30.833 -3 -44.5 -9s-25.334 -14.167 -35.001 -24.5s-17.334 -22.333 -23.001 -36s-8.5 -27.834 -8.5 -42.501v-56
c0 -15.333 2.83301 -29.833 8.5 -43.5s13.334 -25.667 23.001 -36s21.334 -18.666 35.001 -24.999s28.5 -9.5 44.5 -9.5c14.667 0 28.5 2.5 41.5 7.5s30.167 14.5 51.5 28.5z" />
    <glyph glyph-name="d" unicode="d" horiz-adv-x="399" 
d="M296 -1l0.00195312 29.001c-16 -12 -32.5 -20.667 -49.5 -26s-34.5 -8 -52.5 -8c-27.333 0 -51.5 4.66699 -72.5 14s-38.833 22.166 -53.5 38.499s-25.834 35.333 -33.501 57s-11.5 44.5 -11.5 68.5v56c0 24 4 46.333 12 67s19.333 38.667 34 54s32.5 27.333 53.5 36
s44.5 13 70.5 13c37.333 0 71.666 -11.667 102.999 -35v233h66v-597h-66zM298.002 231.001c0 30 -9.50195 55.166 -28.502 75.499s-44.833 30.5 -77.5 30.5c-15.333 0 -29.166 -3 -41.499 -9s-23.166 -14 -32.499 -24s-16.5 -21.667 -21.5 -35s-7.5 -27 -7.5 -41v-56
c0 -16 2.5 -31 7.5 -45s12 -26.167 21 -36.5s20 -18.666 33 -24.999s27.5 -9.5 43.5 -9.5c34 0 59.833 11.333 77.5 34s26.5 51 26.5 85v56z" />
    <glyph glyph-name="e" unicode="e" horiz-adv-x="383" 
d="M95 175v-24.001c0 -30 9.83301 -53.667 29.5 -71s44.5 -26 74.5 -26c20 0 37.833 5.83301 53.5 17.5s31.167 30.834 46.5 57.501l56 -31c-21.333 -38 -45 -65.167 -71 -81.5s-56 -24.5 -90 -24.5c-26 0 -49.333 4.83301 -70 14.5s-38.167 22.667 -52.5 39
s-25.166 35.166 -32.499 56.499s-11 43.666 -11 66.999v58c0 22.667 4 44.334 12 65.001s19.167 38.834 33.5 54.501s31.666 28.167 51.999 37.5s43.166 14 68.499 14c26.667 0 50.334 -4.83301 71.001 -14.5s38 -23 52 -40s24.5 -37.167 31.5 -60.5s10.5 -48.333 10.5 -75
v-33h-264zM289 254.999c0 10 -2.66602 19.832 -7.99902 29.499s-12.333 18.334 -21 26.001s-18.667 13.834 -30 18.501s-23 7 -35 7c-12.667 0 -24.834 -2.33301 -36.501 -7s-22 -10.667 -31 -18s-16.167 -15.833 -21.5 -25.5s-8 -19.834 -8 -30.501l-1 -18h193z" />
    <glyph glyph-name="f" unicode="f" horiz-adv-x="203" 
d="M121 328l-0.000976562 -327.999h-67v328h-49v62h49v72c0 12 0.666992 26.667 2 44s6 32.666 14 45.999c9.33301 16.667 22.5 29 39.5 37s34.5 12 52.5 12c6 0 12.833 -0.5 20.5 -1.5s16.167 -3.5 25.5 -7.5l-16 -56c-9.33301 2 -18.666 3 -27.999 3
c-12 0 -21 -2.5 -27 -7.5s-10.167 -11.333 -12.5 -19s-3.5 -16.167 -3.5 -25.5v-27v-70h88v-62h-88z" />
    <glyph glyph-name="g" unicode="g" horiz-adv-x="398" 
d="M362 20c0 -23.333 -1.66406 -48.5 -4.99707 -75.5s-13.333 -51.833 -30 -74.5c-16.667 -22 -37.167 -38.333 -61.5 -49s-50.5 -16 -78.5 -16c-22 0 -43.167 3.16699 -63.5 9.5s-38.333 16.166 -54 29.499s-28.667 30.333 -39 51s-16.833 45.334 -19.5 74.001h66
c3.33301 -36 15 -62.167 35 -78.5s44 -24.5 72 -24.5c22.667 0 41.167 3.5 55.5 10.5s25.5 16.5 33.5 28.5s13.667 26 17 42s5.33301 33 6 51v28c-32.667 -23.333 -67.667 -35 -105 -35c-26 0 -49.333 4.83301 -70 14.5s-38.167 22.5 -52.5 38.5s-25.5 34.667 -33.5 56
s-12 43.666 -12 66.999v60c0 23.333 4.16699 45.333 12.5 66s20.166 38.834 35.499 54.501s33.666 28 54.999 37s44.666 13.5 69.999 13.5c19.333 0 37 -3 53 -9s31.667 -14.667 47 -26v29h66v-372zM298.003 230c0 30.667 -9.33496 56 -28.002 76s-45 30 -79 30
c-15.333 0 -29.166 -3 -41.499 -9s-23 -14 -32 -24s-16 -21.5 -21 -34.5s-7.5 -26.5 -7.5 -40.5v-60c0 -15.333 2.33301 -30 7 -44s11.5 -26.333 20.5 -37s20 -19.167 33 -25.5s27.5 -9.5 43.5 -9.5c34.667 0 60.834 11.5 78.501 34.5s26.5 51.5 26.5 85.5v58z" />
    <glyph glyph-name="h" unicode="h" horiz-adv-x="362" 
d="M259 0l0.000976562 254.002c0 28 -4.5 48.667 -13.5 62s-27.833 20 -56.5 20c-16.667 0 -30.5 -3 -41.5 -9s-19.833 -14.333 -26.5 -25s-11.334 -23 -14.001 -37s-4 -29 -4 -45v-220h-66v597h66v-227c12.667 9.33301 26.667 16.333 42 21s31 7 47 7
c24.667 0 45.5 -3.66699 62.5 -11s30.833 -17.333 41.5 -30s18.167 -27.834 22.5 -45.501s6.5 -36.834 6.5 -57.501v-254h-66z" />
    <glyph glyph-name="i" unicode="i" horiz-adv-x="150" 
d="M123 515c0 -13.333 -4.66699 -24.5 -14 -33.5s-20.666 -13.5 -33.999 -13.5s-24.5 4.5 -33.5 13.5s-13.5 20.167 -13.5 33.5c0 12.667 4.5 23.667 13.5 33s20.167 14 33.5 14s24.666 -4.66699 33.999 -14s14 -20.333 14 -33zM41 0v390h68v-390h-68z" />
    <glyph glyph-name="j" unicode="j" horiz-adv-x="150" 
d="M123 515c0 -13.333 -4.66699 -24.5 -14 -33.5s-20.666 -13.5 -33.999 -13.5s-24.5 4.5 -33.5 13.5s-13.5 20.167 -13.5 33.5c0 12.667 4.5 23.667 13.5 33s20.167 14 33.5 14s24.666 -4.66699 33.999 -14s14 -20.333 14 -33zM41 -214v604h68v-604h-68z" />
    <glyph glyph-name="k" unicode="k" horiz-adv-x="329" 
d="M248 0l-143 172v-172h-66v597h66v-331l98 124h90l-144 -172l189 -218h-90z" />
    <glyph glyph-name="l" unicode="l" horiz-adv-x="150" 
d="M41 0v598h68v-598h-68z" />
    <glyph glyph-name="m" unicode="m" horiz-adv-x="547" 
d="M508 0l-67 -0.000976562v260c0 25.333 -4.5 44.333 -13.5 57s-24.5 19 -46.5 19c-25.333 0 -44.166 -9 -56.499 -27s-18.5 -41 -18.5 -69v-240h-66v252c0 26 -4.66699 46.5 -14 61.5s-25.666 22.5 -48.999 22.5c-10.667 0 -20.334 -3.16699 -29.001 -9.5
s-16.167 -14.666 -22.5 -24.999s-11.333 -21.666 -15 -33.999s-5.5 -24.5 -5.5 -36.5v-231h-66v390h66v-25c11.333 12 24.333 20.333 39 25s28 7 40 7c18.667 0 36.5 -3.5 53.5 -10.5s30.833 -17.167 41.5 -30.5c13.333 15.333 29.166 26.166 47.499 32.499
s36.5 9.5 54.5 9.5c25.333 0 46.166 -4 62.499 -12s29.333 -18.667 39 -32s16.334 -28.5 20.001 -45.5s5.5 -34.5 5.5 -52.5v-256z" />
    <glyph glyph-name="n" unicode="n" horiz-adv-x="365" 
d="M326 0l-66.001 0.000976562v252c0 30.667 -5 52 -15 64s-28 18 -54 18c-13.333 0 -25.166 -3.66699 -35.499 -11s-19.333 -16.5 -27 -27.5s-13.5 -23.167 -17.5 -36.5s-6 -26.333 -6 -39v-220h-66v390h66v-29c12.667 11.333 27 20.166 43 26.499s31 9.5 45 9.5
c24.667 0 45.5 -3.5 62.5 -10.5s30.833 -17 41.5 -30s18.167 -28.333 22.5 -46s6.5 -37.167 6.5 -58.5v-252z" />
    <glyph glyph-name="o" unicode="o" horiz-adv-x="391" 
d="M367 170c0 -25.333 -4.16895 -48.666 -12.502 -69.999s-20.166 -40 -35.499 -56s-33.5 -28.5 -54.5 -37.5s-44.167 -13.5 -69.5 -13.5c-24.667 0 -47.5 4.66699 -68.5 14s-39 22 -54 38s-26.833 34.667 -35.5 56s-13 44 -13 68v57c0 24 4.33301 46.5 13 67.5
s20.667 39.333 36 55s33.333 28 54 37s43.334 13.5 68.001 13.5s47.5 -4.33301 68.5 -13s39.167 -20.667 54.5 -36s27.333 -33.333 36 -54s13 -43.334 13 -68.001v-58zM299.998 226c0 32 -9.66602 58.333 -28.999 79s-45.333 31 -78 31c-30 0 -54.333 -10.667 -73 -32
s-28 -47 -28 -77v-58c0 -15.333 2.33301 -29.833 7 -43.5s11.5 -25.667 20.5 -36s19.667 -18.5 32 -24.5s26.166 -9 41.499 -9c32.667 0 58.667 10.833 78 32.5s29 48.5 29 80.5v57z" />
    <glyph glyph-name="p" unicode="p" horiz-adv-x="400" 
d="M378 160c0 -24 -4.00098 -46.1689 -12.001 -66.502s-19.333 -38.166 -34 -53.499s-32.5 -27.333 -53.5 -36s-44.5 -13 -70.5 -13c-18 0 -35.667 2.66699 -53 8s-34 14 -50 26v-240h-66v606h66v-29c33.333 23.333 67.333 35 102 35c26.667 0 50.667 -4.66699 72 -14
s39.333 -22.166 54 -38.499s25.834 -35.333 33.501 -57s11.5 -44.5 11.5 -68.5v-59zM311.999 218.998c0 16 -2.33301 31.001 -7 45.001s-11.5 26.167 -20.5 36.5s-20 18.666 -33 24.999s-27.5 9.5 -43.5 9.5c-34 0 -60 -11.167 -78 -33.5s-27 -49.5 -27 -81.5v-58
c0 -32 9.16699 -58.167 27.5 -78.5s44.5 -30.5 78.5 -30.5c15.333 0 29.333 3 42 9s23.5 14 32.5 24s16 21.5 21 34.5s7.5 26.833 7.5 41.5v57z" />
    <glyph glyph-name="q" unicode="q" horiz-adv-x="400" 
d="M296 -215l-0.000976562 240.002c-16 -12 -32.5 -20.667 -49.5 -26s-34.833 -8 -53.5 -8c-26 0 -49.5 4.33301 -70.5 13s-38.833 20.667 -53.5 36s-26 33.166 -34 53.499s-12 42.5 -12 66.5v59c0 24 3.83301 46.833 11.5 68.5s18.834 40.667 33.501 57
s32.5 29.166 53.5 38.499s45.167 14 72.5 14c34.667 0 68.667 -11.667 102 -35v29h66v-606h-66zM297.999 220.002c0 32 -8.83301 59.166 -26.5 81.499s-43.5 33.5 -77.5 33.5c-16.667 0 -31.5 -3.16699 -44.5 -9.5s-24 -14.666 -33 -24.999s-15.833 -22.5 -20.5 -36.5
s-7 -29 -7 -45v-57c0 -14.667 2.5 -28.5 7.5 -41.5s12 -24.5 21 -34.5s19.833 -18 32.5 -24s26.667 -9 42 -9c34 0 60.167 10.167 78.5 30.5s27.5 46.5 27.5 78.5v58z" />
    <glyph glyph-name="r" unicode="r" horiz-adv-x="237" 
d="M202 321c-8.66699 4.66699 -14.833 7.33496 -18.5 8.00195s-6.16699 1 -7.5 1c-15.333 0 -27.5 -4 -36.5 -12s-16 -18.333 -21 -31s-8.33301 -26.334 -10 -41.001s-2.5 -28.334 -2.5 -41.001v-205h-67v391h67v-34c7.33301 10 17.5 19.333 30.5 28s26.167 13 39.5 13
c7.33301 0 15.333 -0.666992 24 -2s21 -5 37 -11z" />
    <glyph glyph-name="s" unicode="s" horiz-adv-x="271" 
d="M256 115c0 -36 -10.333 -65.665 -31 -88.998s-50 -35 -88 -35c-30 0 -56.333 9.5 -79 28.5s-38 45.833 -46 80.5l61 23c6.66699 -26 15.334 -43.833 26.001 -53.5s23.334 -14.5 38.001 -14.5c19.333 0 33 6.83301 41 20.5s12 28.167 12 43.5c0 10 -2.33301 18.5 -7 25.5
s-10.834 13 -18.501 18s-16.167 9.5 -25.5 13.5l-29 12c-9.33301 4 -18.333 8.83301 -27 14.5s-16.5 12.5 -23.5 20.5s-12.667 17.5 -17 28.5s-6.5 23.833 -6.5 38.5c0 14 2.16699 27.5 6.5 40.5s11 24.5 20 34.5s19.833 18 32.5 24s27.667 9 45 9
c18 0 36.333 -5.33301 55 -16s34.667 -29.334 48 -56.001l-58 -32c-8.66699 18 -16.834 29.167 -24.501 33.5s-14.834 6.5 -21.501 6.5c-13.333 0 -22.666 -4.5 -27.999 -13.5s-8 -19.167 -8 -30.5c0 -13.333 5.16699 -24 15.5 -32s22.833 -14.667 37.5 -20l34 -15.5
c12 -5.66699 22.833 -13 32.5 -22s17.667 -20.333 24 -34s9.5 -30.834 9.5 -51.501z" />
    <glyph glyph-name="t" unicode="t" horiz-adv-x="215" 
d="M135 327v-327h-67v327h-54v63h54v132h67v-132h76v-63h-76z" />
    <glyph glyph-name="u" unicode="u" horiz-adv-x="370" 
d="M326 137c0 -43.333 -10.834 -78.5 -32.501 -105.5s-58.834 -40.5 -111.501 -40.5c-26 0 -48.167 3.66699 -66.5 11s-33.166 17.5 -44.499 30.5s-19.5 28.333 -24.5 46s-7.5 37.167 -7.5 58.5v252h66v-252c0 -30 5.66699 -51.333 17 -64s31.333 -19 60 -19
s48.834 6.33301 60.501 19s17.5 34 17.5 64v252h66v-252z" />
    <glyph glyph-name="v" unicode="v" horiz-adv-x="340" 
d="M192 0h-42l-149 390h72l99 -274l95 274h71z" />
    <glyph glyph-name="w" unicode="w" horiz-adv-x="551" 
d="M406 0h-41l-90 253l-86 -253h-42l-145 390h71l96 -264l89 264h38l91 -264l93 264h69z" />
    <glyph glyph-name="x" unicode="x" horiz-adv-x="361" 
d="M278 0l-98 153l-98 -153h-79l135 204l-126 186h80l89 -133l85 133h83l-125 -186l135 -204h-81z" />
    <glyph glyph-name="y" unicode="y" horiz-adv-x="382" 
d="M154 -192h-70l80 188l-162 394h72l123 -301l113 301h70z" />
    <glyph glyph-name="z" unicode="z" horiz-adv-x="342" 
d="M25 0v53l202 274h-193v63h282v-51l-202 -276h202v-63h-291z" />
    <glyph glyph-name="braceleft" unicode="{" horiz-adv-x="206" 
d="M199 -119c-27.333 1.33301 -49.5029 4.83398 -66.5029 10.501s-30.167 14 -39.5 25s-15.833 24.333 -19.5 40s-5.5 34.167 -5.5 55.5v113c0 15.333 -4 28.5 -12 39.5s-20.667 23.167 -38 36.5v46c18 13.333 30.667 25 38 35s11 22.667 11 38v113
c0 21.333 1.83301 40 5.5 56s10.334 29.5 20.001 40.5s23 19.333 40 25s39.167 9.16699 66.5 10.5v-65c-25.333 -0.666992 -42.666 -3.33398 -51.999 -8.00098s-14 -15.334 -14 -32.001v-121c0 -31.333 -3.66699 -55.5 -11 -72.5s-17.666 -31.5 -30.999 -43.5
c13.333 -12 23.5 -26.833 30.5 -44.5s10.5 -42.5 10.5 -74.5v-119c0 -17.333 4.83301 -28.166 14.5 -32.499s27.167 -6.5 52.5 -6.5v-65z" />
    <glyph glyph-name="bar" unicode="|" horiz-adv-x="209" 
d="M71 -7v591h67v-591h-67z" />
    <glyph glyph-name="braceright" unicode="}" horiz-adv-x="206" 
d="M188 201c-17.333 -13.333 -29.8291 -25.502 -37.4961 -36.502s-11.5 -24.167 -11.5 -39.5v-113c0 -21.333 -1.83301 -39.833 -5.5 -55.5s-10.334 -29 -20.001 -40s-23.167 -19.333 -40.5 -25s-39.333 -9.16699 -66 -10.5v64c25.333 0 42.666 2.33301 51.999 7
s14 15.667 14 33v119c0 32 3.66699 56.833 11 74.5s17.666 32.5 30.999 44.5c-13.333 12 -23.5 26.5 -30.5 43.5s-10.5 41.167 -10.5 72.5v121c0 16.667 -4.83301 27.334 -14.5 32.001s-27.167 7.33398 -52.5 8.00098v65c26.667 -1.33301 48.667 -4.83301 66 -10.5
s30.666 -14 39.999 -25s15.833 -24.5 19.5 -40.5s5.5 -34.667 5.5 -56v-113c0 -15.333 3.83301 -28 11.5 -38s20.5 -21.667 38.5 -35v-46z" />
    <glyph glyph-name="asciitilde" unicode="~" horiz-adv-x="431" 
d="M413 222c-17.333 -28 -35.3301 -51.5029 -53.9971 -70.5029s-41.334 -28.5 -68.001 -28.5c-13.333 0 -26.333 2.83301 -39 8.5s-25 11.834 -37 18.501s-23.833 12.834 -35.5 18.501s-23.834 8.5 -36.501 8.5c-10 0 -19.333 -4 -28 -12s-20 -22.667 -34 -44l-62 31
l28 36.5c9.33301 11.667 18.833 21.667 28.5 30s20 15 31 20s23.167 7.5 36.5 7.5s27.333 -2.83301 42 -8.5s28.667 -11.667 42 -18l37 -18c11.333 -5.66699 20.666 -8.5 27.999 -8.5c9.33301 0 18.5 4.33301 27.5 13s19.5 25.334 31.5 50.001z" />
    <glyph glyph-name="uni00A0" unicode="&#xa0;" horiz-adv-x="250" 
 />
    <glyph glyph-name="cent" unicode="&#xa2;" horiz-adv-x="455" 
d="M369 146c-15.333 -13.333 -31.1709 -24.333 -47.5039 -33s-33.166 -14.334 -50.499 -17.001v-51h-60v53c-40 8 -71.833 27.667 -95.5 59s-35.5 68.333 -35.5 111c0 20.667 3.16699 40.5 9.5 59.5s15.333 35.833 27 50.5s25.5 27.167 41.5 37.5s33.667 17.5 53 21.5v53h60
v-50c34 -5.33301 67 -21.333 99 -48l-37 -53c-13.333 11.333 -24.666 19.833 -33.999 25.5s-18.666 9.83398 -27.999 12.501v-219c8.66699 2.66699 17.834 7 27.501 13s21.167 15 34.5 27zM210.995 373c-20.667 -7.33301 -37.333 -20.833 -50 -40.5s-19 -41.167 -19 -64.5
s6.5 -44.833 19.5 -64.5s29.5 -33.5 49.5 -41.5v211z" />
    <glyph glyph-name="sterling" unicode="&#xa3;" horiz-adv-x="402" 
d="M313 338c-0.666992 42 -11.002 73.8311 -31.002 95.498s-44 32.5 -72 32.5s-50.333 -10 -67 -30s-25 -46 -25 -78v-73h100v-65h-101v-156l246 1v-66h-346v65h32v156h-32v65h32v73c0 24 3.83301 46.833 11.5 68.5s18.5 40.5 32.5 56.5s30.833 28.833 50.5 38.5
s41.834 14.5 66.501 14.5c24 0 46.333 -4.83301 67 -14.5s38.834 -23.167 54.501 -40.5s28 -38.166 37 -62.499s13.5 -51.166 13.5 -80.499h-69z" />
    <glyph glyph-name="yen" unicode="&#xa5;" horiz-adv-x="406" 
d="M301 348h80v-63h-113l-26 -51h138v-63h-142v-171h-70v171h-141v63h137l-27 51h-110v63h77l-94 180h78l115 -225l115 225h78z" />
    <glyph glyph-name="copyright" unicode="&#xa9;" horiz-adv-x="578" 
d="M507 265c0 30 -5.66699 58.167 -17 84.5s-26.833 49.333 -46.5 69s-42.667 35.167 -69 46.5s-54.5 17 -84.5 17c-30.667 0 -59.334 -5.66699 -86.001 -17s-49.834 -26.833 -69.501 -46.5s-35.167 -42.667 -46.5 -69s-17 -54.5 -17 -84.5
c0 -30.667 5.66699 -59.334 17 -86.001s26.833 -49.834 46.5 -69.501s42.834 -35.167 69.501 -46.5s55.334 -17 86.001 -17c30 0 58.167 5.66699 84.5 17s49.333 26.833 69 46.5s35.167 42.834 46.5 69.501s17 55.334 17 86.001zM400 130
c-19.333 -13.333 -36.665 -22.3369 -51.998 -27.0039s-31.333 -7 -48 -7c-22 0 -42 3.83301 -60 11.5s-33.5 18 -46.5 31s-23.167 28.333 -30.5 46s-11 36.834 -11 57.501v40c0 20 3.66699 38.833 11 56.5s17.666 33 30.999 46s29 23.167 47 30.5s37.667 11 59 11
c16 0 31.667 -2.16699 47 -6.5s33 -13.166 53 -26.499l-24 -51c-18 12 -32.5 20.333 -43.5 25s-22.167 7 -33.5 7c-26.667 0 -48.334 -9.16699 -65.001 -27.5s-25 -39.833 -25 -64.5v-40c0 -12 2.16699 -23.667 6.5 -35s10.5 -21.166 18.5 -29.499
s17.5 -15.166 28.5 -20.499s23.167 -8 36.5 -8c11.333 0 22.5 2.16699 33.5 6.5s25.5 12.5 43.5 24.5l24 -49v-1zM566.001 264.996c0 -38 -7.33301 -74 -22 -108s-34.5 -63.5 -59.5 -88.5s-54.167 -44.833 -87.5 -59.5s-69 -22 -107 -22s-74 7.33301 -108 22
s-63.5 34.5 -88.5 59.5s-44.833 54.5 -59.5 88.5s-22 70 -22 108s7.33301 73.667 22 107s34.5 62.5 59.5 87.5s54.5 44.833 88.5 59.5s70 22 108 22s73.667 -7.33301 107 -22s62.5 -34.5 87.5 -59.5s44.833 -54.167 59.5 -87.5s22 -69 22 -107z" />
    <glyph glyph-name="guillemotleft" unicode="&#xab;" horiz-adv-x="311" 
d="M216 224l83 -100l-42 -42l-119 142l119 142l42 -42zM133 82l-120 142l120 142l44 -42l-84 -100l84 -100z" />
    <glyph glyph-name="registered" unicode="&#xae;" horiz-adv-x="571" 
d="M569 265c0 -38.667 -7.5 -75.167 -22.5 -109.5s-35.167 -64.166 -60.5 -89.499s-55.333 -45.5 -90 -60.5s-71.334 -22.5 -110.001 -22.5c-39.333 0 -76.333 7.5 -111 22.5s-64.834 35.167 -90.501 60.5s-46 55.166 -61 89.499s-22.5 70.833 -22.5 109.5s7.5 75 22.5 109
s35.333 63.667 61 89s55.834 45.333 90.501 60s71.667 22 111 22c38.667 0 75.334 -7.33301 110.001 -22s64.667 -34.667 90 -60s45.5 -55 60.5 -89s22.5 -70.333 22.5 -109zM510 265c0 30.667 -5.83398 59.5 -17.501 86.5s-27.667 50.5 -48 70.5s-44.166 35.667 -71.499 47
s-56.333 17 -87 17c-31.333 0 -60.833 -5.66699 -88.5 -17s-51.667 -27 -72 -47s-36.333 -43.5 -48 -70.5s-17.5 -55.833 -17.5 -86.5c0 -31.333 5.83301 -60.5 17.5 -87.5s27.667 -50.5 48 -70.5s44.333 -35.833 72 -47.5s57.167 -17.5 88.5 -17.5
c30.667 0 59.667 5.83301 87 17.5s51 27.5 71 47.5s35.833 43.5 47.5 70.5s17.5 56.167 17.5 87.5h1zM360.999 104l-82.001 131h-49v-131h-60v314h142c42 0 72.167 -7.66699 90.5 -23s27.5 -38 27.5 -68s-8.16699 -51.833 -24.5 -65.5s-36.166 -22.167 -59.499 -25.5
l88 -132h-73zM371.998 328c0 7.33301 -2.16699 13.165 -6.5 17.498s-9.66602 7.5 -15.999 9.5s-13.5 3.16699 -21.5 3.5s-16 0.5 -24 0.5h-75v-66h46c11.333 0 22.5 -0.166992 33.5 -0.5s22.167 0.833984 33.5 3.50098c9.33301 2.66699 16.666 6.33398 21.999 11.001
s8 11.667 8 21z" />
    <glyph glyph-name="guillemotright" unicode="&#xbb;" horiz-adv-x="311" 
d="M180 82l-44 42l83 100l-83 100l44 42l119 -142zM56 82l-43 42l83 100l-83 100l43 42l119 -142z" />
    <glyph glyph-name="onequarter" unicode="&#xbc;" horiz-adv-x="600" 
d="M168 0h-60l370 527h59zM534 48v-48h-48v48h-147v22l169 243h26v-218h35v-47h-35zM486 198l-72 -103h72v103zM112 224v258h-52l-1 46h101v-304h-48z" />
    <glyph glyph-name="onehalf" unicode="&#xbd;" horiz-adv-x="600" 
d="M576 211c0 -11.333 -1.83398 -21.3311 -5.50098 -29.998s-8.5 -17.667 -14.5 -27c-5.33301 -8 -11.166 -15.167 -17.499 -21.5l-19.5 -20.5l-59 -66h115v-46h-188v39l55 58.5l54 59.5c7.33301 8.66699 14.333 17.667 21 27s10 18.666 10 27.999c0 14 -5 25.667 -15 35
s-22 14 -36 14s-26 -5.5 -36 -16.5s-15 -27.5 -15 -49.5h-49c0 18.667 2.83301 35.167 8.5 49.5s13.167 26.166 22.5 35.499s20 16.333 32 21s24.333 7 37 7c28 0 51.667 -9.16699 71 -27.5s29 -41.5 29 -69.5zM127.999 0.00195312h-60l371 528h59zM111.999 224.002v258h-53
v46h101v-304h-48z" />
    <glyph glyph-name="threequarters" unicode="&#xbe;" horiz-adv-x="600" 
d="M177 0h-60l371 527h59zM534 48v-48h-48v48h-147v22l169 243h26v-218h35v-47h-35zM226 313c0 -13.333 -2.50098 -25.999 -7.50098 -37.999s-11.833 -22.333 -20.5 -31s-19 -15.5 -31 -20.5s-25 -7.5 -39 -7.5c-25.333 0 -47.166 8.5 -65.499 25.5s-27.5 42.5 -27.5 76.5
h46c2.66699 -18.667 8.16699 -32.667 16.5 -42s18.5 -14 30.5 -14c13.333 0 24.833 5 34.5 15s14.5 21.667 14.5 35c0 29.333 -21.333 44.333 -64 45v46c40 2.66699 60 17.334 60 44.001c0 11.333 -4 20.666 -12 27.999s-17.333 11 -28 11c-11.333 0 -20.5 -4 -27.5 -12
s-11.167 -21.667 -12.5 -41h-49c3.33301 32 12.5 56.667 27.5 74s35.5 26 61.5 26c24.667 0 45.667 -8.33301 63 -25s26 -37.334 26 -62.001c0 -26 -10 -47.333 -30 -64c22.667 -18 34 -41 34 -69zM485.999 198.001l-72 -103h72v103z" />
    <glyph glyph-name="multiply" unicode="&#xd7;" horiz-adv-x="380" 
d="M314 20l-124 124l-124 -124l-46 46l124 124l-124 124l46 46l124 -124l124 124l46 -46l-124 -124l124 -124z" />
    <glyph glyph-name="divide" unicode="&#xf7;" horiz-adv-x="411" 
d="M254 306c0 -13.333 -4.66699 -24.833 -14 -34.5s-20.666 -14.5 -33.999 -14.5c-14 0 -25.667 4.83301 -35 14.5s-14 21.167 -14 34.5s4.66699 24.833 14 34.5s20.666 14.5 33.999 14.5c14 0 25.667 -4.83301 35 -14.5s14 -21.167 14 -34.5zM34 158v64h343v-64h-343z
M254 74c0 -13.333 -4.66699 -24.833 -14 -34.5s-20.666 -14.5 -33.999 -14.5c-14 0 -25.667 4.83301 -35 14.5s-14 21.167 -14 34.5s4.66699 24.833 14 34.5s20.666 14.5 33.999 14.5c14 0 25.667 -4.83301 35 -14.5s14 -21.167 14 -34.5z" />
    <glyph glyph-name="kokaithai" unicode="&#xe01;" horiz-adv-x="438" 
d="M388 0h-67.001v282c0 34 -11.167 61 -33.5 81s-51.5 30 -87.5 30c-17.333 0 -34.333 -4 -51 -12s-31 -18.667 -43 -32l25 -27v-322h-67v299l-41 45c20 34.667 45.333 62.334 76 83.001s64.334 31 101.001 31c27.333 0 52.5 -4.33301 75.5 -13
s42.833 -20.834 59.5 -36.501s29.667 -34.167 39 -55.5s14 -45 14 -71v-282z" />
    <glyph glyph-name="khokhaithai" unicode="&#xe02;" horiz-adv-x="371" 
d="M327 125c0 -18 -3.49902 -35.002 -10.499 -51.002s-16.667 -30 -29 -42s-26.833 -21.5 -43.5 -28.5s-34.334 -10.5 -53.001 -10.5c-19.333 0 -37.166 3.5 -53.499 10.5s-30.666 16.5 -42.999 28.5s-22 26 -29 42s-10.5 33 -10.5 51v56c0 18 2.33301 32.833 7 44.5
s11 21.834 19 30.501s17.5 16.5 28.5 23.5l35.5 22.5c8.66699 6 15.334 12 20.001 18s7 14.333 7 25c0 13.333 -4.83301 25 -14.5 35s-21.834 15 -36.501 15c-9.33301 0 -18.666 -3.33301 -27.999 -10s-18.666 -19.667 -27.999 -39l-56 37c28.667 50.667 66 76 112 76
c16 0 31.167 -3 45.5 -9s26.666 -14.167 36.999 -24.5s18.666 -22.333 24.999 -36s9.5 -28.5 9.5 -44.5c0 -18 -2.33301 -32.667 -7 -44s-11 -21 -19 -29s-17.333 -15.167 -28 -21.5s-22 -13.5 -34 -21.5c-9.33301 -6.66699 -16.333 -13.667 -21 -21s-7 -16.666 -7 -27.999
v-55c0 -18 6.66699 -33.5 20 -46.5s29.666 -19.5 48.999 -19.5s35.666 6.5 48.999 19.5s20 28.5 20 46.5v325h67v-325z" />
    <glyph glyph-name="khokhuatthai" unicode="&#xe03;" horiz-adv-x="367" 
d="M323 125c0 -18 -3.50195 -34.999 -10.502 -50.999s-16.667 -30 -29 -42s-26.833 -21.5 -43.5 -28.5s-34.334 -10.5 -53.001 -10.5c-19.333 0 -37.166 3.5 -53.499 10.5s-30.666 16.5 -42.999 28.5s-22 26 -29 42s-10.5 33 -10.5 51v58c0.666992 14.667 3 27.5 7 38.5
s8.83301 20.5 14.5 28.5s12 15 19 21s14.167 11.333 21.5 16c6.66699 4.66699 13.334 9 20.001 13s13 8.66699 19 14c10.667 8.66699 16 20 16 34c0 13.333 -4.33301 24.666 -13 33.999l-49 -42l-90 74l40 46l48 -39l44 37c28 -10.667 49.333 -25.5 64 -44.5
s22 -40.833 22 -65.5c0 -14.667 -1.66699 -27 -5 -37s-7.83301 -18.667 -13.5 -26s-12 -13.5 -19 -18.5s-14.167 -9.83301 -21.5 -14.5l-20.5 -13c-6.33301 -4 -12.166 -8.66699 -17.499 -14s-9.66602 -11.333 -12.999 -18s-5.33301 -15 -6 -25v-57
c0 -18 6.66699 -33.5 20 -46.5s29.666 -19.5 48.999 -19.5s35.666 6.5 48.999 19.5s20 28.5 20 46.5v325h67v-325z" />
    <glyph glyph-name="khokhwaithai" unicode="&#xe04;" horiz-adv-x="420" 
d="M375 0h-67v297c0 12.667 -2.5 24.834 -7.5 36.501s-12 21.834 -21 30.501s-19.333 15.5 -31 20.5s-24.5 7.5 -38.5 7.5s-26.833 -2.5 -38.5 -7.5s-22 -11.833 -31 -20.5s-16 -18.834 -21 -30.501s-7.5 -23.834 -7.5 -36.501v-38h98v-63h-98v-196h-67v297
c0 22 4.33301 42.833 13 62.5s20.5 36.667 35.5 51s32.5 25.666 52.5 33.999s41.333 12.5 64 12.5s44 -4.16699 64 -12.5s37.5 -19.666 52.5 -33.999s26.833 -31.333 35.5 -51s13 -40.5 13 -62.5v-297z" />
    <glyph glyph-name="khokhonthai" unicode="&#xe05;" horiz-adv-x="440" 
d="M394 0h-67v307c0 31.333 -12 57 -36 77l-72 -64l-70 64c-11.333 -9.33301 -20.333 -20.833 -27 -34.5s-10 -28.167 -10 -43.5v-45h107v-65h-107v-196h-67v307c0 34 9.5 64.667 28.5 92s46.5 49.333 82.5 66l64 -57l63 56c36 -16.667 63.5 -38.5 82.5 -65.5
s28.5 -57.5 28.5 -91.5v-307z" />
    <glyph glyph-name="khorakhangthai" unicode="&#xe06;" horiz-adv-x="420" 
d="M376 152c0 -22 -4.33105 -42.6699 -12.998 -62.0029s-20.5 -36.166 -35.5 -50.499s-32.5 -25.666 -52.5 -33.999s-41.333 -12.5 -64 -12.5c-19.333 0 -37.333 4.33301 -54 13s-31.667 19.334 -45 32.001v-39h-67v217c0 28 4.83301 49.5 14.5 64.5
s20.167 27.167 31.5 36.5l15.5 13l15.5 13c8 6.66699 12 14.667 12 24c0 4 -1 8.66699 -3 14l-40 -33l-83 68l40 46l42 -34l38 32c23.333 -9.33301 41.5 -22.166 54.5 -38.499s18.833 -34.5 17.5 -54.5c-0.666992 -21.333 -5.83398 -37.5 -15.501 -48.5
s-19.834 -21.167 -30.501 -30.5c-12 -9.33301 -22 -18.666 -30 -27.999s-12 -22.333 -12 -39v-66c0 -13.333 2.5 -25.833 7.5 -37.5s12 -21.834 21 -30.501s19.5 -15.667 31.5 -21s25 -8 39 -8c13.333 0 26 2.5 38 7.5s22.5 11.833 31.5 20.5s16 18.667 21 30
s7.5 23.666 7.5 36.999v297h67v-298z" />
    <glyph glyph-name="ngonguthai" unicode="&#xe07;" horiz-adv-x="345" 
d="M300 93c0 -28 -9.49902 -51.667 -28.499 -71s-42.5 -29 -70.5 -29c-21.333 0 -40.5 5.83301 -57.5 17.5s-28.833 27.167 -35.5 46.5l-99 283l62 24l99 -282c2 -6.66699 5.83301 -12.167 11.5 -16.5s12.167 -6.5 19.5 -6.5c9.33301 0 17.166 3.33301 23.499 10
s9.5 14.667 9.5 24v293h-54v64h120v-357z" />
    <glyph glyph-name="chochanthai" unicode="&#xe08;" horiz-adv-x="378" 
d="M332 301c0 -9.33301 -0.999023 -20.501 -2.99902 -33.501s-4.33301 -23.833 -7 -32.5l-73 -235h-67l-86 299h70l50 -194l42 151c1.33301 5.33301 2.83301 12.833 4.5 22.5s2.5 17.167 2.5 22.5c0 12.667 -2.5 24.5 -7.5 35.5s-11.667 20.667 -20 29
s-18.333 14.833 -30 19.5s-23.834 7 -36.501 7c-23.333 0 -43.666 -8 -60.999 -24s-28 -39 -32 -69h-67c2 24 7.66699 45.833 17 65.5s21.166 36.334 35.499 50.001s30.666 24.167 48.999 31.5s37.833 11 58.5 11c22 0 42.833 -4 62.5 -12s36.834 -19 51.501 -33
s26.167 -30.5 34.5 -49.5s12.5 -39.5 12.5 -61.5z" />
    <glyph glyph-name="chochingthai" unicode="&#xe09;" horiz-adv-x="397" 
d="M353 -1h-67.0039v34c-11.333 -12 -24.666 -21.5 -39.999 -28.5s-31.666 -10.5 -48.999 -10.5c-21.333 0 -41.5 3.83301 -60.5 11.5s-35.5 18.167 -49.5 31.5s-25.167 29 -33.5 47s-12.5 37.667 -12.5 59v67h-28v66h95v-133c0 -24 8.66699 -44.167 26 -60.5
s38.333 -24.5 63 -24.5c12.667 0 24.5 2.33301 35.5 7s20.5 11.167 28.5 19.5s14.167 18 18.5 29s6.5 22.5 6.5 34.5v153c0 12.667 -2.5 24.5 -7.5 35.5s-11.667 20.667 -20 29s-18.333 14.833 -30 19.5s-23.834 7 -36.501 7c-19.333 0 -37.666 -6 -54.999 -18
s-29.666 -29.667 -36.999 -53h-69c13.333 44.667 34.5 78.5 63.5 101.5s61.5 34.5 97.5 34.5c22 0 42.833 -4 62.5 -12s36.834 -19 51.501 -33s26.167 -30.5 34.5 -49.5s12.5 -39.5 12.5 -61.5v-302z" />
    <glyph glyph-name="chochangthai" unicode="&#xe0a;" horiz-adv-x="373" 
d="M304 364c7.33301 -7.33301 13.1631 -16.833 17.4961 -28.5s6.5 -23.834 6.5 -36.501v-174c0 -18 -3.5 -35 -10.5 -51s-16.667 -30 -29 -42s-26.833 -21.5 -43.5 -28.5s-34.334 -10.5 -53.001 -10.5c-19.333 0 -37.166 3.5 -53.499 10.5s-30.666 16.5 -42.999 28.5
s-22 26 -29 42s-10.5 33 -10.5 51v56c0 17.333 2.33301 32 7 44s11 22.5 19 31.5s17.5 17 28.5 24l35.5 22.5c8.66699 5.33301 15.334 11 20.001 17s7 14.667 7 26c0 13.333 -5 24.833 -15 34.5s-22 14.5 -36 14.5c-9.33301 0 -18.666 -3.16699 -27.999 -9.5
s-18.666 -19.166 -27.999 -38.499l-56 37c28.667 50 66 75 112 75c25.333 0 48 -7.16699 68 -21.5s34 -32.5 42 -54.5l99 108l50 -43zM179.997 248c-13.333 -8 -26.165 -16.6689 -38.498 -26.002s-18.5 -23.333 -18.5 -42v-55c0 -18.667 6.66699 -34.5 20 -47.5
s29.666 -19.5 48.999 -19.5s35.666 6.5 48.999 19.5s20 28.833 20 47.5v173c0 7.33301 -1.5 15 -4.5 23s-8.83301 16.333 -17.5 25v-1c0 -14 -1.66699 -26.167 -5 -36.5s-7.83301 -19.166 -13.5 -26.499s-12 -13.666 -19 -18.999s-14.167 -10.333 -21.5 -15z" />
    <glyph glyph-name="sosothai" unicode="&#xe0b;" horiz-adv-x="362" 
d="M293 364c7.33301 -7.33301 13.166 -16.8311 17.499 -28.498s6.5 -23.834 6.5 -36.501v-174c0 -18 -3.5 -35.167 -10.5 -51.5s-16.667 -30.5 -29 -42.5s-26.833 -21.5 -43.5 -28.5s-34.334 -10.5 -53.001 -10.5c-19.333 0 -37.166 3.5 -53.499 10.5
s-30.666 16.5 -42.999 28.5s-22 26 -29 42s-10.5 33.333 -10.5 52v56c0 17.333 2.33301 32 7 44s11 22.5 19 31.5s17.333 17.167 28 24.5l35 24c9.33301 6 16.333 12.167 21 18.5s7 14.833 7 25.5c0 13.333 -4.33301 24.666 -13 33.999l-51 -45l-91 76l41 46l48 -40l46 39
c42 -16 68.667 -41 80 -75l98 107l50 -43zM169 250.002l-19.9961 -13.501c-6.66699 -4.33301 -12.834 -9.16602 -18.501 -14.499s-10.167 -11.333 -13.5 -18s-5 -15 -5 -25v-54c0 -18.667 6.66699 -34.667 20 -48s29.666 -20 48.999 -20s35.666 6.66699 48.999 20
s20 29.333 20 48v173c0 7.33301 -1.5 15 -4.5 23s-8.83301 16.333 -17.5 25c0 -13.333 -1.83301 -25 -5.5 -35s-8.33398 -18.833 -14.001 -26.5s-12 -14.167 -19 -19.5z" />
    <glyph glyph-name="chochoethai" unicode="&#xe0c;" horiz-adv-x="675" 
d="M631 141c0 -24 -3.83301 -45.1699 -11.5 -63.5029s-18.334 -33.666 -32.001 -45.999s-29.5 -21.666 -47.5 -27.999s-37 -9.5 -57 -9.5c-17.333 0 -34.333 4.5 -51 13.5s-31 20.167 -43 33.5v-41h-68v282c0 32.667 -11.5 59.334 -34.5 80.001s-52.833 31 -89.5 31
c-18 0 -35.5 -4.16699 -52.5 -12.5s-31.5 -18.833 -43.5 -31.5l25 -27v-257h63v-65h-130l-1 299l-41 45c20 34.667 45.5 62.334 76.5 83.001s65.5 31 103.5 31c28 0 53.667 -4.33301 77 -13s43.5 -20.834 60.5 -36.501s30.333 -34.167 40 -55.5s14.5 -45 14.5 -71v-110
c0 -17.333 3.16699 -32.833 9.5 -46.5s14.333 -25.5 24 -35.5s19.834 -17.667 30.501 -23s20.334 -8 29.001 -8c23.333 0 42.666 6.66699 57.999 20s23 34 23 62v309h68v-309z" />
    <glyph glyph-name="yoyingthai" unicode="&#xe0d;" horiz-adv-x="670" 
d="M626 10c0 -21.333 -3.99707 -41.168 -11.9971 -59.501s-19.167 -34.166 -33.5 -47.499s-31 -24 -50 -32s-39.5 -12 -61.5 -12c-60.667 0 -109.334 31.333 -146.001 94l58 36c12.667 -23.333 26.167 -40 40.5 -50s30.166 -15 47.499 -15c25.333 0 46.5 8.5 63.5 25.5
s25.5 37.167 25.5 60.5v12c-24.667 -18.667 -52.667 -28 -84 -28c-21.333 0 -41.333 3.83301 -60 11.5s-34.834 18.167 -48.501 31.5s-24.5 29 -32.5 47s-12 37.333 -12 58v140c0 34 -11.5 61 -34.5 81s-52.833 30 -89.5 30c-18 0 -35.5 -4 -52.5 -12
s-31.167 -18.667 -42.5 -32l25 -26v-258h62v-65h-131v299l-41 45c20 34.667 45.5 62.334 76.5 83.001s65.5 31 103.5 31c28 0 53.667 -4.33301 77 -13s43.5 -20.834 60.5 -36.501s30.333 -34.167 40 -55.5s14.5 -45 14.5 -71v-140c0 -22.667 8 -42 24 -58s36.333 -24 61 -24
c24 0 44 7.66699 60 23s24 35 24 59v308h68v-304v-136z" />
    <glyph glyph-name="dochadathai" unicode="&#xe0e;" horiz-adv-x="435" 
d="M294 -164c-21.333 16 -41.002 27.501 -59.002 34.501s-36.667 10.5 -56 10.5c-18.667 0 -37.167 -3.5 -55.5 -10.5s-38.166 -18.5 -59.499 -34.5l-42 49c28 21.333 54.5 36.666 79.5 45.999s50.833 14 77.5 14c38 0 73.667 -8.66699 107 -26l38 37v325
c0 34 -11.167 61 -33.5 81s-51.5 30 -87.5 30c-17.333 0 -34.333 -4.16699 -51 -12.5s-31 -18.833 -43 -31.5l25 -27v-321h-111v65h44v233l-40 45c19.333 34.667 44.333 62.334 75 83.001s64.334 31 101.001 31c27.333 0 52.5 -4.33301 75.5 -13
s42.833 -20.834 59.5 -36.501s29.667 -34.167 39 -55.5s14 -45 14 -71v-352z" />
    <glyph glyph-name="topatakthai" unicode="&#xe0f;" horiz-adv-x="435" 
d="M285 -171l-70 62.001l-69 -62l-111 104l43 43l69 -62l68 61l68 -61l41 37v330c0 34 -11.167 61 -33.5 81s-51.5 30 -87.5 30c-17.333 0 -34.333 -4.16699 -51 -12.5s-31 -18.833 -43 -31.5l25 -27v-321h-111v65h44v233l-41 45c19.333 34.667 44.5 62.334 75.5 83.001
s64.833 31 101.5 31c27.333 0 52.5 -4.33301 75.5 -13s42.833 -20.834 59.5 -36.501s29.667 -34.334 39 -56.001s14 -45.167 14 -70.5v-355z" />
    <glyph glyph-name="thothanthai" unicode="&#xe10;" horiz-adv-x="378" 
d="M301 393c20.667 -26.667 31.0039 -57.3301 31.0039 -91.9971c0 -9.33301 -0.833008 -19.833 -2.5 -31.5s-3.83398 -21.834 -6.50098 -30.501l-74 -239h-67l-87 299h70l51 -194l43 155c1.33301 5.33301 2.66602 12.166 3.99902 20.499s2 15.166 2 20.499
c0 12.667 -2.33301 24.5 -7 35.5s-11.334 20.667 -20.001 29s-18.667 14.833 -30 19.5s-23.333 7 -36 7c-23.333 0 -43.833 -7.83301 -61.5 -23.5s-28.5 -38.5 -32.5 -68.5h-67c2.66699 24 8.66699 45.667 18 65s21 35.833 35 49.5s30.167 24.167 48.5 31.5
s38.166 11 59.499 11c26.667 0 52.667 -6.66699 78 -20l47 55l52 -44zM291.004 -180.996l-74 70l-75 -70l-116 111l39 40l78 -73l75 70l73 -68l13 11v59h62v-81z" />
    <glyph glyph-name="thonangmonthothai" unicode="&#xe11;" horiz-adv-x="425" 
d="M380 0l-66.998 0.000976562v339c0 8.66699 -1.33301 16.167 -4 22.5s-5.66699 11.833 -9 16.5l-191 -378h-60v212c0 23.333 3.66699 42.666 11 57.999s15.666 28.666 24.999 39.999c6 8 13.167 16.833 21.5 26.5s12.5 19.834 12.5 30.501c0 5.33301 -1 10 -3 14l-38 -33
l-81 68l40 46l40 -33l36 32c47.333 -20 71 -50.333 71 -91c0 -22 -5 -39.833 -15 -53.5l-32 -44.5c-6.66699 -9.33301 -11.834 -18.333 -15.501 -27s-5.5 -18.667 -5.5 -30v-68l153 309c38 -3.33301 66 -15.833 84 -37.5s27 -48.5 27 -80.5v-338z" />
    <glyph glyph-name="thophuthaothai" unicode="&#xe12;" horiz-adv-x="681" 
d="M635 141c0 -24 -3.83301 -45.1689 -11.5 -63.502s-18.334 -33.5 -32.001 -45.5s-29.5 -21.167 -47.5 -27.5s-37 -9.5 -57 -9.5c-16.667 0 -33.667 4.83301 -51 14.5s-31.666 20.5 -42.999 32.5v-42h-68v296c0 17.333 -3.83301 33.333 -11.5 48s-17.834 26.667 -30.501 36
l-64 -53l-64 53c-13.333 -9.33301 -23.833 -21.333 -31.5 -36s-11.5 -30.667 -11.5 -48v-181c0 -14.667 5.66699 -27 17 -37s28.333 -15 51 -15v-68c-20.667 0 -39.334 3.16699 -56.001 9.5s-31 14.833 -43 25.5s-21.167 23.334 -27.5 38.001s-9.5 30.334 -9.5 47.001v181
c0 18.667 2.83301 36.5 8.5 53.5s13.834 32.667 24.501 47s23 26.833 37 37.5s29.667 19 47 25l58 -48l58 48c34 -12 61.833 -32.667 83.5 -62s32.5 -63 32.5 -101v-128c0 -16 3.16699 -30.667 9.5 -44s14.333 -24.833 24 -34.5s19.834 -17.167 30.501 -22.5
s20.667 -8 30 -8c23.333 0 42.5 6.66699 57.5 20s22.5 34 22.5 62v309h68v-309z" />
    <glyph glyph-name="nonenthai" unicode="&#xe13;" horiz-adv-x="670" 
d="M558 -1v36.002c-11.333 -12.667 -25 -22.834 -41 -30.501s-32.667 -11.5 -50 -11.5c-42 0 -76.833 12.667 -104.5 38s-41.5 62 -41.5 110v141c0 32.667 -11.5 59.167 -34.5 79.5s-52.833 30.5 -89.5 30.5c-18 0 -35.5 -4 -52.5 -12s-31.5 -18.667 -43.5 -32l25 -26v-257
h63v-65h-131v299l-41 45c20 34.667 45.5 62.334 76.5 83.001s65.5 31 103.5 31c28 0 53.667 -4.33301 77 -13s43.5 -20.834 60.5 -36.501s30.333 -34.167 40 -55.5s14.5 -45 14.5 -71v-141c0 -28 7.5 -48.833 22.5 -62.5s33.5 -20.5 55.5 -20.5
c10.667 0 21.5 2.66699 32.5 8s20.833 12.666 29.5 21.999s15.667 20 21 32s8 25 8 39v291h68v-451h-68z" />
    <glyph glyph-name="dodekthai" unicode="&#xe14;" horiz-adv-x="439" 
d="M393 0l-67.999 0.000976562v283c0 14.667 -2.66699 28.5 -8 41.5s-12.833 24.333 -22.5 34s-21 17.167 -34 22.5s-26.833 8 -41.5 8s-28.5 -2.83301 -41.5 -8.5s-24.167 -13.334 -33.5 -23.001s-16.833 -20.834 -22.5 -33.501s-8.5 -26.334 -8.5 -41.001v-168
c0 -14.667 5.66699 -27 17 -37s28 -15 50 -15v-68c-20.667 0 -39.334 3.16699 -56.001 9.5s-31 14.833 -43 25.5s-21.167 23.334 -27.5 38.001s-9.5 30.334 -9.5 47.001l1 168c0 24 4.5 46.5 13.5 67.5s21.5 39.333 37.5 55s34.5 28 55.5 37s43.5 13.5 67.5 13.5
s46.5 -4.5 67.5 -13.5s39.5 -21.333 55.5 -37s28.5 -34 37.5 -55s13.5 -43.5 13.5 -67.5v-283z" />
    <glyph glyph-name="totaothai" unicode="&#xe15;" horiz-adv-x="439" 
d="M393 0l-67.999 -0.00195312v294c0 36 -14 64 -42 84l-63 -53l-64 53c-13.333 -9.33301 -23.833 -21.333 -31.5 -36s-11.5 -30.667 -11.5 -48v-179c0 -14.667 5.66699 -27 17 -37s28 -15 50 -15v-68c-20.667 0 -39.334 3.16699 -56.001 9.5s-31 14.833 -43 25.5
s-21.167 23.334 -27.5 38.001s-9.5 30.334 -9.5 47.001l1 179c0 38 10.833 71.667 32.5 101s49.5 50 83.5 62l59 -48l58 48c34 -12 61.667 -32.667 83 -62s32 -63 32 -101v-294z" />
    <glyph glyph-name="thothungthai" unicode="&#xe16;" horiz-adv-x="426" 
d="M382 0l-67 0.000976562v283c0 32.667 -11.167 59.167 -33.5 79.5s-51.5 30.5 -87.5 30.5c-18 0 -35.333 -4 -52 -12s-30.667 -18.667 -42 -32l25 -26l-1 -259l66 1v-66h-132v301l-41 45c20.667 34.667 46.167 62.334 76.5 83.001s63.833 31 100.5 31
c27.333 0 52.5 -4.33301 75.5 -13s42.833 -20.834 59.5 -36.501s29.667 -34.334 39 -56.001s14 -45.167 14 -70.5v-283z" />
    <glyph glyph-name="thothahanthai" unicode="&#xe17;" horiz-adv-x="420" 
d="M375 0l-67.001 -0.00292969v311c0 28 -8.5 48.833 -25.5 62.5s-36.833 20.5 -59.5 20.5c-13.333 0 -26.666 -3 -39.999 -9s-25.333 -14.167 -36 -24.5s-19.167 -22.166 -25.5 -35.499s-9.5 -27.333 -9.5 -42v-283h-67v450h67v-47c14 16 31.333 29.333 52 40
s40.667 16 60 16c18.667 0 37.167 -3.16699 55.5 -9.5s34.5 -15.666 48.5 -27.999s25.333 -27.666 34 -45.999s13 -39.833 13 -64.5v-311z" />
    <glyph glyph-name="thothongthai" unicode="&#xe18;" horiz-adv-x="382" 
d="M337 155c0 -22 -3.5 -43.001 -10.5 -63.001s-17.167 -37.5 -30.5 -52.5s-29.666 -26.833 -48.999 -35.5s-41.333 -13 -66 -13c-32 0 -61.5 8.5 -88.5 25.5s-45.833 40.5 -56.5 70.5v140l68 1v-130c6 -13.333 16.833 -24 32.5 -32s31.167 -11.667 46.5 -11
c15.333 0 28.5 2.83301 39.5 8.5s20.167 13.334 27.5 23.001s12.666 20.5 15.999 32.5s5 24.333 5 37c0 16.667 -2.33301 29.667 -7 39s-11.334 17 -20.001 23s-19.334 11 -32.001 15s-27 9 -43 15l-39 14.5c-13.333 5 -25.5 11.333 -36.5 19s-20 17 -27 28
s-10.5 25.167 -10.5 42.5c0 36.667 11.667 64.167 35 82.5s54 27.5 92 27.5c24.667 0 47.834 -6.66699 69.501 -20s41.167 -34 58.5 -62l-49 -41c-15.333 23.333 -29 38.833 -41 46.5s-25.333 11.5 -40 11.5c-16.667 0 -30.667 -3.16699 -42 -9.5s-17 -17.833 -17 -34.5
c0 -8 3.33301 -14.833 10 -20.5s14.667 -10.5 24 -14.5s18.5 -7.33301 27.5 -10s16.167 -5 21.5 -7c23.333 -8 43.333 -16 60 -24s30.334 -17.5 41.001 -28.5s18.5 -24 23.5 -39s7.5 -33.167 7.5 -54.5z" />
    <glyph glyph-name="nonuthai" unicode="&#xe19;" horiz-adv-x="421" 
d="M309 -1l0.000976562 48.0029c-14.667 -16 -32.334 -29.333 -53.001 -40s-40.667 -16 -60 -16s-38 3.16699 -56 9.5s-34 15.666 -48 27.999s-25.333 27.666 -34 45.999s-13 39.5 -13 63.5v312h67v-312c0 -26.667 8.5 -47 25.5 -61s36.833 -21 59.5 -21
c13.333 0 26.666 3 39.999 9s25.333 14.167 36 24.5s19.334 22.166 26.001 35.499s10 27.333 10 42v283h67v-451h-67z" />
    <glyph glyph-name="bobaimaithai" unicode="&#xe1a;" horiz-adv-x="409" 
d="M365 150c0 -20.667 -4.33301 -40.334 -13 -59.001s-20.334 -35.167 -35.001 -49.5s-31.667 -25.666 -51 -33.999s-39.666 -12.5 -60.999 -12.5s-41.666 4.16699 -60.999 12.5s-36.333 19.666 -51 33.999s-26.334 30.833 -35.001 49.5s-13 38.334 -13 59.001v300h67v-301
c0 -11.333 2.5 -22.5 7.5 -33.5s11.833 -20.667 20.5 -29s18.667 -15 30 -20s23 -7.5 35 -7.5s23.667 2.5 35 7.5s21.333 11.667 30 20s15.5 18 20.5 29s7.5 22.167 7.5 33.5v301h67v-300z" />
    <glyph glyph-name="poplathai" unicode="&#xe1b;" horiz-adv-x="420" 
d="M376 156c0 -22 -4.33301 -42.833 -13 -62.5s-20.5 -36.834 -35.5 -51.501s-32.667 -26.167 -53 -34.5s-41.833 -12.5 -64.5 -12.5s-44 4.16699 -64 12.5s-37.5 19.833 -52.5 34.5s-26.833 31.834 -35.5 51.501s-13 40.5 -13 62.5v294h67v-294
c0 -13.333 2.5 -25.833 7.5 -37.5s12 -21.834 21 -30.501s19.5 -15.5 31.5 -20.5s24.667 -7.5 38 -7.5c14 0 27 2.5 39 7.5s22.5 11.833 31.5 20.5s16 18.834 21 30.501s7.5 24.167 7.5 37.5v476h67v-476z" />
    <glyph glyph-name="phophungthai" unicode="&#xe1c;" horiz-adv-x="471" 
d="M425 104c0 -15.333 -3.00195 -29.5 -9.00195 -42.5s-14 -24.5 -24 -34.5s-21.833 -17.833 -35.5 -23.5s-28.167 -8.5 -43.5 -8.5c-30.667 0 -56.667 10.667 -78 32c-10 -10 -21.833 -17.833 -35.5 -23.5s-28.167 -8.5 -43.5 -8.5s-29.833 2.83301 -43.5 8.5
s-25.5 13.5 -35.5 23.5s-18 21.5 -24 34.5s-9 27.167 -9 42.5v190c0 22.667 4.5 43.667 13.5 63s21.667 36.333 38 51s36 26.167 59 34.5s48.5 12.5 76.5 12.5v-66c-38 0 -67.5 -9.33301 -88.5 -28s-31.5 -41 -31.5 -67v-190c0 -11.333 4.33301 -21.333 13 -30
s19.334 -13 32.001 -13c13.333 0 24.333 4.33301 33 13s13 18.667 13 30v210h66v-210c0 -11.333 4.33301 -21.333 13 -30s19.334 -13 32.001 -13c13.333 0 24.333 4.33301 33 13s13 18.667 13 30v346h66v-346z" />
    <glyph glyph-name="fofathai" unicode="&#xe1d;" horiz-adv-x="471" 
d="M425 104c0 -15.333 -3.00195 -29.499 -9.00195 -42.499s-14 -24.333 -24 -34s-21.833 -17.334 -35.5 -23.001s-28.167 -8.5 -43.5 -8.5s-29.666 2.83301 -42.999 8.5s-25 13.167 -35 22.5c-10 -9.33301 -21.833 -16.833 -35.5 -22.5s-28.167 -8.5 -43.5 -8.5
s-29.833 2.83301 -43.5 8.5s-25.5 13.334 -35.5 23.001s-18 21 -24 34s-9 27.167 -9 42.5v191c0 22 4.5 42.833 13.5 62.5s21.667 36.667 38 51s36 25.666 59 33.999s48.5 12.5 76.5 12.5v-65c-38.667 0 -68.334 -9.33301 -89.001 -28s-31 -41 -31 -67v-191
c0 -11.333 4.33301 -21.333 13 -30s19.334 -13 32.001 -13c13.333 0 24.333 4.33301 33 13s13 18.667 13 30v211h66v-211c0 -11.333 4.33301 -21.333 13 -30s19.334 -13 32.001 -13c13.333 0 24.333 4.33301 33 13s13 18.667 13 30v528h66v-528z" />
    <glyph glyph-name="phophanthai" unicode="&#xe1e;" horiz-adv-x="487" 
d="M442 108c0 -15.333 -3 -29.832 -9 -43.499s-14.333 -25.667 -25 -36s-23 -18.5 -37 -24.5s-29 -9 -45 -9s-31 3 -45 9s-26.667 14.333 -38 25c-10.667 -10.667 -23 -19 -37 -25s-29 -9 -45 -9s-31 3 -45 9s-26.333 14.167 -37 24.5s-19 22.333 -25 36s-9 28.167 -9 43.5
v342h67v-342c0 -13.333 4.66699 -24.5 14 -33.5s21 -13.5 35 -13.5c13.333 0 24.833 4.66699 34.5 14s14.5 20.666 14.5 33.999v341h67v-342c0 -13.333 4.83301 -24.5 14.5 -33.5s21.167 -13.5 34.5 -13.5c14 0 25.667 4.5 35 13.5s14 20.167 14 33.5v342h67v-342z" />
    <glyph glyph-name="fofanthai" unicode="&#xe1f;" horiz-adv-x="487" 
d="M443 108c0 -15.333 -3.16797 -29.832 -9.50098 -43.499s-14.666 -25.667 -24.999 -36s-22.5 -18.5 -36.5 -24.5s-29 -9 -45 -9c-16.667 0 -32 3 -46 9s-26.333 14.333 -37 25c-10.667 -10.667 -23 -19 -37 -25s-29.333 -9 -46 -9c-16 0 -31 3 -45 9
s-26.333 14.167 -37 24.5s-19 22.333 -25 36s-9 28.167 -9 43.5v342h67v-342c0 -13.333 4.83301 -24.5 14.5 -33.5s21.167 -13.5 34.5 -13.5c14 0 25.667 4.66699 35 14s14 20.666 14 33.999v341h67v-342c0 -13.333 4.83301 -24.5 14.5 -33.5s21.5 -13.5 35.5 -13.5
c13.333 0 24.833 4.5 34.5 13.5s14.5 20.167 14.5 33.5v524h67v-524z" />
    <glyph glyph-name="phosamphaothai" unicode="&#xe20;" horiz-adv-x="435" 
d="M324 0v282c0 34 -11.167 61 -33.5 81s-51.5 30 -87.5 30c-17.333 0 -34.333 -4 -51 -12s-31 -18.667 -43 -32l25 -27v-322h-111v65h44v234l-41 45c19.333 34.667 44.5 62.334 75.5 83.001s64.833 31 101.5 31c27.333 0 52.5 -4.33301 75.5 -13
s42.833 -20.834 59.5 -36.501s29.667 -34.167 39 -55.5s14 -45 14 -71v-282h-67z" />
    <glyph glyph-name="momathai" unicode="&#xe21;" horiz-adv-x="421" 
d="M375 139c0 -24 -4.33203 -45.1699 -12.999 -63.5029s-20 -33.666 -34 -45.999s-30.167 -21.666 -48.5 -27.999s-36.833 -9.5 -55.5 -9.5c-19.333 0 -39.333 5.33301 -60 16s-38 24 -52 40v-49h-67v451h67v-282c0 -14.667 3.16699 -28.667 9.5 -42
s14.833 -25.166 25.5 -35.499s22.667 -18.5 36 -24.5s26.666 -9 39.999 -9c22.667 0 42.5 7 59.5 21s25.5 34.333 25.5 61v311h67v-311z" />
    <glyph glyph-name="yoyakthai" unicode="&#xe22;" horiz-adv-x="415" 
d="M370 156c0 -22.667 -4.33789 -43.832 -13.0049 -63.499s-20.667 -36.834 -36 -51.501s-33.166 -26.167 -53.499 -34.5s-41.833 -12.5 -64.5 -12.5c-21.333 0 -41.666 3.66699 -60.999 11s-36.5 17.833 -51.5 31.5s-27.333 29.834 -37 48.501s-15.5 39.334 -17.5 62.001
v32l56 56c-13.333 13.333 -25 26.333 -35 39s-15.667 29.334 -17 50.001v31c0 14 2.66699 27.167 8 39.5s12.833 23.166 22.5 32.499s20.834 16.666 33.501 21.999s26.334 8 41.001 8c14 0 27.833 -3.16699 41.5 -9.5s29.167 -17.5 46.5 -33.5l-48 -46
c-11.333 10 -19.666 16.333 -24.999 19s-10.666 4 -15.999 4c-10.667 0 -19.5 -3.5 -26.5 -10.5s-10.5 -15.5 -10.5 -25.5v-28c0 -9.33301 4 -18 12 -26l67 -67l-80 -80c0 -9.33301 0.166992 -15.833 0.5 -19.5s0.5 -5.83398 0.5 -6.50098c6 -20 17.667 -36.5 35 -49.5
s37.666 -19.5 60.999 -19.5c14 0 27 2.5 39 7.5s22.5 12 31.5 21s16.167 19.333 21.5 31s8 24.167 8 37.5v294h67v-294z" />
    <glyph glyph-name="roruathai" unicode="&#xe23;" horiz-adv-x="360" 
d="M325 131c0 -20.667 -4.33691 -39.668 -13.0039 -57.001s-20 -32.333 -34 -45s-30.167 -22.5 -48.5 -29.5s-36.833 -10.5 -55.5 -10.5c-34 0 -63.667 10.333 -89 31s-44.666 50.334 -57.999 89.001l58 28c9.33301 -28.667 21.833 -50 37.5 -64s33.167 -21 52.5 -21
c22.667 0 42.334 7.83301 59.001 23.5s25 34.834 25 57.501c0 8.66699 -2.5 16.667 -7.5 24s-11.333 13.666 -19 18.999s-15.667 10.166 -24 14.499l-22.5 11.5c-14 8 -28.667 15.667 -44 23s-29.333 15.833 -42 25.5s-23.167 21.167 -31.5 34.5s-12.5 30 -12.5 50
c0 36.667 11.667 66.834 35 90.501s54 35.5 92 35.5c24.667 0 47.834 -6.5 69.501 -19.5s41.167 -33.5 58.5 -61.5l-49 -40c-15.333 22.667 -29 38 -41 46s-25.333 12 -40 12c-16.667 0 -30.834 -6 -42.501 -18s-17.5 -26.667 -17.5 -44c0 -8 2.33301 -15.167 7 -21.5
s10.334 -12 17.001 -17s13.834 -9.33301 21.501 -13s14.5 -7.16699 20.5 -10.5l80 -42c18 -12 32.167 -26 42.5 -42s15.5 -35.667 15.5 -59z" />
    <glyph glyph-name="ruthai" unicode="&#xe24;" horiz-adv-x="426" 
d="M382 -171l-67 -0.000976562v452c0 34 -11.167 61 -33.5 81s-51.5 30 -87.5 30c-18 0 -35.333 -4 -52 -12s-30.667 -18.667 -42 -32l25 -27l-1 -256h66v-65h-132v298l-41 45c19.333 34.667 44.5 62.334 75.5 83.001s64.833 31 101.5 31c27.333 0 52.5 -4.33301 75.5 -13
s42.833 -20.834 59.5 -36.501s29.667 -34.167 39 -55.5s14 -44.666 14 -69.999v-453z" />
    <glyph glyph-name="lolingthai" unicode="&#xe25;" horiz-adv-x="412" 
d="M300 0l0.00585938 147.998c0 28.667 -9.83301 50.334 -29.5 65.001s-42.834 22 -69.501 22c-25.333 0 -47.5 -7 -66.5 -21s-28.5 -35 -28.5 -63v-39c-0.666992 -13.333 2.5 -26.166 9.5 -38.499s19.5 -25.5 37.5 -39.5l-47 -47c-23.333 18 -40.5 37.5 -51.5 58.5
s-16.5 43.167 -16.5 66.5l1 39c0 22.667 4.66699 43.334 14 62.001s21.666 34.5 36.999 47.5s32.666 23 51.999 30s39 10.5 59 10.5c36 0 69 -9.66699 99 -29v33c0 14 -2.83301 26.333 -8.5 37s-13.167 19.667 -22.5 27s-20.166 12.833 -32.499 16.5s-24.833 5.5 -37.5 5.5
c-23.333 0 -44.333 -6.66699 -63 -20s-30.334 -36 -35.001 -68h-67c2.66699 27.333 9.16699 50.666 19.5 69.999s23.166 35.166 38.499 47.499s32.166 21.333 50.499 27s37.166 8.5 56.499 8.5s39 -3.16699 59 -9.5s38 -15.666 54 -27.999s29.167 -28 39.5 -47
s15.5 -41.167 15.5 -66.5v-305h-67z" />
    <glyph glyph-name="luthai" unicode="&#xe26;" horiz-adv-x="437" 
d="M324 -171v452.001c0 34 -11.167 61 -33.5 81s-51.5 30 -87.5 30c-17.333 0 -34.333 -4.16699 -51 -12.5s-31 -18.833 -43 -31.5l25 -27v-321h-111v65h44v233l-41 45c19.333 34.667 44.5 62.334 75.5 83.001s64.833 31 101.5 31c27.333 0 52.5 -4.33301 75.5 -13
s42.833 -20.834 59.5 -36.501s29.667 -34.334 39 -56.001s14 -45.167 14 -70.5v-452h-67z" />
    <glyph glyph-name="wowaenthai" unicode="&#xe27;" horiz-adv-x="368" 
d="M323 142c0 -20.667 -3.83301 -40 -11.5 -58s-18.167 -33.833 -31.5 -47.5s-29 -24.334 -47 -32.001s-37.333 -11.5 -58 -11.5s-40 3.83301 -58 11.5s-33.667 18.334 -47 32.001s-23.833 29.5 -31.5 47.5s-11.5 37.333 -11.5 58h67c0 -22.667 7.83301 -42 23.5 -58
s34.834 -24 57.501 -24s41.834 7.83301 57.501 23.5s23.5 34.834 23.5 57.501v167c0 22.667 -7.83301 42 -23.5 58s-34.834 24 -57.501 24s-41.834 -8 -57.501 -24s-23.5 -35.333 -23.5 -58h-67c0 20.667 3.83301 40 11.5 58s18.167 33.667 31.5 47s29 24 47 32
s37.333 12 58 12s40 -3.83301 58 -11.5s33.667 -18.334 47 -32.001s23.833 -29.5 31.5 -47.5s11.5 -37 11.5 -57v-167z" />
    <glyph glyph-name="sosalathai" unicode="&#xe28;" horiz-adv-x="421" 
d="M343 395c10 -13.333 17.833 -28.166 23.5 -44.499s8.5 -33.5 8.5 -51.5v-299h-67v299c0 12.667 -2.5 24.834 -7.5 36.501s-12 21.834 -21 30.501s-19.333 15.5 -31 20.5s-24.5 7.5 -38.5 7.5s-26.833 -2.5 -38.5 -7.5s-22 -11.833 -31 -20.5s-16 -18.834 -21 -30.501
s-7.5 -23.834 -7.5 -36.501v-39h98v-63h-98v-197h-67v299c0 22 4.33301 42.833 13 62.5s20.5 36.667 35.5 51s32.5 25.666 52.5 33.999s41.333 12.5 64 12.5c30 0 56.667 -6.66699 80 -20l49 54l51 -45z" />
    <glyph glyph-name="sorusithai" unicode="&#xe29;" horiz-adv-x="420" 
d="M375 231v-76c0 -22 -4.33301 -42.833 -13 -62.5s-20.5 -36.834 -35.5 -51.501s-32.5 -26.167 -52.5 -34.5s-41.333 -12.5 -64 -12.5c-23.333 0 -45 4.16699 -65 12.5s-37.5 19.833 -52.5 34.5s-26.833 31.834 -35.5 51.501s-13 40.5 -13 62.5v296h67v-296
c0 -13.333 2.5 -25.666 7.5 -36.999s12 -21.333 21 -30s19.5 -15.5 31.5 -20.5s25 -7.5 39 -7.5c13.333 0 26 2.5 38 7.5s22.5 11.833 31.5 20.5s16 18.667 21 30s7.5 23.666 7.5 36.999v76h-43c-19.333 0 -35 6.33301 -47 19s-18 27.667 -18 45v44h63v-36
c0 -1.33301 0.833008 -3 2.5 -5s3.5 -3 5.5 -3h37v156h67v-156h36v-64h-36z" />
    <glyph glyph-name="sosuathai" unicode="&#xe2a;" horiz-adv-x="412" 
d="M339 393c8.66699 -11.333 15.5029 -24.168 20.5029 -38.501s7.5 -30.166 7.5 -47.499v-307h-67v149c0 28.667 -10 50.334 -30 65.001s-43 22 -69 22c-12.667 0 -24.667 -1.83301 -36 -5.5s-21.5 -9.16699 -30.5 -16.5s-16.167 -16.166 -21.5 -26.499s-8 -22.5 -8 -36.5
v-38c0 -13.333 3.5 -26.166 10.5 -38.499s19.5 -25.5 37.5 -39.5l-47 -47c-23.333 18 -40.5 37.5 -51.5 58.5s-16.5 43.167 -16.5 66.5v38c0 23.333 4.66699 44.333 14 63s21.833 34.5 37.5 47.5s33.167 23 52.5 30s39 10.5 59 10.5c36 0 69 -9.66699 99 -29v34
c0 14 -2.83301 26.167 -8.5 36.5s-13.167 19.166 -22.5 26.499s-20.166 12.833 -32.499 16.5s-24.833 5.5 -37.5 5.5c-23.333 0 -44.333 -6.5 -63 -19.5s-30.334 -35.5 -35.001 -67.5h-67c2.66699 27.333 9.16699 50.666 19.5 69.999s23.166 35.166 38.499 47.499
s32.166 21.333 50.499 27s37.166 8.5 56.499 8.5c30.667 0 59.667 -7 87 -21l50 54l51 -45z" />
    <glyph glyph-name="hohipthai" unicode="&#xe2b;" horiz-adv-x="424" 
d="M379 0h-68.002v249c0 16 -5.66699 29.833 -17 41.5s-25.666 17.5 -42.999 17.5c-13.333 0 -24.666 -3.33301 -33.999 -10l-106 -74v-224h-67v451h67v-149l225 158l40 -50l-73 -51c22.667 -10 41 -24.833 55 -44.5s21 -42.167 21 -67.5v-247z" />
    <glyph glyph-name="lochulathai" unicode="&#xe2c;" horiz-adv-x="487" 
d="M442 470c0 -12 -1.33203 -23 -3.99902 -33s-7.66699 -18.667 -15 -26c7.33301 -9.33301 12.333 -19.5 15 -30.5s4 -22.5 4 -34.5v-238c0 -15.333 -3 -29.833 -9 -43.5s-14.333 -25.5 -25 -35.5s-23 -18 -37 -24s-29 -9 -45 -9c-32.667 0 -60.334 11 -83.001 33
c-22 -22 -49.333 -33 -82 -33c-16 0 -31 3 -45 9s-26.333 14 -37 24s-19 21.833 -25 35.5s-9 28.167 -9 43.5v342h67v-342c0 -13.333 4.66699 -24.5 14 -33.5s21 -13.5 35 -13.5c13.333 0 24.833 4.66699 34.5 14s14.5 20.666 14.5 33.999v227h67v-228
c0 -13.333 4.83301 -24.5 14.5 -33.5s21.167 -13.5 34.5 -13.5c14 0 25.667 4.5 35 13.5s14 20.167 14 33.5v236c0 16.667 -3.33301 28.334 -10 35.001s-15.667 10 -27 10h-54v61h57c16.667 0 26.667 1.16699 30 3.5s5 7.83301 5 16.5l1 27h66z" />
    <glyph glyph-name="oangthai" unicode="&#xe2d;" horiz-adv-x="439" 
d="M45 298c0.666992 10 2.16992 19.667 4.50293 29s5.16602 18.666 8.49902 27.999c14 32 35.333 57.667 64 77s61 29 97 29c24 0 46.5 -4.5 67.5 -13.5s39.5 -21.333 55.5 -37s28.5 -34 37.5 -55s13.5 -43.5 13.5 -67.5v-124c0 -24 -4.5 -46.5 -13.5 -67.5
s-21.5 -39.333 -37.5 -55s-34.5 -28 -55.5 -37s-43.5 -13.5 -67.5 -13.5s-46.5 4.5 -67.5 13.5s-39.5 21.333 -55.5 37s-28.667 34 -38 55s-14 43.5 -14 67.5v95h176v-64h-107v-31c0 -14.667 2.83301 -28.334 8.5 -41.001s13.167 -23.834 22.5 -33.501
s20.5 -17.334 33.5 -23.001s26.833 -8.5 41.5 -8.5s28.5 2.83301 41.5 8.5s24.167 13.334 33.5 23.001s16.833 20.834 22.5 33.501s8.5 26.334 8.5 41.001v124c0 14.667 -2.66699 28.5 -8 41.5s-12.833 24.333 -22.5 34s-21 17.167 -34 22.5s-26.833 8 -41.5 8
c-22.667 0 -42.334 -6.16699 -59.001 -18.5s-29.667 -27.833 -39 -46.5c-4.66699 -11.333 -7.33398 -21.666 -8.00098 -30.999h-68z" />
    <glyph glyph-name="honokhukthai" unicode="&#xe2e;" horiz-adv-x="438" 
d="M45 298c0.666992 10 2.16992 19.667 4.50293 29s5.16602 18.666 8.49902 27.999c14 32 35.333 57.667 64 77s61 29 97 29c32.667 0 61.667 -7.66699 87 -23l54 61l52 -46l-54 -60c23.333 -29.333 35 -64.333 35 -105v-124c0 -24 -4.5 -46.5 -13.5 -67.5
s-21.5 -39.333 -37.5 -55s-34.5 -28 -55.5 -37s-43.5 -13.5 -67.5 -13.5s-46.667 4.5 -68 13.5s-39.833 21.333 -55.5 37s-28.167 34 -37.5 55s-14 43.5 -14 67.5v95h176v-65h-107v-30c0 -14.667 2.83301 -28.334 8.5 -41.001s13.167 -23.834 22.5 -33.501
s20.5 -17.334 33.5 -23.001s26.833 -8.5 41.5 -8.5s28.5 2.83301 41.5 8.5s24.167 13.334 33.5 23.001s16.833 20.834 22.5 33.501s8.5 26.334 8.5 41.001v124c0 14.667 -2.66699 28.5 -8 41.5s-12.833 24.333 -22.5 34s-21 17.167 -34 22.5s-26.833 8 -41.5 8
c-22.667 0 -42.334 -6.16699 -59.001 -18.5s-29.667 -27.833 -39 -46.5c-4.66699 -11.333 -7.33398 -21.666 -8.00098 -30.999h-68z" />
    <glyph glyph-name="paiyannoithai" unicode="&#xe2f;" horiz-adv-x="392" 
d="M281 0l0.00195312 308c-24.667 -16.667 -52.667 -25 -84 -25c-20.667 0 -40.167 4 -58.5 12s-34.333 19.167 -48 33.5s-24.5 31.833 -32.5 52.5s-12 43.667 -12 69h67c0 -34 8.16699 -59.5 24.5 -76.5s36.166 -25.5 59.499 -25.5s43.166 8.5 59.499 25.5
s24.5 42.5 24.5 76.5h67v-450h-67z" />
    <glyph glyph-name="saraathai" unicode="&#xe30;" horiz-adv-x="214" 
d="M102 287c-20 0 -37 7.16895 -51 21.502s-21 31.166 -21 50.499v36h63v-36c0 -2.66699 1 -4.83398 3 -6.50098s3.66699 -2.5 5 -2.5h82v-62zM102 43.002c-20 0 -37 7.16895 -51 21.502s-21 31.166 -21 50.499v36h63v-36c0 -2.66699 1 -4.83398 3 -6.50098
s3.66699 -2.5 5 -2.5h82v-63h-81z" />
    <glyph glyph-name="maihanakatthai" unicode="&#xe31;" 
d="M-222 524c-19.333 0 -36 7.16797 -50 21.501s-21 31.166 -21 50.499v41h63v-41c0 -5.33301 2.66699 -8 8 -8h222v-63z" />
    <glyph glyph-name="saraaathai" unicode="&#xe32;" horiz-adv-x="321" 
d="M277 0l-66.999 0.00195312v304c0 60.667 -28 91 -84 91c-14 0 -26.833 -2.5 -38.5 -7.5s-24.5 -14.5 -38.5 -28.5l-46 45c20.667 19.333 40.667 33.166 60 41.499s40.666 12.5 63.999 12.5c26 0 48.333 -4 67 -12s34.167 -18.833 46.5 -32.5s21.5 -29.334 27.5 -47.001
s9 -36.167 9 -55.5v-311z" />
    <glyph glyph-name="saraamthai" unicode="&#xe33;" horiz-adv-x="321" 
d="M-12 575c0 -19.333 -7 -36 -21 -50s-31 -21 -51 -21s-37 7 -51 21s-21 30.667 -21 50c0 20 7 37 21 51s31 21 51 21s37 -7 51 -21s21 -31 21 -51zM277 0l-66.999 0.00195312v304c0 60.667 -28 91 -84 91c-14 0 -26.833 -2.5 -38.5 -7.5s-24.5 -14.5 -38.5 -28.5l-46 45
c20.667 19.333 40.667 33.166 60 41.499s40.666 12.5 63.999 12.5c26 0 48.333 -4 67 -12s34.167 -18.833 46.5 -32.5s21.5 -29.334 27.5 -47.001s9 -36.167 9 -55.5v-311zM-60.999 575.002c0 6.66699 -2.16699 12.167 -6.5 16.5s-9.83301 6.5 -16.5 6.5
s-12.334 -2.16699 -17.001 -6.5s-7 -9.83301 -7 -16.5s2.33301 -12.334 7 -17.001s10.334 -7 17.001 -7s12.167 2.33301 16.5 7s6.5 10.334 6.5 17.001z" />
    <glyph glyph-name="saraithai" unicode="&#xe34;" 
d="M-371 525v62h327v-62h-327z" />
    <glyph glyph-name="saraiithai" unicode="&#xe35;" 
d="M-371 524v63h263v61h64v-124h-327z" />
    <glyph glyph-name="sarauethai" unicode="&#xe36;" 
d="M-32 595c0 -19.333 -6.83301 -35.834 -20.5 -49.501s-30.167 -20.5 -49.5 -20.5l-269 -1v63h199v7c0 19.333 6.83301 35.833 20.5 49.5s30.167 20.5 49.5 20.5s35.833 -6.66699 49.5 -20s20.5 -29.666 20.5 -48.999zM-79 593.999c0 6.66699 -2.16699 12.167 -6.5 16.5
s-9.83301 6.5 -16.5 6.5s-12.167 -2.16699 -16.5 -6.5s-6.5 -9.83301 -6.5 -16.5s2.16699 -12.334 6.5 -17.001s9.83301 -7 16.5 -7s12.167 2.33301 16.5 7s6.5 10.334 6.5 17.001z" />
    <glyph glyph-name="saraueethai" unicode="&#xe37;" 
d="M-371 524v63h160v61h62v-61h43v61h62v-123z" />
    <glyph glyph-name="sarauthai" unicode="&#xe38;" 
d="M-107 -193v80h-41v64h69c9.33301 0 17.5 -3.5 24.5 -10.5s10.5 -15.167 10.5 -24.5v-109h-63z" />
    <glyph glyph-name="sarauuthai" unicode="&#xe39;" 
d="M-44 -119c0 -24 -8.49902 -44.5 -25.499 -61.5s-37.5 -25.5 -61.5 -25.5s-44.333 8.5 -61 25.5s-25 37.5 -25 61.5v6h-41v64h103v-70c0 -6.66699 2.16699 -12.334 6.5 -17.001s10.166 -7 17.499 -7c6.66699 0 12.167 2.33301 16.5 7s6.5 10.334 6.5 17.001v70h64v-70z
" />
    <glyph glyph-name="phinthuthai" unicode="&#xe3a;" 
d="M-34 -86c0 -12 -4.33301 -22.333 -13 -31s-19 -13 -31 -13s-22.333 4.33301 -31 13s-13 19 -13 31s4.33301 22.333 13 31s19 13 31 13s22.333 -4.33301 31 -13s13 -19 13 -31z" />
    <glyph glyph-name="PUCR2005" unicode="&#xe3e;" 
 />
    <glyph glyph-name="bahtthai" unicode="&#xe3f;" horiz-adv-x="390" 
d="M372 155c0 -24 -4 -45.335 -12 -64.002s-19.333 -34.667 -34 -48s-31.834 -23.666 -51.501 -30.999s-40.834 -11.333 -63.501 -12v-81h-60v81h-113v528h113v76h60v-78c38.667 -5.33301 67.834 -21.166 87.501 -47.499s29.5 -58.5 29.5 -96.5c0 -20 -3 -37.833 -9 -53.5
s-16.333 -30.167 -31 -43.5c26.667 -12.667 47.334 -30 62.001 -52s22 -48 22 -78zM266 385.998c0 40.667 -18.333 66.335 -55 77.002v-157c19.333 5.33301 33.333 15.166 42 29.499s13 31.166 13 50.499zM151 467.999h-52v-166h52v166zM310 153.999
c0 16 -2.66699 29.332 -8 39.999s-12.5 19.334 -21.5 26.001s-19.5 11.5 -31.5 14.5s-24.667 5.16699 -38 6.5v-182c28 2 51.5 10.833 70.5 26.5s28.5 38.5 28.5 68.5zM151 241.998h-52v-183h52v183z" />
    <glyph glyph-name="saraethai" unicode="&#xe40;" horiz-adv-x="167" 
d="M50 0v450h67v-450h-67z" />
    <glyph glyph-name="saraaethai" unicode="&#xe41;" horiz-adv-x="314" 
d="M197 0v450h67v-450h-67zM50 0v450h67v-450h-67z" />
    <glyph glyph-name="saraothai" unicode="&#xe42;" horiz-adv-x="184" 
d="M64 587c-3.33301 0 -6.66699 -0.498047 -10 -1.49805s-5 -3.16699 -5 -6.5c0 -4 3.66699 -8 11 -12c18.667 -11.333 34 -23.833 46 -37.5s18 -32.834 18 -57.501v-472h-67v473c0 11.333 -4.16699 20.333 -12.5 27s-16.5 12.667 -24.5 18c-9.33301 6 -18 14.167 -26 24.5
s-12 23.166 -12 38.499c0 14.667 2.83301 26.5 8.5 35.5s13 16 22 21s18.5 8.33301 28.5 10s19.667 2.5 29 2.5h131v-63h-137z" />
    <glyph glyph-name="saraaimaimuanthai" unicode="&#xe43;" horiz-adv-x="184" 
d="M191 542c0 -16 -3.16602 -30.999 -9.49902 -44.999s-14.5 -26 -24.5 -36l-32 -32v-429h-67v456c4 4 9.66699 9.16699 17 15.5s14.666 13.5 21.999 21.5s13.666 16.167 18.999 24.5s8 16.5 8 24.5c0 12.667 -4.5 23.667 -13.5 33s-20.167 14 -33.5 14
s-24.666 -5.33301 -33.999 -16s-14 -27.334 -14 -50.001h-67c0 20 3 38.167 9 54.5s14.167 30.333 24.5 42s22.333 20.5 36 26.5s28.5 9 44.5 9s31 -3 45 -9s26.167 -14 36.5 -24s18.5 -21.833 24.5 -35.5s9 -28.5 9 -44.5z" />
    <glyph glyph-name="saraaimaimalaithai" unicode="&#xe44;" horiz-adv-x="184" 
d="M203 581c0 -15.333 -4.00293 -28.168 -12.0029 -38.501s-16.667 -18.5 -26 -24.5c-8 -5.33301 -16.167 -11.333 -24.5 -18s-12.5 -15.667 -12.5 -27v-473h-67v472c0 24.667 5.83301 43.834 17.5 57.501s27.167 26.167 46.5 37.5c7.33301 4 11 8 11 12
c0 3.33301 -1.66699 5.5 -5 6.5s-6.66602 1.5 -9.99902 1.5h-138v63h131c9.33301 0 19.333 -0.833008 30 -2.5s20.334 -5 29.001 -10s15.834 -12 21.501 -21s8.5 -20.833 8.5 -35.5z" />
    <glyph glyph-name="lakkhangyaothai" unicode="&#xe45;" horiz-adv-x="321" 
d="M277 -172l-66.999 0.00195312v476c0 60.667 -28 91 -84 91c-14 0 -26.833 -2.5 -38.5 -7.5s-24.5 -14.5 -38.5 -28.5l-46 45c20.667 19.333 40.667 33.166 60 41.499s40.666 12.5 63.999 12.5c26 0 48.333 -4 67 -12s34.167 -18.833 46.5 -32.5
s21.5 -29.334 27.5 -47.001s9 -36.167 9 -55.5v-483z" />
    <glyph glyph-name="maiyamokthai" unicode="&#xe46;" horiz-adv-x="424" 
d="M314 -171v469.998c0 16.667 -3.83301 32 -11.5 46s-18.167 26 -31.5 36l-60 -61l-60 60c-13.333 -9.33301 -23.833 -21.166 -31.5 -35.499s-11.5 -29.833 -11.5 -46.5c0 -13.333 3.16699 -26.666 9.5 -39.999s17.833 -28.333 34.5 -45l-47 -46
c-22 22.667 -37.833 44.5 -47.5 65.5s-14.5 42.833 -14.5 65.5c0 36 10.5 68.167 31.5 96.5s50.5 49.833 88.5 64.5l48 -48l48 48c38 -14.667 67.667 -36 89 -64s32 -60 32 -96v-470h-66z" />
    <glyph glyph-name="maitaikhuthai" unicode="&#xe47;" 
d="M-273 657c-10.667 0 -19 -3.83301 -25 -11.5s-9 -16.834 -9 -27.501c0 -10 2.83301 -18.833 8.5 -26.5s13.834 -11.5 24.501 -11.5c8.66699 0 16.167 3.5 22.5 10.5s9.5 19.167 9.5 36.5h60c0 -17.333 3.16699 -29.5 9.5 -36.5s14.166 -10.5 23.499 -10.5
c8.66699 0 16.167 3.5 22.5 10.5s9.5 19.167 9.5 36.5h61c0 -34 -9.16699 -60.333 -27.5 -79s-40.166 -28 -65.499 -28c-12 0 -23.333 2.33301 -34 7s-20 10.667 -28 18c-8.66699 -7.33301 -18.334 -13.333 -29.001 -18s-22 -7 -34 -7c-28 0 -50.5 9.16699 -67.5 27.5
s-25.5 41.833 -25.5 70.5s8.5 52.334 25.5 71.001s39.5 28 67.5 28h250v-60h-249z" />
    <glyph glyph-name="maiekthai" unicode="&#xe48;" 
d="M-106 688v123h62v-123h-62z" />
    <glyph glyph-name="maithothai" unicode="&#xe49;" 
d="M-218 687l12 17.501l15.5 23l13 20.5c3.66699 6 5.5 9.66699 5.5 11c0 12 -4.66699 18 -14 18c-5.33301 0 -10 -2 -14 -6l-40 40c14.667 14 32.334 21 53.001 21c21.333 0 39.166 -6.83301 53.499 -20.5s21.5 -30.5 21.5 -50.5c0 -6.66699 -1.33301 -11.334 -4 -14.001
c1.33301 0 3 0.166992 5 0.5s3.66699 0.5 5 0.5h5h106v-61h-223z" />
    <glyph glyph-name="maitrithai" unicode="&#xe4a;" 
d="M-124 688l26.999 49.998c1.33301 1.33301 2 2.83301 2 4.5v3.5c0 3.33301 -1.33301 6.5 -4 9.5s-5.66699 4.5 -9 4.5c-2.66699 0 -6 -1.16699 -10 -3.5s-6 -8.83301 -6 -19.5h-52c0 9.33301 -1.33301 15.5 -4 18.5s-6.33398 4.5 -11.001 4.5
c-4 0 -7.16699 -1.66699 -9.5 -5s-3.5 -6.66602 -3.5 -9.99902c0 -1.33301 0.5 -4.33301 1.5 -9s6.5 -9.66699 16.5 -15l-40 -39c-13.333 11.333 -22.666 22 -27.999 32s-8 20.333 -8 31c0 19.333 7 36 21 50s30.667 21 50 21c7.33301 0 15 -1.5 23 -4.5
s14 -6.83301 18 -11.5c4 4.66699 9.83301 8.5 17.5 11.5s15.5 4.5 23.5 4.5c19.333 0 35.833 -6.66699 49.5 -20s20.834 -29.666 21.501 -48.999h66v-59h-152z" />
    <glyph glyph-name="maichattawathai" unicode="&#xe4b;" 
d="M-44 732v-44h-63v43h-42v54h42v44h63v-43h42v-54h-42z" />
    <glyph glyph-name="thanthakhatthai" unicode="&#xe4c;" 
d="M-90 711c-1.33301 0 -3.16602 -0.833984 -5.49902 -2.50098s-3.5 -4.16699 -3.5 -7.5c0 -2 0.833008 -4.5 2.5 -7.5s6.16699 -7.5 13.5 -13.5l-42 -41c-13.333 12.667 -22.333 23.834 -27 33.501s-7 19.167 -7 28.5c0 19.333 6.66699 35.833 20 49.5
s29.666 20.5 48.999 20.5h70v-60h-70z" />
    <glyph glyph-name="nikhahitthai" unicode="&#xe4d;" 
d="M-7 575c0 -19.333 -7 -36 -21 -50s-31 -21 -51 -21s-37 7 -51 21s-21 30.667 -21 50c0 20 7 37 21 51s31 21 51 21s37 -7 51 -21s21 -31 21 -51zM-56 575c0 6.66699 -2.16699 12.167 -6.5 16.5s-9.83301 6.5 -16.5 6.5s-12.334 -2.16699 -17.001 -6.5
s-7 -9.83301 -7 -16.5s2.33301 -12.334 7 -17.001s10.334 -7 17.001 -7s12.167 2.33301 16.5 7s6.5 10.334 6.5 17.001z" />
    <glyph glyph-name="yamakkanthai" unicode="&#xe4e;" 
d="M-71 700c-6 6 -11.165 10.1631 -15.498 12.4961s-8.83301 3.5 -13.5 3.5c-9.33301 0 -17.333 -3.16699 -24 -9.5s-10 -14.166 -10 -23.499s3.66699 -17.166 11 -23.499s18.666 -9.5 33.999 -9.5v-47c-15.333 0 -26.666 -3.16699 -33.999 -9.5s-11 -14.166 -11 -23.499
s3.66699 -17.166 11 -23.499s18.666 -9.5 33.999 -9.5v-47c-28 0 -50.5 7.83301 -67.5 23.5s-25.5 34.5 -25.5 56.5s8 40.667 24 56c-16 16 -24 35 -24 57s7.83301 40.833 23.5 56.5s35.167 23.5 58.5 23.5c21.333 0 42.666 -10 63.999 -30z" />
    <glyph glyph-name="fongmanthai" unicode="&#xe4f;" horiz-adv-x="490" 
d="M465 212c0 -30 -5.83301 -58.333 -17.5 -85s-27.5 -50 -47.5 -70s-43.333 -35.833 -70 -47.5s-55 -17.5 -85 -17.5s-58.333 5.83301 -85 17.5s-50 27.5 -70 47.5s-35.833 43.333 -47.5 70s-17.5 55 -17.5 85s5.83301 58.333 17.5 85s27.5 50 47.5 70
s43.333 35.833 70 47.5s55 17.5 85 17.5s58.333 -5.83301 85 -17.5s50 -27.5 70 -47.5s35.833 -43.333 47.5 -70s17.5 -55 17.5 -85zM407 212c0 22 -4.33203 42.833 -12.999 62.5s-20.334 36.834 -35.001 51.501s-31.834 26.334 -51.501 35.001s-40.5 13 -62.5 13
s-42.833 -4.33301 -62.5 -13s-36.834 -20.334 -51.501 -35.001s-26.334 -31.834 -35.001 -51.501s-13 -40.5 -13 -62.5s4.33301 -42.833 13 -62.5s20.334 -36.834 35.001 -51.501s31.834 -26.334 51.501 -35.001s40.5 -13 62.5 -13s42.833 4.33301 62.5 13
s36.834 20.334 51.501 35.001s26.167 31.834 34.5 51.501s12.5 40.5 12.5 62.5h1zM363.001 212c0 -16 -3.16699 -31.167 -9.5 -45.5s-14.833 -26.833 -25.5 -37.5s-23.167 -19.167 -37.5 -25.5s-29.5 -9.5 -45.5 -9.5s-31.167 3.16699 -45.5 9.5s-26.833 14.833 -37.5 25.5
s-19.167 23.167 -25.5 37.5s-9.5 29.5 -9.5 45.5s3.16699 31.167 9.5 45.5s14.833 26.833 25.5 37.5s23.167 19.167 37.5 25.5s29.5 9.5 45.5 9.5s31.167 -3.16699 45.5 -9.5s26.833 -14.833 37.5 -25.5s19.167 -23.167 25.5 -37.5s9.5 -29.5 9.5 -45.5zM308.001 212
c0 17.333 -6.16699 32.166 -18.5 44.499s-27.166 18.5 -44.499 18.5s-32.166 -6.16699 -44.499 -18.5s-18.5 -27.166 -18.5 -44.499s6.16699 -32.166 18.5 -44.499s27.166 -18.5 44.499 -18.5s32.166 6.16699 44.499 18.5s18.5 27.166 18.5 44.499z" />
    <glyph glyph-name="zerothai" unicode="&#xe50;" horiz-adv-x="420" 
d="M379 163c0 -24 -4.5 -46.502 -13.5 -67.502s-21.167 -39.333 -36.5 -55s-33.333 -28 -54 -37s-42.334 -13.5 -65.001 -13.5c-23.333 0 -45.166 4.5 -65.499 13.5s-38.166 21.333 -53.499 37s-27.5 34 -36.5 55s-13.5 43.5 -13.5 67.5v56
c0.666992 23.333 5.5 45.333 14.5 66s21.167 38.667 36.5 54s33 27.333 53 36s41.667 13 65 13c22.667 0 44.167 -4.33301 64.5 -13s38.166 -20.667 53.499 -36s27.5 -33.166 36.5 -53.499s13.833 -42.166 14.5 -65.499v-57zM318 217.998
c0 14.667 -2.83496 28.667 -8.50195 42s-13.5 24.833 -23.5 34.5s-21.5 17.334 -34.5 23.001s-26.833 8.5 -41.5 8.5s-28.5 -2.83301 -41.5 -8.5s-24.5 -13.334 -34.5 -23.001s-17.833 -21.167 -23.5 -34.5s-8.5 -27.333 -8.5 -42v-55
c0 -15.333 2.83301 -29.666 8.5 -42.999s13.334 -25 23.001 -35s21 -17.833 34 -23.5s27.167 -8.5 42.5 -8.5c14.667 0 28.667 2.83301 42 8.5s24.833 13.5 34.5 23.5s17.334 21.667 23.001 35s8.5 27.666 8.5 42.999v55z" />
    <glyph glyph-name="onethai" unicode="&#xe51;" horiz-adv-x="418" 
d="M376 162c0 -24 -4.66309 -46.5 -13.9961 -67.5s-22 -39.5 -38 -55.5s-34.667 -28.5 -56 -37.5s-44.333 -13.5 -69 -13.5c-25.333 0 -49.333 5.16699 -72 15.5s-45.667 27.166 -69 50.499l47 47c18 -17.333 34.333 -29.5 49 -36.5s29.667 -10.5 45 -10.5
s29.666 2.83301 42.999 8.5s25 13.5 35 23.5s17.833 21.5 23.5 34.5s8.5 26.833 8.5 41.5v55c0 14.667 -3 28.334 -9 41.001s-14 23.667 -24 33s-21.667 16.833 -35 22.5s-27.333 8.5 -42 8.5c-23.333 0 -43.833 -5.66699 -61.5 -17s-30.5 -25.333 -38.5 -42
c-4 -8 -5.5 -15.667 -4.5 -23s3.83301 -11 8.5 -11h67v-66h-69c-20 0 -35.333 5 -46 15s-18 21.833 -22 35.5s-5.16699 28 -3.5 43s5.16699 27.5 10.5 37.5c13.333 28 34.166 50.667 62.499 68s60.5 26 96.5 26c24 0 46.667 -4.5 68 -13.5s40.166 -21.167 56.499 -36.5
s29.166 -33.333 38.499 -54s14 -42.667 14 -66v-56z" />
    <glyph glyph-name="twothai" unicode="&#xe52;" horiz-adv-x="470" 
d="M429 181c0 -29.333 -4.83203 -55.502 -14.499 -78.502s-23 -42.667 -40 -59s-37.333 -28.833 -61 -37.5s-49.834 -13 -78.501 -13c-29.333 0 -55.833 4.83301 -79.5 14.5s-44 22.834 -61 39.501s-30.167 36.334 -39.5 59.001s-14 47 -14 73v285h67v-285
c0 -34.667 11.167 -63.334 33.5 -86.001s53.5 -34 93.5 -34c38 0 68.667 10.667 92 32s35 51.333 35 90v57c0 6.66699 -0.166992 15 -0.5 25s-1.33301 19.833 -3 29.5s-4.5 17.834 -8.5 24.501s-9.33301 10 -16 10c-7.33301 0 -12.833 -2.16699 -16.5 -6.5
s-5.5 -9.83301 -5.5 -16.5v-36h-67v36c0 6 -2.16699 11.333 -6.5 16s-11.166 7 -20.499 7c-8 0 -14.5 -2.83301 -19.5 -8.5s-7.5 -12.5 -7.5 -20.5c0 -3.33301 1.33301 -8.16602 4 -14.499s13 -14.5 31 -24.5l-47 -46c-21.333 14 -35.333 28 -42 42s-10 28.333 -10 43
c0 11.333 2 22.666 6 33.999s9.83301 21.5 17.5 30.5s17.167 16.333 28.5 22s24.333 8.5 39 8.5c23.333 0 43.666 -7.33301 60.999 -22c16.667 14.667 36.667 22 60 22c20.667 0 37 -5.5 49 -16.5s21 -24.5 27 -40.5s9.83301 -32.833 11.5 -50.5s2.5 -33.167 2.5 -46.5v-58z
" />
    <glyph glyph-name="threethai" unicode="&#xe53;" horiz-adv-x="490" 
d="M449 168c0 -38 -9.33398 -72.6709 -28.001 -104.004s-48 -56.666 -88 -75.999l-31 59c28.667 14 49.167 31.5 61.5 52.5s18.5 43.833 18.5 68.5v54c0 19.333 -4.66699 37 -14 53s-21.666 29 -36.999 39l-82 -81l-85 85c-18.667 -11.333 -32.834 -26.333 -42.501 -45
s-14.5 -38.667 -14.5 -60v-54c0 -25.333 6.16699 -47.666 18.5 -66.999s29.166 -31.666 50.499 -36.999c9.33301 -2 17.333 -2.33301 24 -1s15.667 6 27 14l27 -60c-13.333 -8 -25.666 -13.5 -36.999 -16.5s-24.666 -3.5 -39.999 -1.5
c-22.667 2.66699 -42.5 9.33398 -59.5 20.001s-31.167 23.834 -42.5 39.501s-19.833 33.167 -25.5 52.5s-8.5 38.666 -8.5 57.999v54c0 18 2.66699 36 8 54s13.5 35 24.5 51s25.167 30.667 42.5 44s38 24 62 32l71 -71l69 69c40.667 -15.333 72.5 -37.833 95.5 -67.5
s34.5 -63.5 34.5 -101.5z" />
    <glyph glyph-name="fourthai" unicode="&#xe54;" horiz-adv-x="449" 
d="M402 350c-5.33301 -6.66699 -12.002 -12.166 -20.002 -16.499s-17.333 -6.5 -28 -6.5h-135c-15.333 0 -29.5 -2.66699 -42.5 -8s-24.5 -12.833 -34.5 -22.5s-18 -20.834 -24 -33.501s-9.33301 -26 -10 -40v-56c0 -14.667 3 -28.5 9 -41.5s14 -24.5 24 -34.5
s21.667 -17.833 35 -23.5s27.666 -8.5 42.999 -8.5c18.667 0 38 4.66699 58 14c-4.66699 4 -10.167 9.16699 -16.5 15.5s-12.5 12.833 -18.5 19.5l-11 11c-4 4 -8 8.33301 -12 13c-11.333 11.333 -17.166 25 -17.499 41s6.83398 31.333 21.501 46l29 30l48 -48l-22 -21
c-2 -2 -3.16699 -4.5 -3.5 -7.5s0.166992 -5.16699 1.5 -6.5l140 -136l-48 -46l-42 41c-15.333 -10 -32.166 -17.833 -50.499 -23.5s-37.166 -8.5 -56.499 -8.5c-24.667 0 -47.834 4.5 -69.501 13.5s-40.5 21.5 -56.5 37.5s-28.667 34.5 -38 55.5s-14 43.5 -14 67.5v55
c0 24 4.66699 46.333 14 67s22.166 38.667 38.499 54s35.333 27.5 57 36.5s44.5 13.5 68.5 13.5h127c2.66699 0 5.33398 1.33301 8.00098 4l48 63l55 -37z" />
    <glyph glyph-name="fivethai" unicode="&#xe55;" horiz-adv-x="449" 
d="M402 351c-12 -16 -28.0039 -23.999 -48.0039 -23.999h-135c-15.333 0 -29.666 -2.66699 -42.999 -8s-25 -12.833 -35 -22.5s-18 -20.834 -24 -33.501s-9 -26.334 -9 -41.001v-54c0 -15.333 3 -29.5 9 -42.5s14 -24.5 24 -34.5s21.667 -17.833 35 -23.5
s27.666 -8.5 42.999 -8.5c18.667 0 38 4.66699 58 14c-4.66699 4 -10.167 9.16699 -16.5 15.5s-12.5 12.833 -18.5 19.5l-11 11c-4 4 -8 8.33301 -12 13c-11.333 11.333 -17.166 25 -17.499 41s6.83398 31.333 21.501 46l29 30l48 -48l-22 -21
c-2 -2 -3.16699 -4.5 -3.5 -7.5s0.166992 -5.16699 1.5 -6.5l140 -136l-48 -46l-42 41c-15.333 -10 -32.166 -17.833 -50.499 -23.5s-37.166 -8.5 -56.499 -8.5c-24.667 0 -47.834 4.5 -69.501 13.5s-40.5 21.5 -56.5 37.5s-28.667 34.5 -38 55.5s-14 43.5 -14 67.5v56
c0 38 11.333 71.167 34 99.5s51 48.833 85 61.5c-0.666992 2.66699 -1 5.33398 -1 8.00098v8c0 23.333 8.33301 42.666 25 57.999s36.334 23 59.001 23s42.5 -7.5 59.5 -22.5s25.5 -34.5 25.5 -58.5c0 -3.33301 -0.333008 -5.66602 -1 -6.99902h24l51 68l55 -38z
M275.996 400.001c0 9.33301 -3.16699 17.166 -9.5 23.499s-14.166 9.5 -23.499 9.5s-17.166 -3.16699 -23.499 -9.5s-9.5 -14.166 -9.5 -23.499s3.16699 -17 9.5 -23s14.166 -9 23.499 -9s17.166 3 23.499 9s9.5 13.667 9.5 23z" />
    <glyph glyph-name="sixthai" unicode="&#xe56;" horiz-adv-x="421" 
d="M379 170c0 -24 -4.66504 -46.666 -13.998 -67.999s-22 -40 -38 -56s-34.667 -28.667 -56 -38s-44.333 -14 -69 -14c-32 0 -60.167 7 -84.5 21s-43.833 31 -58.5 51c-8.66699 13.333 -13.834 26.833 -15.501 40.5s-2.5 28.167 -2.5 43.5c0 20 6.16699 37.167 18.5 51.5
s25.166 27.833 38.499 40.5l45 -45l-21 -20.5c-8.66699 -8.33301 -13 -16.166 -13 -23.499c0 -6.66699 -0.166992 -15.167 -0.5 -25.5s1.16699 -17.833 4.5 -22.5c8.66699 -13.333 21 -24.166 37 -32.499s33.333 -12.5 52 -12.5c14.667 0 28.667 2.83301 42 8.5
s25 13.5 35 23.5s18 21.667 24 35s9 27.666 9 42.999v55c0 19.333 -5.33301 37.166 -16 53.499s-24 29.166 -40 38.499l-75 -75l-145 144l48 47l97 -98l58 59c42.667 -12 76.667 -33.333 102 -64s38 -66 38 -106v-54z" />
    <glyph glyph-name="seventhai" unicode="&#xe57;" horiz-adv-x="491" 
d="M449 173c0 -38.667 -9.66602 -73.8252 -28.999 -105.492s-49 -56.834 -89 -75.501l-31 59c30 13.333 51.333 30.666 64 51.999s19 44.666 19 69.999v55c0 18 -4.66699 35 -14 51s-22 29.333 -38 40l-81 -82l-85 85c-19.333 -11.333 -33.666 -26.333 -42.999 -45
s-14 -38.334 -14 -59.001v-54c0 -26 6.33301 -48.833 19 -68.5s29.667 -31.834 51 -36.501c9.33301 -1.33301 17.666 -1.33301 24.999 0s15.666 5.66602 24.999 12.999l26 -59c-14 -8.66699 -27 -14.334 -39 -17.001s-24.667 -3.33398 -38 -2.00098
c-22.667 2.66699 -42.5 9.5 -59.5 20.5s-31.167 24.333 -42.5 40s-19.833 33.167 -25.5 52.5s-8.5 38.666 -8.5 57.999v54c0 18 2.66699 36 8 54s13.5 35 24.5 51s25.167 30.667 42.5 44s38 24 62 32l72 -71l69 69c13.333 -5.33301 25 -10.666 35 -15.999
s19.667 -12.333 29 -21v102h66v-290z" />
    <glyph glyph-name="eightthai" unicode="&#xe58;" horiz-adv-x="495" 
d="M436 350c-5.33301 -6.66699 -11.998 -12.167 -19.998 -16.5s-17.333 -6.5 -28 -6.5h-163c-16 0 -31 -2.83301 -45 -8.5s-26.167 -13.5 -36.5 -23.5s-18.666 -21.667 -24.999 -35s-9.83301 -27.333 -10.5 -42v-56c0 -20.667 5.16699 -39.667 15.5 -57
s24.166 -31 41.499 -41l84 84l90 -88c13.333 3.33301 24.666 10.5 33.999 21.5s14 23.833 14 38.5v29c-1.33301 15.333 -8.83301 29 -22.5 41s-34.5 18 -62.5 18v66c22.667 0 43.334 -3.16699 62.001 -9.5s34.667 -15.166 48 -26.499s23.666 -24.5 30.999 -39.5
s11 -31.167 11 -48.5v-30c0 -18 -3.5 -34.667 -10.5 -50s-16.667 -28.833 -29 -40.5s-27 -20.834 -44 -27.501s-35.5 -10 -55.5 -10l-65 65l-71 -70c-42.667 14 -76.334 36.667 -101.001 68s-37 67 -37 107v55c0 24.667 4.83301 47.667 14.5 69s22.834 40 39.501 56
s36.167 28.5 58.5 37.5s46.166 13.5 71.499 13.5h155c3.33301 0 6 1.66699 8 5l50 65l54 -38z" />
    <glyph glyph-name="ninethai" unicode="&#xe59;" horiz-adv-x="484" 
d="M496 427l-10.5 -17.499l-9.5 -15.5c-4 -6.66699 -8.66699 -14 -14 -22s-11.333 -15.333 -18 -22s-13.667 -12.334 -21 -17.001s-15.333 -7 -24 -7h-43c-3.33301 0 -7.16602 -2 -11.499 -6s-11.166 -10.667 -20.499 -20l148 -280l-56 -34l-174 326
c-1.33301 2.66699 -4.83301 5.83398 -10.5 9.50098s-12.5 5.5 -20.5 5.5c-12 0 -24.167 -2.83301 -36.5 -8.5s-23.5 -13.167 -33.5 -22.5s-18 -20.5 -24 -33.5s-9 -26.833 -9 -41.5v-54c0 -15.333 3 -29.5 9 -42.5s14 -24.333 24 -34s21.667 -17.334 35 -23.001
s27.666 -8.5 42.999 -8.5c7.33301 0 16.166 1 26.499 3s21.833 7 34.5 15l30 -59c-17.333 -9.33301 -33 -15.833 -47 -19.5s-28.667 -5.5 -44 -5.5c-24.667 0 -47.834 4.5 -69.501 13.5s-40.5 21.5 -56.5 37.5s-28.667 34.5 -38 55.5s-14 43.5 -14 67.5v54
c0 23.333 4.66699 45.5 14 66.5s21.833 39.333 37.5 55s33.834 28 54.501 37s42 13.5 64 13.5c32 0 57.667 -12.333 77 -37c22 22 41.333 33 58 33h47c3.33301 0 6.66602 2.16699 9.99902 6.5l11 14.5c4.66699 8.66699 10.334 18 17.001 28
c2.66699 4.66699 6.66699 11 12 19z" />
    <glyph glyph-name="angkhankhuthai" unicode="&#xe5a;" horiz-adv-x="532" 
d="M281 0l0.00195312 308c-24.667 -16.667 -52.667 -25 -84 -25c-20.667 0 -40.167 4 -58.5 12s-34.333 19.167 -48 33.5s-24.5 31.833 -32.5 52.5s-12 43.667 -12 69h67c0 -34 8.16699 -59.5 24.5 -76.5s36.166 -25.5 59.499 -25.5s43.166 8.5 59.499 25.5
s24.5 42.5 24.5 76.5h67v-450h-67zM488.002 450v-450h-67v450h67z" />
    <glyph glyph-name="khomutthai" unicode="&#xe5b;" horiz-adv-x="1006" 
d="M772 199l-13.5049 -22.498c-4.33301 -7 -8.16602 -13.5 -11.499 -19.5l-19 -30.5c-6 -9.66699 -10 -15.5 -12 -17.5c-2 5.33301 -6.33301 13.833 -13 25.5l-21.5 37l-22 37c-7 11.667 -11.833 19.5 -14.5 23.5c-2 -5.33301 -6.5 -14.333 -13.5 -27l-24 -41.5l-27 -44.5
c-9 -14.667 -16.833 -26.667 -23.5 -36c-3.33301 7.33301 -9 18 -17 32l-25.5 43.5l-25.5 42.5c-8 13.333 -14 22.666 -18 27.999c-3.33301 -24 -11 -47.5 -23 -70.5s-27.5 -43.333 -46.5 -61s-40.667 -31.834 -65 -42.501s-50.5 -16 -78.5 -16
c-68.667 0 -121.167 17.333 -157.5 52s-54.5 81 -54.5 139c0 28.667 4.66699 54 14 76s21.5 40.5 36.5 55.5s31.833 26.167 50.5 33.5s37.667 11 57 11c18 0 35.167 -2.83301 51.5 -8.5s30.5 -14.5 42.5 -26.5s20.833 -26.833 26.5 -44.5s6.83398 -38.5 3.50098 -62.5
l-58 -5c2 14 1.5 26.333 -1.5 37s-7.66699 19.667 -14 27s-14.166 12.833 -23.499 16.5s-19 5.5 -29 5.5c-10.667 0 -21.5 -2.33301 -32.5 -7s-20.833 -11.667 -29.5 -21s-15.834 -21.166 -21.501 -35.499s-8.5 -31.5 -8.5 -51.5c0 -23.333 3.83301 -43.333 11.5 -60
s18.334 -30.167 32.001 -40.5s29.334 -18 47.001 -23s36.5 -7.5 56.5 -7.5c26.667 0 51.334 7.33301 74.001 22s41 33 55 55s22.833 46.167 26.5 72.5s0.166992 51.166 -10.5 74.499l44 30c8 -7.33301 17.833 -18 29.5 -32s23.5 -29 35.5 -45s22.833 -31.333 32.5 -46
s16.5 -26 20.5 -34c2 2.66699 5 8.5 9 17.5l13 29.5l13 30.5c4 9.66699 6.66699 16.5 8 20.5l43 25c2.66699 -2.66699 7.5 -8.83398 14.5 -18.501l22.5 -31c8 -11 15.167 -21.333 21.5 -31s10.5 -16.5 12.5 -20.5c0.666992 0.666992 2 3.33398 4 8.00098
s4.33301 9.66699 7 15l10 20h213v-62h-183z" />
    <glyph glyph-name="ZWSP" unicode="&#x200b;" 
 />
    <glyph glyph-name="endash" unicode="&#x2013;" horiz-adv-x="380" 
d="M15 145v60h350v-60h-350z" />
    <glyph glyph-name="emdash" unicode="&#x2014;" horiz-adv-x="760" 
d="M15 145v60h730v-60h-730z" />
    <glyph glyph-name="quoteleft" unicode="&#x2018;" horiz-adv-x="188" 
d="M141 568c-13.333 -8.66699 -24.167 -17.1689 -32.5 -25.502s-16.5 -19.166 -24.5 -32.499c17.333 -1.33301 30.333 -6.16602 39 -14.499s13 -18.166 13 -29.499c0 -12 -4.5 -22.667 -13.5 -32s-20.167 -14 -33.5 -14c-18 0 -31.333 6.33301 -40 19s-13 26 -13 40
c0 17.333 6.66699 36.166 20 56.499s34 39.833 62 58.5z" />
    <glyph glyph-name="quoteright" unicode="&#x2019;" horiz-adv-x="188" 
d="M138 532c0 -17.333 -6.66602 -36.165 -19.999 -56.498s-34 -39.833 -62 -58.5l-24 26c13.333 8 24.166 16.333 32.499 25s16.833 19.667 25.5 33c-17.333 1.33301 -30.5 6.16602 -39.5 14.499s-13.5 18.166 -13.5 29.499c0 12 4.5 22.667 13.5 32s20.167 14 33.5 14
c18 0 31.5 -6.33301 40.5 -19s13.5 -26 13.5 -40z" />
    <glyph glyph-name="quotedblleft" unicode="&#x201c;" horiz-adv-x="308" 
d="M276 568c-13.333 -8.66699 -24.167 -17.1689 -32.5 -25.502s-16.5 -19.166 -24.5 -32.499c17.333 -1.33301 30.333 -6.16602 39 -14.499s13 -18.166 13 -29.499c0 -12 -4.5 -22.667 -13.5 -32s-20.167 -14 -33.5 -14c-18 0 -31.333 6.33301 -40 19s-13 26 -13 40
c0 17.333 6.66699 36.166 20 56.499s34 39.833 62 58.5zM140.999 567.998c-13.333 -8.66699 -24.167 -17.1689 -32.5 -25.502s-16.5 -19.166 -24.5 -32.499c17.333 -1.33301 30.333 -6.16602 39 -14.499s13 -18.166 13 -29.499c0 -12 -4.5 -22.667 -13.5 -32
s-20.167 -14 -33.5 -14c-18 0 -31.333 6.33301 -40 19s-13 26 -13 40c0 17.333 6.66699 36.166 20 56.499s34 39.833 62 58.5z" />
    <glyph glyph-name="quotedblright" unicode="&#x201d;" horiz-adv-x="315" 
d="M271 532c0 -17.333 -6.66602 -36.165 -19.999 -56.498s-34 -39.833 -62 -58.5l-23 26c12.667 8 23.167 16.333 31.5 25s17.166 19.667 26.499 33c-17.333 1.33301 -30.5 6.16602 -39.5 14.499s-13.5 18.166 -13.5 29.499c0 12 4.5 22.667 13.5 32s20.167 14 33.5 14
c18 0 31.333 -6.33301 40 -19s13 -26 13 -40zM136.001 532.001c0 -17.333 -6.66602 -36.165 -19.999 -56.498s-34 -39.833 -62 -58.5l-23 26c12.667 8 23.167 16.333 31.5 25s17.166 19.667 26.499 33c-17.333 1.33301 -30.5 6.16602 -39.5 14.499
s-13.5 18.166 -13.5 29.499c0 12 4.5 22.667 13.5 32s20.167 14 33.5 14c18 0 31.333 -6.33301 40 -19s13 -26 13 -40z" />
    <glyph glyph-name="bullet" unicode="&#x2022;" horiz-adv-x="381" 
d="M368 200c0 -24.667 -4.66699 -47.834 -14 -69.501s-22 -40.5 -38 -56.5s-34.833 -28.667 -56.5 -38s-44.834 -14 -69.501 -14s-47.834 4.66699 -69.501 14s-40.5 22 -56.5 38s-28.667 34.833 -38 56.5s-14 44.834 -14 69.501s4.66699 47.834 14 69.501s22 40.5 38 56.5
s34.833 28.667 56.5 38s44.834 14 69.501 14s47.834 -4.66699 69.501 -14s40.5 -22 56.5 -38s28.667 -34.833 38 -56.5s14 -44.834 14 -69.501z" />
    <glyph glyph-name="Euro" unicode="&#x20ac;" horiz-adv-x="497" 
d="M461 32c-22.667 -14.667 -44.667 -24.835 -66 -30.502s-43.666 -8.5 -66.999 -8.5c-27.333 0 -53.5 4.5 -78.5 13.5s-48 21.5 -69 37.5s-39.167 34.833 -54.5 56.5s-26.666 45.167 -33.999 70.5h-61v63h52v2v50h-52v63h59c6.66699 26.667 17.5 51.167 32.5 73.5
s33 41.833 54 58.5s44.5 29.667 70.5 39s53.333 14 82 14c21.333 0 42.666 -2.66699 63.999 -8s43.666 -15.666 66.999 -30.999l-34 -57c-19.333 12 -37 19.833 -53 23.5s-31.333 5.5 -46 5.5c-38 0 -71.667 -11.167 -101 -33.5s-50.333 -50.5 -63 -84.5h163v-63h-173v-52
h173v-63h-160c6.66699 -16 15.5 -30.833 26.5 -44.5s23.5 -25.5 37.5 -35.5s29.167 -17.833 45.5 -23.5s33.5 -8.5 51.5 -8.5c14.667 0 30 1.83301 46 5.5s33.667 11.834 53 24.501z" />
    <glyph glyph-name="trademark" unicode="&#x2122;" horiz-adv-x="574" 
d="M513 214l-41 213l-83 -212h-20l-84 213l-42 -214h-41l62 314h24l90 -230l91 230h23l62 -314h-41zM146 488v-269h-41v269h-72v41h185v-41h-72z" />
    <glyph glyph-name="uni25CC" unicode="&#x25cc;" horiz-adv-x="670" 
d="M259 179l-48 -15l17 47c8.66699 -12 19 -22.667 31 -32zM312 413l23 45l22 -44c-3.33301 0.666992 -6.83301 1 -10.5 1h-10.5c-4 0 -8 -0.166992 -12 -0.5s-8 -0.833008 -12 -1.5zM355 156l-20 -42l-21 42c3.33301 -0.666992 7 -1.16699 11 -1.5s7.66699 -0.5 11 -0.5
s6.5 0.166992 9.5 0.5s6.16699 0.833008 9.5 1.5zM465 307l42 -22l-42 -19c0.666992 3.33301 1.16699 6.5 1.5 9.5s0.5 6.16699 0.5 9.5s-0.166992 7 -0.5 11s-0.833008 7.66699 -1.5 11zM208 264l-45 23l45 22c-0.666992 -4 -1.16699 -8 -1.5 -12s-0.5 -8 -0.5 -12
c0 -3.33301 0.166992 -6.83301 0.5 -10.5s0.833008 -7.16699 1.5 -10.5zM231 363l-13 46l45 -16c-12 -7.33301 -22.667 -17.333 -32 -30zM440 205l12 -41l-41 13c12 8.66699 21.667 18 29 28zM410 393l49 16l-17 -47c-9.33301 12 -20 22.333 -32 31z" />
    <glyph glyph-name="thothannobasethai" unicode="&#xf700;" horiz-adv-x="378" 
d="M301 393c20.667 -26.667 31.0039 -57.3301 31.0039 -91.9971c0 -9.33301 -0.833008 -19.833 -2.5 -31.5s-3.83398 -21.834 -6.50098 -30.501l-74 -239h-67l-87 299h70l51 -194l43 155c1.33301 5.33301 2.66602 12.166 3.99902 20.499s2 15.166 2 20.499
c0 12.667 -2.33301 24.5 -7 35.5s-11.334 20.667 -20.001 29s-18.667 14.833 -30 19.5s-23.333 7 -36 7c-23.333 0 -43.833 -7.83301 -61.5 -23.5s-28.5 -38.5 -32.5 -68.5h-67c2.66699 24 8.66699 45.667 18 65s21 35.833 35 49.5s30.167 24.167 48.5 31.5
s38.166 11 59.499 11c26.667 0 52.667 -6.66699 78 -20l47 55l52 -44z" />
    <glyph glyph-name="saraileftthai" unicode="&#xf701;" 
d="M-408 524v63h267v-62z" />
    <glyph glyph-name="saraiileftthai" unicode="&#xf702;" 
d="M-408 524v62h205v62h62v-123z" />
    <glyph glyph-name="saraueleftthai" unicode="&#xf703;" 
d="M-128 595c0 -19.333 -6.83301 -35.834 -20.5 -49.501s-30.167 -20.5 -49.5 -20.5l-211 -1v63h141v7c0 19.333 6.83301 35.833 20.5 49.5s30.167 20.5 49.5 20.5s35.833 -6.66699 49.5 -20s20.5 -29.666 20.5 -48.999zM-175 593.999c0 6.66699 -2.16699 12.167 -6.5 16.5
s-9.83301 6.5 -16.5 6.5s-12.334 -2.16699 -17.001 -6.5s-7 -9.83301 -7 -16.5s2.33301 -12.334 7 -17.001s10.334 -7 17.001 -7s12.167 2.33301 16.5 7s6.5 10.334 6.5 17.001z" />
    <glyph glyph-name="saraueeleftthai" unicode="&#xf704;" 
d="M-408 524v63h100v61h62v-61h43v61h63v-123z" />
    <glyph glyph-name="maieklowleftthai" unicode="&#xf705;" 
d="M-250 529v151h65v-150z" />
    <glyph glyph-name="maitholowleftthai" unicode="&#xf706;" 
d="M-354 529l13.001 17.998l16 22c5.33301 7.33301 9.83301 13.833 13.5 19.5s5.5 9.5 5.5 11.5c0 11.333 -5.66699 17 -17 17c-5.33301 0 -9.33301 -2 -12 -6l-41 41c8 8 16.667 13.667 26 17s18.666 5 27.999 5c22 0 39.833 -6.66699 53.5 -20s20.5 -30 20.5 -50
c0 -3.33301 -0.5 -6.16602 -1.5 -8.49902s-1.83301 -4.16602 -2.5 -5.49902h15h106v-60z" />
    <glyph glyph-name="maitrilowleftthai" unicode="&#xf707;" 
d="M-274 529l20.5049 35.499c7 12.333 10.5 22.833 10.5 31.5c0 6.66699 -2.33301 11.834 -7 15.501s-9.66699 5.5 -15 5.5c-4 0 -9.16699 -2 -15.5 -6s-9.5 -13 -9.5 -27h-46c0 14 -2.66699 23 -8 27s-10.666 6 -15.999 6s-10 -1.83301 -14 -5.5s-6 -8.83398 -6 -15.501
c0 -2.66699 0.666992 -6.5 2 -11.5s7.33301 -11.167 18 -18.5l-39 -39c-11.333 7.33301 -21.5 17 -30.5 29s-13.5 24.667 -13.5 38c0 10.667 2.16699 20.834 6.5 30.501s10.166 18 17.499 25s15.833 12.667 25.5 17s20.167 6.5 31.5 6.5c9.33301 0 18.333 -1.33301 27 -4
s16 -7.66699 22 -15c7.33301 7.33301 15.166 12.333 23.499 15s17.166 4 26.499 4c21.333 0 39.666 -7 54.999 -21s23.666 -32 24.999 -54c0 -4 -0.666992 -8 -2 -12h11c3.33301 0 5.66602 0.333008 6.99902 1l35 -1v-56z" />
    <glyph glyph-name="maichattawalowleftthai" unicode="&#xf708;" 
d="M-214 585v-56h-63v55h-55v59h55v56h63v-55h55v-59h-55z" />
    <glyph glyph-name="thanthakhatlowleftthai" unicode="&#xf709;" 
d="M-231 584c-1.33301 0 -3.16602 -0.665039 -5.49902 -1.99805s-3.5 -3.66602 -3.5 -6.99902c0 -2.66699 1 -4.83398 3 -6.50098s6.66699 -6.16699 14 -13.5l-42 -42c-12.667 12 -21.5 22.667 -26.5 32s-7.5 19.666 -7.5 30.999c0 21.333 6.16699 38.166 18.5 50.499
s29.166 18.5 50.499 18.5h86v-61h-87z" />
    <glyph glyph-name="maieklowrightthai" unicode="&#xf70a;" 
d="M-109 529v151h65v-150z" />
    <glyph glyph-name="maitholowrightthai" unicode="&#xf70b;" 
d="M-229 529l13 17.998l16 22l14 20c4 6 6 9.66699 6 11c0 5.33301 -1.66699 9.5 -5 12.5s-7.33301 4.5 -12 4.5c-6 0 -10.333 -2 -13 -6l-40 41c7.33301 8 15.833 13.667 25.5 17s18.834 5 27.501 5c22.667 0 40.667 -6.66699 54 -20s20 -30 20 -50
c0 -3.33301 -0.333008 -6.16602 -1 -8.49902s-1.33398 -4.16602 -2.00098 -5.49902h14h112v-60z" />
    <glyph glyph-name="maitrilowrightthai" unicode="&#xf70c;" 
d="M-168 529l20.0049 36.498c7.33301 13.667 11 23.834 11 30.501s-2.33301 11.834 -7 15.501s-9.66699 5.5 -15 5.5c-4 0 -9.16699 -2 -15.5 -6s-9.5 -13 -9.5 -27h-46c0 14 -2.66699 23 -8 27s-10.666 6 -15.999 6s-10 -1.83301 -14 -5.5s-6 -8.83398 -6 -15.501
c0 -2.66699 0.666992 -6.5 2 -11.5s7.33301 -11.167 18 -18.5l-39 -39c-11.333 7.33301 -21.5 17 -30.5 29s-13.5 24.667 -13.5 38c0 10.667 2.16699 20.834 6.5 30.501s10.166 18 17.499 25s15.833 12.667 25.5 17s20.167 6.5 31.5 6.5c9.33301 0 18.333 -1.33301 27 -4
s16 -7.66699 22 -15c7.33301 7.33301 15.166 12.333 23.499 15s17.166 4 26.499 4c21.333 0 39.666 -7 54.999 -21s23.666 -32 24.999 -54c0 -4 -0.666992 -8 -2 -12h11c3.33301 0 5.66602 0.333008 6.99902 1h61v-57z" />
    <glyph glyph-name="maichattawalowrightthai" unicode="&#xf70d;" 
d="M-44 585v-56h-63v55h-56v59h55v56h63v-55h56v-59h-55z" />
    <glyph glyph-name="thanthakhatlowrightthai" unicode="&#xf70e;" 
d="M-113 584c-1.33301 0 -3.16699 -0.666016 -5.5 -1.99902s-3.5 -3.66602 -3.5 -6.99902c0 -2.66699 1 -4.83398 3 -6.50098s6.33301 -6.16699 13 -13.5l-42 -42c-12.667 12 -21.5 22.667 -26.5 32s-7.5 19.666 -7.5 30.999c0 22 6.33301 39 19 51s29.667 18 51 18h85v-61
h-86z" />
    <glyph glyph-name="yoyingnobasethai" unicode="&#xf70f;" horiz-adv-x="670" 
d="M473 -6c-21.333 0 -41.3301 3.83301 -59.9971 11.5s-34.834 18.167 -48.501 31.5s-24.334 29 -32.001 47s-11.5 37.333 -11.5 58v140c0 34 -11.5 61 -34.5 81s-52.833 30 -89.5 30c-18 0 -35.5 -4 -52.5 -12s-31.167 -18.667 -42.5 -32l25 -26v-258h62v-65h-131v299
l-41 45c20 34.667 45.5 62.334 76.5 83.001s65.5 31 103.5 31c28 0 53.667 -4.33301 77 -13s43.5 -20.834 60.5 -36.501s30.333 -34.167 40 -55.5s14.5 -45 14.5 -71v-140c0 -22.667 8 -42 24 -58s36.333 -24 61 -24c24 0 44 7.66699 60 23s24 35 24 59v308h68v-308
c0 -20.667 -4 -40 -12 -58s-18.833 -33.667 -32.5 -47s-29.834 -23.833 -48.501 -31.5s-38.667 -11.5 -60 -11.5z" />
    <glyph glyph-name="maihanakatleftthai" unicode="&#xf710;" 
d="M-212 524c-19.333 0 -36 7.16797 -50 21.501s-21 31.166 -21 50.499v41h63v-41c0 -5.33301 2.66699 -8 8 -8h237v-63z" />
    <glyph glyph-name="nikhahitleftthai" unicode="&#xf711;" 
d="M-155 575c0 -19.333 -7 -36 -21 -50s-31 -21 -51 -21c-19.333 0 -36.166 7 -50.499 21s-21.5 30.667 -21.5 50c0 20 7.16699 37 21.5 51s31.166 21 50.499 21c20 0 37 -7 51 -21s21 -31 21 -51zM-203 575c0 6.66699 -2.33301 12.167 -7 16.5s-10.334 6.5 -17.001 6.5
s-12.167 -2.16699 -16.5 -6.5s-6.5 -9.83301 -6.5 -16.5s2.16699 -12.334 6.5 -17.001s9.83301 -7 16.5 -7s12.334 2.33301 17.001 7s7 10.334 7 17.001z" />
    <glyph glyph-name="maitaikhuleftthai" unicode="&#xf712;" 
d="M-333 649c-9.33301 0 -16.167 -4.00195 -20.5 -12.002s-6.5 -15.667 -6.5 -23s2.16699 -14.666 6.5 -21.999s11.5 -11 21.5 -11c7.33301 0 13.5 3 18.5 9s7.5 15.333 7.5 28h58c0 -13.333 2 -22.833 6 -28.5s9.66699 -8.5 17 -8.5c16 0 24 12.333 24 37h58
c0 -30 -7.83301 -53.167 -23.5 -69.5s-34.834 -24.5 -57.501 -24.5c-21.333 0 -39 7 -53 21c-6 -7.33301 -13.667 -12.666 -23 -15.999s-19 -5 -29 -5c-25.333 0 -46.166 8.5 -62.499 25.5s-24.5 38.167 -24.5 63.5c0 28.667 8 51.5 24 68.5s37 25.5 63 25.5h204v-58h-208z
" />
    <glyph glyph-name="maiekupperleftthai" unicode="&#xf713;" 
d="M-204 693v123h62v-123h-62z" />
    <glyph glyph-name="maithoupperleftthai" unicode="&#xf714;" 
d="M-290 693c2.66699 4 6.66797 9.66699 12.001 17s10.5 14.833 15.5 22.5l13 20.5c3.66699 6 5.5 9.66699 5.5 11c0 12 -4.66699 18 -14 18c-5.33301 0 -10 -2 -14 -6l-40 40c14.667 14.667 32.667 22 54 22s39 -7 53 -21s21 -31 21 -51c0 -3.33301 -0.333008 -6 -1 -8
s-1.33398 -3.66699 -2.00098 -5h14l129 1v-61h-246z" />
    <glyph glyph-name="maitriupperleftthai" unicode="&#xf715;" 
d="M-200 692l26.999 51c1.33301 2.66699 2 5.33398 2 8.00098c0 3.33301 -1.33301 6.5 -4 9.5s-5.66699 4.5 -9 4.5s-6.83301 -1.33301 -10.5 -4s-5.5 -9.33398 -5.5 -20.001h-52c0 9.33301 -1.33301 15.666 -4 18.999s-6.33398 5 -11.001 5c-4 0 -7.16699 -1.66699 -9.5 -5
s-3.5 -6.66602 -3.5 -9.99902c0 -1.33301 0.5 -4.5 1.5 -9.5s6.5 -10.167 16.5 -15.5l-40 -39c-13.333 11.333 -22.666 22 -27.999 32s-8 20.667 -8 32c0 19.333 7 36 21 50s30.667 21 50 21c7.33301 0 15 -1.5 23 -4.5s14 -7.16699 18 -12.5
c4 4.66699 9.83301 8.66699 17.5 12s15.5 5 23.5 5c19.333 0 35.833 -6.83301 49.5 -20.5s20.834 -30.167 21.501 -49.5h66v-58z" />
    <glyph glyph-name="maichattawaupperleftthai" unicode="&#xf716;" 
d="M-142 732v-44h-63v43h-42v54h42v44h63v-43h42v-54h-42z" />
    <glyph glyph-name="thanthakhatupperleftthai" unicode="&#xf717;" 
d="M-174 711c-1.33301 0 -3.33301 -0.833984 -6 -2.50098s-4 -4.16699 -4 -7.5c0 -2 0.833008 -4.5 2.5 -7.5s6.16699 -7.5 13.5 -13.5l-42 -41c-12.667 12.667 -21.5 23.834 -26.5 33.501s-7.5 19.167 -7.5 28.5c0 19.333 6.83301 35.833 20.5 49.5s30.167 20.5 49.5 20.5
h70v-60h-70z" />
    <glyph glyph-name="saraulowthai" unicode="&#xf718;" 
d="M-107 -343v80h-41v63h69c9.33301 0 17.5 -3.33301 24.5 -10s10.5 -15 10.5 -25v-108h-63z" />
    <glyph glyph-name="sarauulowthai" unicode="&#xf719;" 
d="M-44 -269c0 -24 -8.49902 -44.501 -25.499 -61.501s-37.5 -25.5 -61.5 -25.5c-12 0 -23.167 2.33301 -33.5 7s-19.5 10.834 -27.5 18.501s-14.167 16.667 -18.5 27s-6.5 21.5 -6.5 33.5v7h-41v63h103v-69c0 -6.66699 2.16699 -12.334 6.5 -17.001s10.166 -7 17.499 -7
s13 2.33301 17 7s6 10.334 6 17.001v69h64v-70v1z" />
    <glyph glyph-name="phinthulowthai" unicode="&#xf71a;" 
d="M-34 -238c0 -12.667 -4.33301 -23.167 -13 -31.5s-19 -12.5 -31 -12.5s-22.333 4.16699 -31 12.5s-13 18.5 -13 30.5c0 12.667 4.33301 23.167 13 31.5s19 12.5 31 12.5s22.333 -4.16699 31 -12.5s13 -18.833 13 -31.5v1z" />
    <glyph glyph-name="lochula.short" unicode="&#xf71d;" horiz-adv-x="487" 
d="M442 470c0 -12 -1.33203 -23 -3.99902 -33s-7.66699 -18.667 -15 -26c7.33301 -9.33301 12.333 -19.5 15 -30.5s4 -22.5 4 -34.5v-238c0 -15.333 -3 -29.833 -9 -43.5s-14.333 -25.5 -25 -35.5s-23 -18 -37 -24s-29 -9 -45 -9c-32.667 0 -60.334 11 -83.001 33
c-22 -22 -49.333 -33 -82 -33c-16 0 -31 3 -45 9s-26.333 14 -37 24s-19 21.833 -25 35.5s-9 28.167 -9 43.5v342h67v-342c0 -13.333 4.66699 -24.5 14 -33.5s21 -13.5 35 -13.5c13.333 0 24.833 4.66699 34.5 14s14.5 20.666 14.5 33.999v227h67v-228
c0 -13.333 4.83301 -24.5 14.5 -33.5s21.167 -13.5 34.5 -13.5c14 0 25.667 4.5 35 13.5s14 20.167 14 33.5v236c0 16.667 -3.33301 28.334 -10 35.001s-15.667 10 -27 10h-54v61h57c16.667 0 26.667 1.16699 30 3.5s5 7.83301 5 16.5l1 27h66z" />
    <glyph glyph-name="rulakkhangyao" unicode="&#xf881;" horiz-adv-x="637" 
d="M593 -172l-67 0.00195312v476c0 60.667 -28 91 -84 91c-14 0 -26.833 -2.5 -38.5 -7.5s-24.5 -14.5 -38.5 -28.5c11.333 -24.667 17 -50.334 17 -77.001v-453h-67v452c0 34 -11.167 61 -33.5 81s-51.5 30 -87.5 30c-18 0 -35.333 -4 -52 -12s-30.667 -18.667 -42 -32
l25 -27l-1 -256h66v-65h-132v298l-41 45c19.333 34.667 44.5 62.334 75.5 83.001s64.833 31 101.5 31c54.667 0 98.667 -15.667 132 -47c19.333 17.333 38 29.666 56 36.999s38.333 11 61 11c26 0 48.333 -4 67 -12s34.167 -18.833 46.5 -32.5s21.5 -29.334 27.5 -47.001
s9 -36.167 9 -55.5v-483z" />
    <glyph glyph-name="lulakkhangyao" unicode="&#xf882;" horiz-adv-x="647" 
d="M601 -172h-66.999v476c0 60.667 -28 91 -84 91c-14 0 -26.833 -2.5 -38.5 -7.5s-24.5 -14.5 -38.5 -28.5c12 -23.333 18 -49.333 18 -78v-452h-67v452c0 34 -11.167 61 -33.5 81s-51.5 30 -87.5 30c-17.333 0 -34.333 -4.16699 -51 -12.5s-31 -18.833 -43 -31.5l25 -27
v-321h-111v65h44v233l-41 45c19.333 34.667 44.5 62.334 75.5 83.001s64.833 31 101.5 31c26 0 50.167 -4 72.5 -12s41.833 -19.333 58.5 -34c19.333 17.333 38.166 29.5 56.499 36.5s38.5 10.5 60.5 10.5c26 0 48.333 -4 67 -12s34.167 -18.833 46.5 -32.5
s21.5 -29.334 27.5 -47.001s9 -36.167 9 -55.5v-483z" />
    <glyph glyph-name=".null" 
 />
    <glyph glyph-name="nonmarkingreturn" horiz-adv-x="283" 
 />
    <glyph glyph-name="yamakkanleftthai" 
d="M-141 700c-6 6 -11.165 10.1631 -15.498 12.4961s-8.83301 3.5 -13.5 3.5c-9.33301 0 -17.333 -3.16699 -24 -9.5s-10 -14.166 -10 -23.499s3.66699 -17.166 11 -23.499s18.666 -9.5 33.999 -9.5v-47c-15.333 0 -26.666 -3.16699 -33.999 -9.5s-11 -14.166 -11 -23.499
s3.66699 -17.166 11 -23.499s18.666 -9.5 33.999 -9.5v-47c-28 0 -50.5 7.83301 -67.5 23.5s-25.5 34.5 -25.5 56.5s8 40.667 24 56c-16 16 -24 35 -24 57s7.83301 40.833 23.5 56.5s35.167 23.5 58.5 23.5c21.333 0 42.666 -10 63.999 -30z" />
    <glyph glyph-name="saraamleft" horiz-adv-x="321" 
d="M-152 575c0 -19.333 -7 -36 -21 -50s-31 -21 -51 -21s-37 7 -51 21s-21 30.667 -21 50c0 20 7 37 21 51s31 21 51 21s37 -7 51 -21s21 -31 21 -51zM277 0l-66.999 0.00195312v304c0 60.667 -28 91 -84 91c-14 0 -26.833 -2.5 -38.5 -7.5s-24.5 -14.5 -38.5 -28.5l-46 45
c20.667 19.333 40.667 33.166 60 41.499s40.666 12.5 63.999 12.5c26 0 48.333 -4 67 -12s34.167 -18.833 46.5 -32.5s21.5 -29.334 27.5 -47.001s9 -36.167 9 -55.5v-311zM-200.999 575.002c0 6.66699 -2.16699 12.167 -6.5 16.5s-9.83301 6.5 -16.5 6.5
s-12.334 -2.16699 -17.001 -6.5s-7 -9.83301 -7 -16.5s2.33301 -12.334 7 -17.001s10.334 -7 17.001 -7s12.167 2.33301 16.5 7s6.5 10.334 6.5 17.001z" />
    <glyph glyph-name="uni0E33.alt1" horiz-adv-x="321" 
d="M277 0l-66.999 0.00195312v304c0 60.667 -28 91 -84 91c-14 0 -26.833 -2.5 -38.5 -7.5s-24.5 -14.5 -38.5 -28.5l-46 45c20.667 19.333 40.667 33.166 60 41.499s40.666 12.5 63.999 12.5c26 0 48.333 -4 67 -12s34.167 -18.833 46.5 -32.5s21.5 -29.334 27.5 -47.001
s9 -36.167 9 -55.5v-311zM-151.999 575.002c0 -19.333 -7 -36 -21 -50s-31 -21 -51 -21s-37 7 -51 21s-21 30.667 -21 50c0 20 7 37 21 51s31 21 51 21s37 -7 51 -21s21 -31 21 -51zM-200.999 575.002c0 6.66699 -2.16699 12.167 -6.5 16.5s-9.83301 6.5 -16.5 6.5
s-12.334 -2.16699 -17.001 -6.5s-7 -9.83301 -7 -16.5s2.33301 -12.334 7 -17.001s10.334 -7 17.001 -7s12.167 2.33301 16.5 7s6.5 10.334 6.5 17.001z" />
    <glyph glyph-name="sarauchochanthai" 
d="M-187 -193v80h-41v64h69c9.33301 0 17.5 -3.5 24.5 -10.5s10.5 -15.167 10.5 -24.5v-109h-63z" />
    <glyph glyph-name="sarainarrowthai" 
d="M-351 525v62h307v-62h-307z" />
    <glyph glyph-name="saraiinarrowthai" 
d="M-351 524v63h243v61h64v-124h-307z" />
    <glyph glyph-name="sarauenarrowthai" 
d="M-32 595c0 -19.333 -6.83301 -35.834 -20.5 -49.501s-30.167 -20.5 -49.5 -20.5l-249 -1v63h179v7c0 19.333 6.83301 35.833 20.5 49.5s30.167 20.5 49.5 20.5s35.833 -6.66699 49.5 -20s20.5 -29.666 20.5 -48.999zM-79 593.999c0 6.66699 -2.16699 12.167 -6.5 16.5
s-9.83301 6.5 -16.5 6.5s-12.167 -2.16699 -16.5 -6.5s-6.5 -9.83301 -6.5 -16.5s2.16699 -12.334 6.5 -17.001s9.83301 -7 16.5 -7s12.167 2.33301 16.5 7s6.5 10.334 6.5 17.001z" />
    <glyph glyph-name="saraueenarrowthai" 
d="M-351 524v63h140v61h62v-61h43v61h62v-123z" />
    <glyph glyph-name="sarauuchochanthai" 
d="M-74 -119c0 -24 -8.49902 -44.5 -25.499 -61.5s-37.5 -25.5 -61.5 -25.5s-44.333 8.5 -61 25.5s-25 37.5 -25 61.5v6h-41v64h103v-70c0 -6.66699 2.16699 -12.334 6.5 -17.001s10.166 -7 17.499 -7c6.66699 0 12.167 2.33301 16.5 7s6.5 10.334 6.5 17.001v70h64v-70z
" />
    </font>
</defs>
</svg>
